<svg id="svg" version="1.1" xmlns="http://www.w3.org/2000/svg" xmlns:xlink="http://www.w3.org/1999/xlink" width="400" height="402.72108843537416" viewBox="0, 0, 400,402.72108843537416"><g id="svgg"><path id="path0" d="M42.893 1.668 C 41.811 1.910,40.954 2.403,40.554 3.014 C 40.178 3.587,39.362 4.083,38.541 4.237 C 37.427 4.446,37.116 4.719,36.930 5.648 C 36.779 6.406,36.453 6.800,35.979 6.800 C 34.970 6.800,34.000 7.880,34.000 9.002 C 34.000 9.574,33.704 10.040,33.250 10.184 C 32.234 10.506,31.200 13.375,31.200 15.870 C 31.200 17.689,31.095 17.940,30.248 18.152 C 28.852 18.503,28.811 18.943,28.805 33.900 L 28.800 47.600 24.850 47.600 C 19.472 47.600,18.385 47.856,17.859 49.248 C 17.439 50.361,17.393 50.374,13.617 50.487 L 9.800 50.600 9.675 51.900 C 9.551 53.185,9.525 53.200,7.455 53.200 C 5.187 53.200,4.400 53.672,4.400 55.030 C 4.400 55.675,4.092 55.962,3.211 56.138 C 2.324 56.315,1.958 56.659,1.773 57.488 C 1.281 59.699,1.137 60.000,0.573 60.000 C 0.077 60.000,0.000 73.072,0.000 157.000 L 0.000 254.000 2.100 253.991 C 4.072 253.983,4.236 253.904,4.800 252.691 C 5.216 251.796,6.071 251.060,7.588 250.292 C 8.792 249.682,9.962 248.998,10.188 248.772 C 10.467 248.493,10.665 219.653,10.800 159.480 L 11.000 70.600 12.400 68.244 C 13.486 66.418,14.385 65.518,16.400 64.244 L 19.000 62.600 168.800 62.500 C 316.591 62.401,318.619 62.410,320.000 63.178 C 320.770 63.607,321.991 64.242,322.714 64.590 C 323.436 64.937,324.230 65.667,324.478 66.211 C 324.726 66.755,325.075 67.200,325.255 67.200 C 327.105 67.200,326.985 57.704,327.200 220.582 L 327.400 371.800 328.548 375.200 C 329.179 377.070,329.875 379.230,330.096 380.000 C 330.316 380.770,330.813 381.760,331.202 382.200 C 331.590 382.640,332.043 383.450,332.208 384.000 C 332.373 384.550,333.015 385.581,333.634 386.291 C 335.130 388.007,335.588 390.327,334.577 391.067 C 333.317 391.988,31.748 391.651,30.337 390.727 C 29.772 390.357,28.274 389.783,27.008 389.453 C 25.742 389.122,24.322 388.501,23.853 388.073 C 23.384 387.644,22.370 386.981,21.600 386.599 C 20.187 385.897,15.600 381.478,15.600 380.818 C 15.600 380.622,15.151 379.928,14.603 379.277 C 14.055 378.625,13.259 377.037,12.834 375.746 C 12.409 374.456,11.785 372.680,11.448 371.800 C 10.911 370.398,10.827 364.170,10.770 321.400 C 10.698 266.975,10.860 270.579,8.430 269.239 C 7.460 268.704,5.976 267.576,5.133 266.733 C 3.810 265.410,3.354 265.200,1.800 265.200 L 0.000 265.200 0.000 324.200 C 0.000 374.167,0.085 383.200,0.553 383.200 C 1.160 383.200,1.586 384.387,1.595 386.100 C 1.599 387.054,1.759 387.200,2.800 387.200 C 3.817 387.200,4.000 387.354,4.000 388.213 C 4.000 389.784,5.104 392.050,5.980 392.279 C 6.416 392.393,7.132 393.097,7.572 393.843 C 8.013 394.589,8.653 395.200,8.995 395.200 C 9.337 395.200,9.828 395.662,10.085 396.227 C 10.577 397.306,12.659 398.400,14.222 398.400 C 14.934 398.400,15.176 398.654,15.273 399.500 C 15.392 400.527,15.567 400.622,17.900 400.935 C 19.629 401.167,20.400 401.444,20.400 401.835 C 20.400 402.321,45.555 402.400,200.000 402.400 C 354.445 402.400,379.600 402.321,379.600 401.835 C 379.600 401.444,380.371 401.167,382.100 400.935 C 384.433 400.622,384.608 400.527,384.727 399.500 C 384.823 398.659,385.068 398.400,385.765 398.400 C 387.088 398.400,389.020 397.334,389.769 396.191 C 390.126 395.646,390.690 395.200,391.023 395.200 C 391.355 395.200,391.987 394.589,392.428 393.843 C 392.868 393.097,393.584 392.393,394.020 392.279 C 394.896 392.050,396.000 389.784,396.000 388.213 C 396.000 387.363,396.186 387.200,397.153 387.200 C 398.278 387.200,398.314 387.135,398.585 384.600 C 398.783 382.751,399.028 382.000,399.432 382.000 C 399.922 382.000,400.000 356.489,400.000 196.400 C 400.000 32.750,399.930 10.800,399.408 10.800 C 398.859 10.800,398.616 10.226,398.313 8.214 C 398.239 7.723,397.717 7.291,396.919 7.063 C 395.963 6.788,395.613 6.437,395.522 5.659 C 395.418 4.777,395.130 4.569,393.600 4.273 C 391.726 3.910,390.400 3.038,390.400 2.170 C 390.400 1.222,385.586 1.156,324.761 1.278 C 256.975 1.414,262.800 1.116,262.800 4.449 C 262.800 6.199,262.969 6.569,264.435 8.035 C 265.334 8.934,266.314 10.254,266.612 10.967 C 267.704 13.580,264.197 13.389,313.332 13.510 C 347.512 13.594,358.280 13.734,358.722 14.101 C 359.195 14.494,359.240 15.207,358.969 17.991 C 358.786 19.866,358.628 52.277,358.618 90.016 L 358.600 158.632 359.600 159.892 C 362.191 163.156,365.190 162.975,367.743 159.400 L 368.600 158.200 368.812 90.200 C 369.041 16.644,368.913 20.466,371.238 17.818 C 376.251 12.109,383.907 13.139,387.453 20.000 L 388.796 22.600 388.798 196.513 C 388.800 354.245,388.741 370.564,388.167 371.913 C 387.819 372.731,387.184 374.517,386.756 375.883 C 386.328 377.249,385.796 378.479,385.573 378.617 C 385.350 378.755,384.703 379.617,384.136 380.534 C 382.781 382.722,379.595 385.782,377.625 386.787 C 376.761 387.228,375.953 387.752,375.830 387.952 C 374.521 390.070,359.553 392.180,357.552 390.529 C 357.248 390.278,355.948 389.800,354.662 389.465 C 353.376 389.130,351.666 388.419,350.862 387.884 C 350.058 387.349,348.770 386.538,348.000 386.080 C 343.414 383.355,339.460 376.682,337.999 369.200 C 337.477 366.524,337.500 325.335,338.024 324.355 C 338.707 323.079,340.288 322.670,345.600 322.395 C 351.351 322.098,357.087 320.611,358.822 318.968 C 359.384 318.435,360.024 318.000,360.244 318.000 C 360.658 318.000,363.870 314.609,365.563 312.386 C 366.093 311.691,367.036 309.294,367.660 307.061 L 368.795 303.000 368.766 243.200 L 368.737 183.400 367.644 181.603 C 366.375 179.517,364.643 178.963,361.661 179.691 C 358.135 180.550,358.400 175.518,358.400 241.618 C 358.400 308.727,358.608 304.838,354.832 308.442 C 350.827 312.265,340.174 313.299,338.200 310.057 C 337.937 309.625,337.727 268.181,337.586 189.000 C 337.357 60.682,337.458 66.561,335.435 63.858 C 334.917 63.166,334.380 62.240,334.242 61.800 C 334.014 61.076,332.958 59.917,329.399 56.485 C 328.738 55.848,327.478 55.093,326.599 54.807 C 325.720 54.521,324.100 53.817,323.000 53.243 L 321.000 52.200 182.668 52.000 C 44.915 51.801,44.333 51.797,43.745 51.000 C 43.245 50.322,43.174 47.976,43.277 35.576 L 43.400 20.952 44.472 19.678 C 45.062 18.978,45.660 18.040,45.801 17.595 C 45.943 17.151,46.781 16.385,47.663 15.893 C 52.208 13.364,41.877 13.604,147.600 13.578 C 249.812 13.552,246.308 13.615,247.141 11.794 C 248.219 9.438,249.651 7.561,250.665 7.175 C 251.637 6.806,251.687 6.653,251.516 4.592 C 251.300 1.987,251.302 1.989,249.116 1.567 C 246.661 1.092,45.024 1.191,42.893 1.668 M28.924 77.115 C 28.014 77.693,26.402 80.440,25.988 82.115 C 25.708 83.250,25.609 100.778,25.686 135.800 L 25.800 187.800 27.122 190.070 L 28.443 192.341 30.922 192.590 C 32.285 192.727,95.468 192.785,171.329 192.720 L 309.257 192.600 310.829 190.915 L 312.400 189.231 312.396 134.715 L 312.391 80.200 310.766 78.500 L 309.140 76.800 169.270 76.806 C 92.341 76.809,29.186 76.948,28.924 77.115 M301.289 87.911 L 302.200 88.822 302.200 134.797 C 302.200 178.399,302.163 180.808,301.486 181.486 C 300.803 182.168,294.931 182.205,170.086 182.304 C 31.313 182.415,37.522 182.498,36.766 180.511 C 36.352 179.422,36.248 91.660,36.658 89.609 C 37.280 86.502,23.310 86.786,169.889 86.899 L 300.378 87.000 301.289 87.911 M116.600 102.170 C 115.940 102.467,114.725 103.339,113.900 104.109 L 112.400 105.508 112.400 134.748 L 112.400 163.988 114.233 165.769 C 116.574 168.045,117.012 168.101,131.218 167.932 L 142.236 167.800 144.092 166.200 C 147.100 163.607,147.034 160.561,143.923 158.346 C 142.694 157.470,142.235 157.421,133.837 157.264 L 125.039 157.100 123.919 155.981 L 122.800 154.862 122.800 148.493 C 122.800 139.989,122.786 140.000,133.409 140.000 C 142.302 140.000,144.067 139.108,144.067 134.616 C 144.067 130.528,142.049 129.600,133.157 129.600 C 122.961 129.600,122.800 129.466,122.800 121.000 C 122.800 112.383,122.440 112.675,133.400 112.397 C 140.797 112.210,141.547 112.123,143.344 111.240 C 147.803 109.051,146.950 103.958,141.795 101.998 C 140.111 101.358,118.074 101.508,116.600 102.170 M263.800 102.001 C 263.140 102.176,261.160 102.699,259.400 103.164 C 257.640 103.628,255.750 104.366,255.200 104.802 C 254.650 105.239,253.525 105.961,252.700 106.406 C 251.875 106.852,251.200 107.410,251.200 107.648 C 251.200 107.885,250.634 108.608,249.941 109.255 C 248.496 110.605,246.000 117.156,246.000 119.600 C 246.000 124.503,250.150 131.450,254.131 133.211 C 255.141 133.657,256.073 134.195,256.204 134.406 C 256.334 134.617,257.467 135.085,258.720 135.445 C 259.974 135.806,261.720 136.518,262.600 137.028 C 263.480 137.538,265.100 138.151,266.200 138.391 C 267.300 138.631,268.650 139.153,269.200 139.550 C 269.750 139.947,271.100 140.573,272.200 140.940 C 278.286 142.972,280.309 149.113,276.318 153.443 C 275.420 154.417,274.216 155.330,273.643 155.473 C 273.069 155.616,271.880 156.059,271.000 156.458 C 268.911 157.404,265.935 157.390,262.978 156.420 C 261.670 155.991,259.866 155.453,258.968 155.223 C 257.200 154.771,255.003 153.332,253.041 151.341 C 249.289 147.535,242.268 150.012,243.055 154.864 C 243.215 155.849,243.907 156.909,245.342 158.367 C 248.351 161.422,248.817 161.800,250.800 162.792 C 251.790 163.288,252.892 163.949,253.248 164.262 C 253.604 164.574,255.494 165.259,257.448 165.784 C 259.402 166.308,261.540 166.946,262.200 167.201 C 264.254 167.995,271.186 167.819,273.236 166.921 C 274.206 166.495,275.900 165.904,277.000 165.606 C 279.705 164.874,283.942 161.406,286.759 157.620 C 289.864 153.446,289.659 142.816,286.397 138.841 C 285.209 137.394,284.896 137.067,282.888 135.173 C 281.486 133.851,276.344 130.800,275.517 130.800 C 275.167 130.800,273.916 130.292,272.736 129.671 C 271.556 129.051,269.707 128.321,268.628 128.049 C 267.548 127.777,265.930 127.139,265.032 126.631 C 264.135 126.123,262.536 125.477,261.480 125.196 C 257.062 124.020,255.721 117.453,259.294 114.488 C 259.883 114.000,263.778 112.826,265.849 112.513 C 267.603 112.248,274.322 113.911,276.000 115.025 C 280.189 117.807,282.760 118.204,285.477 116.488 C 289.392 114.015,287.898 109.481,282.200 106.541 C 281.100 105.973,279.895 105.241,279.522 104.913 C 279.150 104.585,277.080 103.878,274.922 103.342 C 272.765 102.807,270.370 102.200,269.600 101.994 C 267.948 101.552,265.479 101.555,263.800 102.001 M51.422 103.171 C 49.152 104.802,49.259 103.243,49.228 135.118 L 49.200 164.436 50.142 165.318 C 53.219 168.197,54.908 168.348,57.600 165.986 L 59.400 164.407 59.600 146.664 C 59.760 132.438,59.909 128.790,60.349 128.261 C 61.166 127.278,61.824 127.452,62.772 128.900 C 64.383 131.362,66.356 134.203,67.287 135.400 C 67.800 136.060,68.471 137.095,68.777 137.700 C 69.084 138.305,69.468 138.800,69.629 138.800 C 69.791 138.800,70.486 139.745,71.174 140.900 C 72.637 143.356,74.106 145.528,74.940 146.466 C 75.690 147.309,78.424 151.400,79.151 152.765 C 79.454 153.334,80.094 154.250,80.574 154.800 C 81.436 155.789,83.051 158.101,84.600 160.564 C 88.151 166.210,91.063 167.556,95.456 165.582 C 98.150 164.371,98.125 164.702,97.820 133.686 C 97.514 102.546,97.696 104.791,95.350 103.208 C 93.095 101.686,91.708 101.685,89.459 103.202 C 87.104 104.791,87.059 105.238,87.249 125.012 C 87.392 139.800,87.360 140.690,86.643 141.787 L 85.886 142.946 84.749 141.573 C 81.861 138.087,80.663 136.438,78.953 133.600 C 78.357 132.610,77.481 131.350,77.007 130.800 C 75.995 129.625,74.893 128.027,70.640 121.563 C 70.002 120.593,69.322 119.738,69.128 119.663 C 68.934 119.587,68.345 118.676,67.819 117.637 C 67.293 116.599,66.565 115.503,66.202 115.202 C 65.839 114.900,65.191 113.966,64.763 113.127 C 64.334 112.287,63.841 111.600,63.666 111.600 C 63.491 111.600,62.924 110.835,62.407 109.900 C 61.890 108.965,60.957 107.609,60.333 106.886 C 59.710 106.163,59.200 105.324,59.200 105.020 C 59.200 102.993,53.542 101.647,51.422 103.171 M164.200 102.441 C 163.980 102.661,163.202 103.327,162.470 103.921 C 160.596 105.442,160.573 108.786,162.400 114.400 C 162.793 115.610,163.326 118.458,163.584 120.729 C 163.842 123.000,164.470 126.150,164.981 127.729 C 165.491 129.308,166.124 132.490,166.387 134.800 C 166.651 137.110,167.214 139.990,167.640 141.200 C 168.065 142.410,168.687 145.615,169.021 148.323 C 169.356 151.030,169.970 154.108,170.385 155.162 C 170.801 156.216,171.329 158.430,171.558 160.082 C 172.014 163.358,172.581 165.200,173.135 165.200 C 173.330 165.200,174.169 165.740,175.000 166.400 C 177.105 168.072,179.311 168.060,181.445 166.364 C 182.300 165.684,183.234 164.997,183.519 164.837 C 183.805 164.677,184.383 163.167,184.805 161.482 C 185.226 159.796,185.834 158.008,186.156 157.508 C 186.478 157.009,187.025 155.209,187.372 153.509 C 187.719 151.809,188.367 149.721,188.811 148.868 C 189.256 148.016,189.819 146.167,190.063 144.759 C 190.306 143.352,190.918 141.379,191.422 140.375 C 191.926 139.371,192.548 137.392,192.804 135.978 C 193.454 132.395,194.141 130.954,195.549 130.227 C 197.742 129.092,198.028 129.423,199.019 134.247 C 199.375 135.981,199.999 137.941,200.406 138.602 C 200.812 139.263,201.367 141.063,201.640 142.602 C 201.913 144.141,202.541 146.221,203.037 147.225 C 203.532 148.229,204.143 150.209,204.394 151.625 C 204.645 153.041,205.216 154.914,205.664 155.788 C 206.326 157.077,207.564 161.642,207.593 162.899 C 207.662 165.848,215.114 168.890,217.038 166.754 C 217.457 166.289,218.200 165.755,218.689 165.568 C 219.178 165.381,219.665 164.817,219.772 164.314 C 219.949 163.484,221.052 159.143,221.986 155.600 C 222.190 154.830,222.548 152.580,222.783 150.600 C 223.018 148.620,223.644 145.560,224.175 143.800 C 224.705 142.040,225.349 138.800,225.606 136.600 C 225.863 134.400,226.416 131.620,226.834 130.423 C 227.252 129.225,227.876 126.086,228.220 123.447 C 228.564 120.808,229.197 117.649,229.627 116.428 C 233.210 106.233,229.832 99.644,222.984 103.471 C 221.302 104.412,221.258 104.489,220.825 107.315 C 220.582 108.902,220.108 111.190,219.771 112.400 C 218.572 116.715,218.425 117.449,217.968 121.400 C 217.714 123.600,217.165 126.300,216.749 127.400 C 216.333 128.500,215.724 131.438,215.395 133.928 C 214.776 138.623,214.281 140.158,213.473 139.895 C 212.375 139.537,209.671 134.335,209.211 131.696 C 208.957 130.237,208.323 128.134,207.802 127.022 C 207.282 125.910,206.649 123.840,206.396 122.422 C 206.143 121.004,205.587 119.158,205.159 118.319 C 204.731 117.481,204.097 115.401,203.750 113.698 C 203.402 111.994,202.790 110.060,202.389 109.400 C 201.988 108.740,201.442 107.330,201.174 106.266 C 199.711 100.446,192.018 101.136,190.768 107.200 C 190.518 108.410,189.896 110.300,189.385 111.400 C 188.874 112.500,188.248 114.570,187.995 116.000 C 187.741 117.430,187.207 119.140,186.808 119.800 C 186.409 120.460,185.798 122.394,185.450 124.098 C 185.103 125.801,184.452 127.914,184.003 128.793 C 183.555 129.672,182.933 131.727,182.620 133.359 C 181.936 136.937,181.568 137.579,179.581 138.668 L 178.046 139.508 177.617 138.278 C 177.381 137.601,176.916 134.877,176.582 132.224 C 176.248 129.571,175.619 126.410,175.183 125.200 C 174.748 123.990,174.128 120.852,173.805 118.227 C 173.483 115.601,172.854 112.361,172.406 111.027 C 171.959 109.692,171.404 107.574,171.172 106.321 C 170.595 103.193,166.001 100.637,164.200 102.441 M29.600 214.693 C 28.203 214.950,27.660 215.483,26.666 217.578 L 25.800 219.400 25.800 282.400 L 25.800 345.400 27.028 347.600 C 28.672 350.544,23.342 350.299,86.947 350.353 L 143.294 350.400 144.804 348.891 C 146.930 346.764,146.868 349.000,146.726 279.000 C 146.590 212.604,146.741 216.289,144.109 215.161 C 142.422 214.438,33.412 213.992,29.600 214.693 M170.808 214.963 C 169.386 215.477,168.149 218.023,168.563 219.586 C 168.653 219.924,168.832 220.679,168.962 221.265 C 169.124 221.997,169.777 222.654,171.049 223.365 L 172.901 224.400 240.290 224.400 L 307.680 224.400 309.821 223.100 C 313.166 221.069,313.345 217.109,310.172 215.307 L 308.600 214.413 240.400 214.437 C 186.710 214.456,171.904 214.568,170.808 214.963 M135.432 225.776 C 136.285 226.943,136.285 337.857,135.432 339.024 C 134.655 340.087,40.489 340.480,38.455 339.428 C 36.744 338.544,36.800 340.487,36.800 281.586 L 36.800 226.871 38.044 225.825 L 39.287 224.778 87.076 224.889 C 133.853 224.998,134.877 225.016,135.432 225.776 M170.437 240.106 C 167.655 241.534,168.315 248.134,171.346 249.191 C 172.128 249.464,195.260 249.600,240.691 249.600 L 308.863 249.600 310.632 247.832 C 313.239 245.224,312.781 241.431,309.689 240.022 C 308.249 239.366,171.719 239.448,170.437 240.106 M171.349 264.794 C 168.611 265.900,167.735 271.494,169.953 273.713 C 170.331 274.091,185.951 274.224,239.861 274.306 L 309.283 274.411 310.842 272.853 C 313.178 270.516,313.094 268.462,310.566 266.108 L 308.733 264.400 240.466 264.425 C 202.920 264.439,171.817 264.605,171.349 264.794 M171.231 290.432 C 167.434 292.469,167.608 297.957,171.506 299.125 C 172.704 299.484,189.609 299.600,240.560 299.600 L 308.027 299.600 309.988 298.606 C 313.502 296.825,313.292 292.717,309.586 290.757 L 307.400 289.600 240.000 289.649 C 175.422 289.696,172.543 289.729,171.231 290.432 M171.044 315.728 C 166.335 317.159,168.501 324.760,173.800 325.399 C 179.434 326.079,308.850 325.410,309.248 324.700 C 309.463 324.315,310.163 323.730,310.802 323.399 C 313.108 322.206,312.802 317.699,310.312 316.193 C 308.705 315.222,174.191 314.772,171.044 315.728 M170.550 340.794 C 167.811 341.900,168.347 348.945,171.248 349.957 C 173.019 350.574,307.960 350.588,309.281 349.971 C 312.553 348.441,313.335 344.441,310.847 341.953 L 309.294 340.400 240.347 340.425 C 202.426 340.439,171.018 340.605,170.550 340.794 M29.654 365.629 C 25.853 367.151,25.300 373.520,28.861 374.761 C 31.078 375.534,308.515 375.368,310.013 374.593 C 313.329 372.879,313.251 369.093,309.845 366.420 L 308.290 365.200 169.445 365.225 C 83.108 365.241,30.242 365.394,29.654 365.629 " stroke="none" fill="#080808" fill-rule="evenodd"></path><path id="path1" d="M250.982 9.001 C 250.608 10.288,250.022 11.374,249.571 11.615 C 249.147 11.842,248.800 12.264,248.800 12.552 C 248.800 13.223,247.509 14.399,246.769 14.402 C 246.456 14.404,245.660 14.719,245.000 15.102 C 243.870 15.759,238.153 15.812,147.600 16.000 C 36.016 16.232,48.584 15.622,46.374 20.913 L 45.000 24.200 44.871 35.383 C 44.729 47.725,44.977 49.783,46.687 50.433 C 47.265 50.653,102.443 50.800,184.371 50.800 C 324.487 50.800,324.481 50.800,326.179 52.366 C 326.631 52.783,327.630 53.386,328.400 53.706 C 329.945 54.349,335.600 59.603,335.600 60.395 C 335.600 60.670,336.121 61.488,336.758 62.213 C 337.583 63.153,337.996 64.144,338.195 65.666 C 338.349 66.840,338.773 68.340,339.137 69.000 C 339.749 70.108,339.808 79.310,339.903 189.358 C 340.000 302.132,340.043 308.544,340.703 309.045 C 342.843 310.670,351.365 309.435,353.629 307.171 C 356.083 304.717,355.980 307.511,355.990 242.769 L 356.000 182.937 357.262 181.032 C 357.956 179.984,358.991 178.925,359.562 178.679 C 360.133 178.433,361.109 177.819,361.731 177.316 C 363.392 175.970,367.030 175.988,367.648 177.345 C 367.884 177.864,368.640 178.539,369.328 178.845 C 371.194 179.674,371.118 176.929,371.158 244.200 C 371.197 309.972,371.213 309.375,369.393 310.568 C 368.769 310.976,368.400 311.594,368.400 312.229 C 368.400 313.406,367.355 315.600,366.795 315.600 C 366.583 315.600,365.956 316.320,365.400 317.200 C 364.844 318.080,364.135 318.800,363.824 318.800 C 363.513 318.800,362.883 319.277,362.424 319.860 C 361.374 321.195,359.843 322.000,358.354 322.000 C 357.603 322.000,357.200 322.206,357.200 322.591 C 357.200 324.140,355.334 324.583,348.126 324.740 L 341.200 324.891 341.200 349.436 L 341.200 373.982 342.170 374.617 C 343.178 375.277,344.000 377.071,344.000 378.610 C 344.000 379.273,344.297 379.559,345.164 379.733 C 346.044 379.909,346.392 380.252,346.586 381.137 C 346.778 382.012,347.130 382.366,347.973 382.535 C 348.735 382.687,349.183 383.076,349.346 383.728 C 349.538 384.493,349.936 384.752,351.246 384.961 C 352.371 385.141,353.281 385.631,354.080 386.486 L 355.257 387.746 363.507 387.736 C 368.734 387.730,371.807 387.578,371.893 387.320 C 372.268 386.195,373.193 385.557,375.100 385.106 C 376.526 384.770,377.200 384.410,377.200 383.985 C 377.200 383.142,377.996 382.400,378.901 382.400 C 379.365 382.400,379.798 381.950,380.061 381.198 C 380.313 380.474,380.847 379.903,381.402 379.764 C 382.072 379.596,382.397 379.144,382.591 378.106 C 382.745 377.284,383.397 376.154,384.129 375.440 L 385.400 374.200 385.523 200.400 C 385.652 17.769,385.670 20.397,384.271 19.782 C 383.792 19.572,383.227 19.007,383.016 18.526 C 382.283 16.854,374.000 16.760,374.000 18.424 C 374.000 18.833,373.717 19.401,373.371 19.684 C 370.976 21.650,371.200 14.297,371.200 90.826 C 371.200 162.161,371.213 161.600,369.594 161.600 C 369.091 161.600,368.724 161.965,368.557 162.629 C 367.801 165.641,361.102 164.629,357.935 161.025 L 356.200 159.050 356.097 89.941 C 356.009 31.056,356.077 20.587,356.562 19.181 C 357.751 15.728,361.450 16.000,313.289 16.000 C 278.987 16.000,270.829 15.900,270.189 15.474 C 269.755 15.185,268.635 14.727,267.700 14.458 C 266.765 14.188,266.000 13.801,266.000 13.598 C 266.000 13.394,265.471 12.625,264.825 11.889 C 264.178 11.153,263.437 9.707,263.177 8.675 L 262.705 6.800 257.164 6.800 L 251.622 6.800 250.982 9.001 M22.000 64.683 C 19.204 65.177,16.519 66.219,15.554 67.184 C 13.292 69.446,13.425 64.325,13.192 158.600 C 12.985 242.569,12.950 245.874,12.228 247.800 C 11.410 249.984,10.541 251.200,9.800 251.200 C 9.538 251.200,9.005 251.553,8.615 251.983 C 8.225 252.414,7.027 253.059,5.953 253.416 L 4.000 254.064 4.000 259.617 L 4.000 265.169 6.010 265.766 C 9.410 266.776,11.284 268.657,12.318 272.099 L 13.200 275.037 13.217 321.818 C 13.236 372.827,13.322 374.936,15.480 377.297 C 15.935 377.793,16.586 378.755,16.929 379.432 C 17.648 380.858,22.699 385.600,23.498 385.600 C 23.794 385.600,24.463 386.027,24.985 386.548 C 26.046 387.610,26.743 387.829,31.600 388.627 C 37.820 389.650,331.035 389.456,331.584 388.429 C 332.029 387.599,330.789 384.000,330.058 384.000 C 329.631 384.000,328.400 381.113,328.400 380.113 C 328.400 379.745,327.905 378.729,327.300 377.856 L 326.200 376.268 326.000 223.834 C 325.883 134.969,325.650 71.066,325.440 70.600 C 325.243 70.160,324.723 69.402,324.285 68.915 C 323.847 68.428,323.289 67.634,323.044 67.149 C 322.746 66.557,321.748 65.995,320.000 65.435 L 317.400 64.602 170.200 64.554 C 89.240 64.527,22.550 64.585,22.000 64.683 M311.046 76.154 C 314.041 77.967,313.800 72.842,313.800 134.800 C 313.800 197.282,314.073 192.102,310.709 193.372 C 309.147 193.961,296.897 194.008,168.265 193.908 L 27.529 193.800 26.755 192.800 C 26.328 192.250,25.534 191.302,24.990 190.693 L 24.000 189.586 24.000 134.839 L 24.000 80.092 25.830 77.869 C 27.212 76.190,27.971 75.607,28.930 75.486 C 34.363 74.801,309.888 75.453,311.046 76.154 M144.327 212.800 C 148.778 216.238,148.449 210.329,148.314 284.600 L 148.200 347.000 147.342 348.855 C 145.879 352.019,150.417 351.800,86.400 351.800 C 23.359 351.800,27.994 352.002,25.681 349.159 L 24.000 347.092 24.000 282.533 C 24.000 210.787,23.762 216.475,26.870 213.928 C 29.758 211.561,27.157 211.656,87.216 211.731 L 143.032 211.800 144.327 212.800 M307.766 211.971 C 308.848 212.148,309.928 212.560,310.166 212.885 C 310.405 213.211,311.172 213.773,311.872 214.134 C 312.571 214.496,313.233 215.108,313.342 215.496 C 314.245 218.687,313.848 222.555,312.523 223.485 C 312.125 223.764,311.319 224.428,310.731 224.961 C 309.937 225.680,309.010 225.996,307.131 226.186 C 301.737 226.731,171.471 226.238,170.400 225.668 C 164.233 222.386,165.631 213.686,172.600 211.976 C 174.244 211.573,305.311 211.567,307.766 211.971 M308.487 237.957 C 314.202 239.518,316.015 244.977,312.200 249.139 L 310.862 250.600 240.420 250.703 L 169.978 250.807 169.153 249.903 C 165.933 246.380,165.114 243.686,166.761 242.039 C 167.179 241.621,167.636 240.917,167.776 240.476 C 168.165 239.249,168.954 238.771,171.898 237.977 C 176.111 236.841,304.332 236.822,308.487 237.957 M310.132 263.346 C 313.052 264.566,314.594 268.309,313.638 271.858 C 312.998 274.234,312.452 274.727,309.262 275.806 L 306.323 276.800 240.240 276.800 L 174.156 276.800 171.378 275.873 C 169.074 275.105,168.487 274.724,167.937 273.646 C 167.572 272.930,166.987 272.028,166.637 271.641 C 164.932 269.757,167.905 263.512,170.709 263.086 C 174.064 262.576,308.891 262.827,310.132 263.346 M309.274 287.988 C 312.576 289.370,314.317 292.611,313.759 296.335 C 313.488 298.139,313.128 298.633,310.428 300.900 L 309.118 302.000 240.459 301.993 L 171.800 301.985 170.031 300.787 C 166.389 298.319,165.269 294.861,167.178 291.978 C 168.974 289.265,169.370 288.860,170.840 288.222 C 172.483 287.509,307.584 287.280,309.274 287.988 M309.149 313.338 C 309.394 313.634,310.304 314.196,311.169 314.586 C 314.636 316.149,314.950 321.915,311.740 325.080 L 309.995 326.800 240.698 326.795 C 202.584 326.792,170.979 326.676,170.464 326.538 C 167.841 325.836,164.941 319.376,166.623 317.981 C 166.966 317.696,167.488 316.884,167.784 316.176 C 168.162 315.271,168.742 314.749,169.729 314.423 C 170.503 314.168,171.352 313.698,171.617 313.380 C 172.314 312.540,308.453 312.499,309.149 313.338 M311.312 339.706 C 314.989 342.115,314.710 349.391,310.873 351.132 C 309.515 351.748,304.008 351.800,240.200 351.800 C 165.043 351.800,168.961 351.920,167.998 349.595 C 167.739 348.969,167.183 348.147,166.763 347.767 C 165.719 346.822,165.716 343.884,166.758 342.842 C 167.175 342.425,167.762 341.570,168.063 340.942 C 169.113 338.749,166.029 338.834,240.818 338.920 C 306.387 338.996,310.295 339.039,311.312 339.706 M311.433 365.162 C 313.585 367.031,313.728 367.368,313.745 370.581 C 313.764 374.098,313.387 374.782,310.509 376.457 L 308.200 377.800 169.718 377.903 L 31.235 378.006 28.905 376.822 C 22.685 373.661,22.386 366.850,28.347 364.117 C 29.164 363.742,60.803 363.653,169.633 363.717 L 309.867 363.800 311.433 365.162 " stroke="none" fill="#d7e1ef" fill-rule="evenodd"></path><path id="path2" d="M358.195 90.200 C 358.195 126.720,358.242 141.719,358.300 123.532 C 358.358 105.344,358.358 75.464,358.300 57.132 C 358.242 38.799,358.195 53.680,358.195 90.200 M99.900 76.700 C 138.015 76.756,200.385 76.756,238.500 76.700 C 276.615 76.644,245.430 76.598,169.200 76.598 C 92.970 76.598,61.785 76.644,99.900 76.700 M38.158 87.558 C 36.341 88.669,36.400 87.077,36.400 135.224 C 36.400 181.588,36.383 181.166,38.266 181.942 C 40.431 182.833,300.589 182.382,301.486 181.486 C 302.163 180.808,302.200 178.399,302.200 134.797 L 302.200 88.822 301.289 87.911 L 300.378 87.000 169.889 86.899 C 42.343 86.801,39.372 86.816,38.158 87.558 M299.569 90.236 L 300.800 91.271 300.800 134.662 L 300.800 178.053 299.753 179.427 L 298.705 180.800 168.971 180.800 L 39.238 180.800 38.821 179.300 C 38.201 177.066,38.242 91.584,38.864 90.219 L 39.328 89.200 168.834 89.200 L 298.339 89.200 299.569 90.236 M52.200 100.412 C 50.207 101.311,48.317 103.469,47.976 105.235 C 47.459 107.910,47.509 161.935,48.030 164.365 C 49.100 169.353,55.152 170.952,58.904 167.238 L 60.600 165.559 60.713 148.487 C 60.824 131.563,60.956 129.849,61.992 131.785 C 62.287 132.336,62.876 132.897,63.301 133.032 C 63.725 133.167,64.311 133.845,64.602 134.539 C 64.892 135.232,65.596 136.204,66.165 136.697 C 66.734 137.191,67.200 137.849,67.200 138.160 C 67.200 138.470,67.801 139.443,68.535 140.322 C 69.269 141.201,70.098 142.472,70.378 143.147 C 70.657 143.821,71.201 144.473,71.586 144.595 C 71.971 144.718,72.582 145.489,72.945 146.309 C 73.698 148.008,75.894 151.270,77.389 152.907 C 77.945 153.516,78.400 154.253,78.400 154.545 C 78.400 154.837,78.779 155.419,79.243 155.838 C 79.707 156.257,80.509 157.433,81.025 158.450 C 81.541 159.468,82.236 160.405,82.569 160.533 C 82.902 160.661,83.431 161.379,83.745 162.130 C 84.059 162.881,84.661 163.744,85.084 164.048 C 85.507 164.351,85.967 164.907,86.107 165.283 C 86.247 165.659,87.075 166.416,87.947 166.967 C 88.819 167.517,89.649 168.155,89.790 168.384 C 90.315 169.233,94.256 168.869,95.469 167.859 C 96.091 167.342,96.980 166.719,97.445 166.475 C 99.637 165.323,100.155 161.494,99.827 148.862 C 99.664 142.558,99.407 130.020,99.258 121.000 C 98.959 103.030,99.107 103.961,96.183 101.545 C 93.610 99.420,91.022 99.433,88.532 101.585 C 85.979 103.792,86.041 103.279,85.985 122.800 C 85.940 138.622,85.871 140.454,85.362 139.289 C 85.046 138.568,84.385 137.794,83.891 137.569 C 83.397 137.344,82.667 136.371,82.268 135.407 C 81.870 134.444,81.106 133.368,80.572 133.018 C 80.037 132.668,79.600 132.102,79.600 131.760 C 79.600 131.418,79.081 130.620,78.448 129.986 C 77.814 129.352,77.188 128.405,77.056 127.882 C 76.925 127.359,76.184 126.258,75.409 125.437 C 74.634 124.615,74.000 123.687,74.000 123.375 C 74.000 123.062,73.460 122.325,72.800 121.737 C 72.140 121.149,71.600 120.434,71.600 120.148 C 71.600 119.862,71.084 119.037,70.454 118.314 C 69.823 117.591,68.920 116.235,68.446 115.300 C 67.972 114.365,67.404 113.600,67.183 113.600 C 66.963 113.600,66.573 113.105,66.316 112.500 C 66.059 111.895,65.449 110.950,64.960 110.400 C 64.472 109.850,63.675 108.630,63.190 107.690 C 62.705 106.749,61.988 105.808,61.596 105.598 C 61.205 105.388,60.695 104.673,60.463 104.008 C 60.231 103.344,59.869 102.800,59.659 102.800 C 59.448 102.800,58.522 102.170,57.600 101.400 C 55.861 99.947,53.989 99.605,52.200 100.412 M115.537 100.320 C 113.958 100.986,111.248 103.938,111.011 105.252 C 110.877 105.993,110.819 119.780,110.883 135.888 L 111.000 165.176 113.124 167.203 L 115.249 169.229 129.598 169.114 L 143.946 169.000 145.773 167.093 C 149.090 163.631,148.395 158.917,144.200 156.426 L 141.800 155.000 134.003 154.868 C 124.446 154.707,125.200 155.278,125.200 148.194 C 125.200 141.357,124.365 142.000,133.246 142.000 C 140.439 142.000,141.495 141.789,143.672 139.920 C 144.966 138.809,146.652 134.596,146.087 133.883 C 145.877 133.617,145.485 132.719,145.216 131.886 C 144.947 131.049,144.252 130.067,143.664 129.691 C 143.079 129.317,142.401 128.755,142.158 128.441 C 141.542 127.645,138.318 127.263,131.933 127.229 C 124.561 127.190,125.200 127.771,125.200 121.101 C 125.200 113.883,124.427 114.429,134.662 114.413 L 142.724 114.400 144.400 113.000 C 145.322 112.230,146.217 111.600,146.389 111.600 C 147.817 111.600,148.015 103.836,146.607 103.033 C 146.190 102.795,145.338 102.060,144.715 101.400 L 143.581 100.200 129.891 100.120 C 122.361 100.077,115.902 100.167,115.537 100.320 M163.974 100.390 C 161.867 101.624,159.931 103.945,159.724 105.487 C 159.357 108.225,160.328 116.405,161.233 118.200 C 161.780 119.285,162.228 121.532,162.624 125.182 C 163.004 128.683,163.481 131.128,163.991 132.182 C 164.492 133.219,164.982 135.686,165.355 139.053 C 165.750 142.630,166.198 144.819,166.757 145.915 C 167.318 147.016,167.713 148.959,168.006 152.059 C 168.498 157.280,168.660 158.087,169.604 160.000 C 169.984 160.770,170.422 162.268,170.576 163.329 C 170.739 164.442,171.181 165.541,171.622 165.929 C 172.043 166.298,173.014 167.185,173.780 167.900 C 175.941 169.917,180.562 169.864,182.627 167.800 C 183.397 167.030,184.210 166.400,184.434 166.400 C 184.923 166.400,186.000 163.946,186.000 162.831 C 186.000 162.393,186.434 161.396,186.964 160.614 C 187.538 159.769,188.123 158.040,188.409 156.348 C 188.673 154.783,189.317 152.670,189.840 151.651 C 190.363 150.633,190.959 148.586,191.165 147.102 C 191.391 145.472,191.859 143.997,192.346 143.377 C 193.095 142.426,193.595 140.592,194.196 136.596 C 194.382 135.362,194.717 134.833,195.651 134.296 C 197.423 133.280,197.461 133.318,197.961 136.681 C 198.229 138.482,198.813 140.436,199.365 141.381 C 199.904 142.303,200.507 144.292,200.767 146.000 C 201.034 147.763,201.556 149.458,202.032 150.112 C 202.485 150.734,203.087 152.618,203.398 154.387 C 203.704 156.127,204.414 158.415,204.977 159.472 C 205.540 160.529,206.000 161.788,206.000 162.271 C 206.000 166.678,213.556 171.115,217.168 168.828 C 218.719 167.847,221.200 165.383,221.200 164.825 C 221.200 164.478,221.656 163.338,222.213 162.292 C 223.008 160.797,223.348 159.254,223.797 155.095 C 224.182 151.526,224.630 149.278,225.172 148.200 C 225.724 147.103,226.116 145.096,226.419 141.816 C 226.728 138.463,227.146 136.354,227.814 134.767 C 228.460 133.233,228.911 131.031,229.210 127.951 C 229.493 125.045,229.991 122.533,230.589 121.000 C 231.231 119.353,231.676 116.968,232.005 113.400 C 232.270 110.540,232.554 108.085,232.639 107.945 C 233.962 105.740,229.925 100.474,226.626 100.102 C 224.900 99.907,222.400 100.805,222.400 101.619 C 222.400 101.838,221.962 102.217,221.427 102.460 C 220.372 102.941,219.804 104.103,219.404 106.600 C 219.264 107.480,218.802 108.927,218.380 109.815 C 217.896 110.830,217.391 113.410,217.020 116.757 C 216.694 119.687,216.246 122.303,216.024 122.571 C 215.337 123.399,214.467 127.622,214.184 131.503 C 213.920 135.139,213.494 136.357,213.016 134.850 C 212.883 134.432,212.318 133.596,211.760 132.994 C 211.007 132.182,210.597 131.059,210.174 128.650 C 209.859 126.862,209.256 124.931,208.833 124.359 C 208.393 123.763,207.802 121.805,207.454 119.787 C 207.085 117.649,206.520 115.818,206.022 115.144 C 205.522 114.468,205.023 112.843,204.748 110.996 C 204.460 109.055,203.956 107.458,203.353 106.569 C 202.835 105.805,202.300 104.741,202.166 104.206 C 201.240 100.516,195.280 98.908,192.473 101.590 C 191.777 102.256,191.031 102.800,190.815 102.800 C 190.599 102.800,190.123 103.830,189.757 105.090 C 189.390 106.349,188.761 107.834,188.357 108.390 C 187.954 108.945,187.411 110.750,187.151 112.400 C 186.891 114.050,186.264 116.122,185.758 117.003 C 185.252 117.885,184.630 119.943,184.376 121.577 C 184.123 123.210,183.586 125.009,183.182 125.573 C 182.400 126.669,181.834 128.625,181.412 131.700 C 181.174 133.433,181.056 133.599,180.075 133.594 C 178.290 133.584,178.129 133.208,177.493 127.564 C 177.076 123.857,176.621 121.617,176.063 120.523 C 175.556 119.531,175.147 117.713,174.989 115.759 C 174.610 111.051,174.026 108.019,173.193 106.425 C 172.783 105.641,172.238 104.421,171.981 103.713 C 171.724 103.006,171.173 102.318,170.757 102.186 C 170.341 102.054,170.000 101.783,170.000 101.583 C 170.000 100.426,165.452 99.526,163.974 100.390 M261.800 100.237 C 261.360 100.344,260.628 100.509,260.174 100.605 C 259.719 100.700,258.953 101.120,258.471 101.538 C 257.989 101.957,256.894 102.411,256.037 102.548 C 254.638 102.771,252.100 104.412,250.400 106.193 C 250.070 106.538,249.235 107.401,248.544 108.110 C 247.853 108.820,247.065 110.120,246.794 111.000 C 246.523 111.880,245.919 113.020,245.451 113.532 C 244.676 114.382,244.600 114.921,244.600 119.600 C 244.600 124.279,244.676 124.818,245.451 125.668 C 245.919 126.180,246.526 127.320,246.801 128.200 C 247.276 129.725,251.080 134.000,251.961 134.000 C 252.169 134.000,252.882 134.457,253.546 135.016 C 254.210 135.574,255.735 136.287,256.935 136.600 C 258.136 136.913,259.760 137.604,260.545 138.137 C 261.329 138.669,262.827 139.233,263.873 139.390 C 264.937 139.550,266.262 140.086,266.883 140.608 C 267.493 141.122,268.953 141.741,270.128 141.985 C 271.635 142.298,272.696 142.836,273.733 143.814 C 274.541 144.576,275.450 145.200,275.754 145.200 C 276.439 145.200,276.787 146.430,276.795 148.871 C 276.800 150.657,276.100 152.000,275.163 152.000 C 274.954 152.000,274.587 152.429,274.348 152.953 C 273.127 155.635,261.424 155.387,257.776 152.603 C 256.766 151.831,255.695 151.200,255.397 151.200 C 255.098 151.200,254.484 150.680,254.032 150.044 C 253.579 149.409,252.726 148.768,252.136 148.620 C 251.546 148.472,250.611 147.995,250.058 147.560 C 248.883 146.636,247.503 146.805,245.346 148.138 C 242.005 150.203,241.833 150.462,241.671 153.663 L 241.522 156.613 243.410 158.907 C 244.448 160.168,245.525 161.200,245.803 161.200 C 246.081 161.200,246.606 161.654,246.969 162.209 C 247.333 162.765,248.344 163.504,249.215 163.853 C 250.087 164.202,250.800 164.609,250.800 164.757 C 250.800 165.258,252.986 166.293,255.080 166.783 C 256.224 167.051,257.363 167.515,257.611 167.813 C 259.143 169.659,273.573 169.750,276.235 167.931 C 277.096 167.343,278.557 166.663,279.483 166.420 C 280.409 166.177,281.282 165.791,281.423 165.563 C 281.564 165.334,282.414 164.616,283.311 163.966 C 285.614 162.297,288.673 158.356,289.209 156.367 C 289.458 155.441,290.053 154.155,290.531 153.508 C 291.928 151.619,291.798 145.726,290.299 143.003 C 289.695 141.905,289.200 140.676,289.200 140.272 C 289.200 139.869,288.705 139.042,288.100 138.436 C 287.495 137.829,286.745 136.853,286.432 136.267 C 286.120 135.680,285.721 135.200,285.546 135.200 C 285.370 135.200,284.597 134.570,283.827 133.800 C 283.057 133.030,282.155 132.400,281.823 132.400 C 281.490 132.400,280.938 131.972,280.595 131.448 C 280.207 130.857,279.256 130.306,278.085 129.995 C 277.048 129.720,275.570 129.076,274.800 128.564 C 274.030 128.052,272.410 127.428,271.200 127.178 C 269.990 126.928,268.370 126.298,267.600 125.778 C 266.830 125.258,265.292 124.638,264.183 124.401 C 258.843 123.258,256.986 117.579,261.234 115.382 C 263.480 114.221,272.671 114.684,274.282 116.039 C 274.948 116.600,276.103 117.309,276.847 117.615 C 277.591 117.921,278.810 118.582,279.556 119.085 C 284.138 122.176,290.012 117.240,289.034 111.122 C 288.735 109.252,285.802 106.099,283.504 105.177 C 282.787 104.889,281.711 104.254,281.114 103.764 C 280.517 103.275,279.257 102.747,278.314 102.590 C 277.371 102.433,275.810 101.844,274.844 101.281 C 273.115 100.274,264.495 99.584,261.800 100.237 M141.795 101.998 C 146.950 103.958,147.803 109.051,143.344 111.240 C 141.547 112.123,140.797 112.210,133.400 112.397 C 122.440 112.675,122.800 112.383,122.800 121.000 C 122.800 129.466,122.961 129.600,133.157 129.600 C 142.049 129.600,144.067 130.528,144.067 134.616 C 144.067 139.108,142.302 140.000,133.409 140.000 C 122.786 140.000,122.800 139.989,122.800 148.493 L 122.800 154.862 123.919 155.981 L 125.039 157.100 133.837 157.264 C 142.235 157.421,142.694 157.470,143.923 158.346 C 147.034 160.561,147.100 163.607,144.092 166.200 L 142.236 167.800 131.218 167.932 C 117.012 168.101,116.574 168.045,114.233 165.769 L 112.400 163.988 112.400 134.748 L 112.400 105.508 113.900 104.109 C 116.530 101.656,116.672 101.633,129.274 101.616 C 135.961 101.607,141.185 101.766,141.795 101.998 M269.600 101.994 C 270.370 102.200,272.765 102.807,274.922 103.342 C 277.080 103.878,279.150 104.585,279.522 104.913 C 279.895 105.241,281.100 105.973,282.200 106.541 C 287.898 109.481,289.392 114.015,285.477 116.488 C 282.760 118.204,280.189 117.807,276.000 115.025 C 274.322 113.911,267.603 112.248,265.849 112.513 C 263.778 112.826,259.883 114.000,259.294 114.488 C 255.721 117.453,257.062 124.020,261.480 125.196 C 262.536 125.477,264.135 126.123,265.032 126.631 C 265.930 127.139,267.548 127.777,268.628 128.049 C 269.707 128.321,271.556 129.051,272.736 129.671 C 273.916 130.292,275.167 130.800,275.517 130.800 C 276.344 130.800,281.486 133.851,282.888 135.173 C 284.896 137.067,285.209 137.394,286.397 138.841 C 289.659 142.816,289.864 153.446,286.759 157.620 C 283.942 161.406,279.705 164.874,277.000 165.606 C 275.900 165.904,274.206 166.495,273.236 166.921 C 271.186 167.819,264.254 167.995,262.200 167.201 C 261.540 166.946,259.402 166.308,257.448 165.784 C 255.494 165.259,253.604 164.574,253.248 164.262 C 252.892 163.949,251.790 163.288,250.800 162.792 C 248.817 161.800,248.351 161.422,245.342 158.367 C 243.907 156.909,243.215 155.849,243.055 154.864 C 242.268 150.012,249.289 147.535,253.041 151.341 C 255.003 153.332,257.200 154.771,258.968 155.223 C 259.866 155.453,261.670 155.991,262.978 156.420 C 265.935 157.390,268.911 157.404,271.000 156.458 C 271.880 156.059,273.069 155.616,273.643 155.473 C 274.216 155.330,275.420 154.417,276.318 153.443 C 280.309 149.113,278.286 142.972,272.200 140.940 C 271.100 140.573,269.750 139.947,269.200 139.550 C 268.650 139.153,267.300 138.631,266.200 138.391 C 265.100 138.151,263.480 137.538,262.600 137.028 C 261.720 136.518,259.974 135.806,258.720 135.445 C 257.467 135.085,256.334 134.617,256.204 134.406 C 256.073 134.195,255.141 133.657,254.131 133.211 C 250.150 131.450,246.000 124.503,246.000 119.600 C 246.000 117.156,248.496 110.605,249.941 109.255 C 250.634 108.608,251.200 107.885,251.200 107.648 C 251.200 107.410,251.875 106.852,252.700 106.406 C 253.525 105.961,254.650 105.239,255.200 104.802 C 255.750 104.366,257.640 103.628,259.400 103.164 C 261.160 102.699,263.140 102.176,263.800 102.001 C 265.479 101.555,267.948 101.552,269.600 101.994 M57.373 103.447 C 58.378 104.009,59.200 104.717,59.200 105.020 C 59.200 105.324,59.710 106.163,60.333 106.886 C 60.957 107.609,61.890 108.965,62.407 109.900 C 62.924 110.835,63.491 111.600,63.666 111.600 C 63.841 111.600,64.334 112.287,64.763 113.127 C 65.191 113.966,65.839 114.900,66.202 115.202 C 66.565 115.503,67.293 116.599,67.819 117.637 C 68.345 118.676,68.934 119.587,69.128 119.663 C 69.322 119.738,70.002 120.593,70.640 121.563 C 74.893 128.027,75.995 129.625,77.007 130.800 C 77.481 131.350,78.357 132.610,78.953 133.600 C 80.663 136.438,81.861 138.087,84.749 141.573 L 85.886 142.946 86.643 141.787 C 87.360 140.690,87.392 139.800,87.249 125.012 C 87.059 105.238,87.104 104.791,89.459 103.202 C 91.708 101.685,93.095 101.686,95.350 103.208 C 97.696 104.791,97.514 102.546,97.820 133.686 C 98.125 164.702,98.150 164.371,95.456 165.582 C 91.063 167.556,88.151 166.210,84.600 160.564 C 83.051 158.101,81.436 155.789,80.574 154.800 C 80.094 154.250,79.454 153.334,79.151 152.765 C 78.424 151.400,75.690 147.309,74.940 146.466 C 74.106 145.528,72.637 143.356,71.174 140.900 C 70.486 139.745,69.791 138.800,69.629 138.800 C 69.468 138.800,69.084 138.305,68.777 137.700 C 68.471 137.095,67.800 136.060,67.287 135.400 C 66.356 134.203,64.383 131.362,62.772 128.900 C 61.824 127.452,61.166 127.278,60.349 128.261 C 59.909 128.790,59.760 132.438,59.600 146.664 L 59.400 164.407 57.600 165.986 C 54.908 168.348,53.219 168.197,50.142 165.318 L 49.200 164.436 49.228 135.118 C 49.259 103.243,49.152 104.802,51.422 103.171 C 53.288 101.830,54.587 101.890,57.373 103.447 M168.926 103.021 C 170.637 103.977,170.778 104.185,171.172 106.321 C 171.404 107.574,171.959 109.692,172.406 111.027 C 172.854 112.361,173.483 115.601,173.805 118.227 C 174.128 120.852,174.748 123.990,175.183 125.200 C 175.619 126.410,176.248 129.571,176.582 132.224 C 176.916 134.877,177.381 137.601,177.617 138.278 L 178.046 139.508 179.581 138.668 C 181.568 137.579,181.936 136.937,182.620 133.359 C 182.933 131.727,183.555 129.672,184.003 128.793 C 184.452 127.914,185.103 125.801,185.450 124.098 C 185.798 122.394,186.409 120.460,186.808 119.800 C 187.207 119.140,187.741 117.430,187.995 116.000 C 188.248 114.570,188.874 112.500,189.385 111.400 C 189.896 110.300,190.518 108.410,190.768 107.200 C 191.316 104.542,191.415 104.387,193.251 103.325 C 196.779 101.283,200.245 102.569,201.174 106.266 C 201.442 107.330,201.988 108.740,202.389 109.400 C 202.790 110.060,203.402 111.994,203.750 113.698 C 204.097 115.401,204.731 117.481,205.159 118.319 C 205.587 119.158,206.143 121.004,206.396 122.422 C 206.649 123.840,207.282 125.910,207.802 127.022 C 208.323 128.134,208.957 130.237,209.211 131.696 C 209.671 134.335,212.375 139.537,213.473 139.895 C 214.281 140.158,214.776 138.623,215.395 133.928 C 215.724 131.438,216.333 128.500,216.749 127.400 C 217.165 126.300,217.714 123.600,217.968 121.400 C 218.425 117.449,218.572 116.715,219.771 112.400 C 220.108 111.190,220.582 108.902,220.825 107.315 C 221.258 104.489,221.302 104.412,222.984 103.471 C 229.832 99.644,233.210 106.233,229.627 116.428 C 229.197 117.649,228.564 120.808,228.220 123.447 C 227.876 126.086,227.252 129.225,226.834 130.423 C 226.416 131.620,225.863 134.400,225.606 136.600 C 225.349 138.800,224.705 142.040,224.175 143.800 C 223.644 145.560,223.018 148.620,222.783 150.600 C 222.548 152.580,222.190 154.830,221.986 155.600 C 221.052 159.143,219.949 163.484,219.772 164.314 C 219.665 164.817,219.178 165.381,218.689 165.568 C 218.200 165.755,217.457 166.289,217.038 166.754 C 215.114 168.890,207.662 165.848,207.593 162.899 C 207.564 161.642,206.326 157.077,205.664 155.788 C 205.216 154.914,204.645 153.041,204.394 151.625 C 204.143 150.209,203.532 148.229,203.037 147.225 C 202.541 146.221,201.913 144.141,201.640 142.602 C 201.367 141.063,200.812 139.263,200.406 138.602 C 199.999 137.941,199.375 135.981,199.019 134.247 C 198.028 129.423,197.742 129.092,195.549 130.227 C 194.141 130.954,193.454 132.395,192.804 135.978 C 192.548 137.392,191.926 139.371,191.422 140.375 C 190.918 141.379,190.306 143.352,190.063 144.759 C 189.819 146.167,189.256 148.016,188.811 148.868 C 188.367 149.721,187.719 151.809,187.372 153.509 C 187.025 155.209,186.478 157.009,186.156 157.508 C 185.834 158.008,185.226 159.796,184.805 161.482 C 184.383 163.167,183.805 164.677,183.519 164.837 C 183.234 164.997,182.300 165.684,181.445 166.364 C 179.311 168.060,177.105 168.072,175.000 166.400 C 174.169 165.740,173.330 165.200,173.135 165.200 C 172.581 165.200,172.014 163.358,171.558 160.082 C 171.329 158.430,170.801 156.216,170.385 155.162 C 169.970 154.108,169.356 151.030,169.021 148.323 C 168.687 145.615,168.065 142.410,167.640 141.200 C 167.214 139.990,166.651 137.110,166.387 134.800 C 166.124 132.490,165.491 129.308,164.981 127.729 C 164.470 126.150,163.842 123.000,163.584 120.729 C 163.326 118.458,162.793 115.610,162.400 114.400 C 160.573 108.786,160.596 105.442,162.470 103.921 C 163.202 103.327,163.980 102.661,164.200 102.441 C 164.921 101.718,167.065 101.981,168.926 103.021 M358.195 242.800 C 358.195 274.590,358.242 287.595,358.300 271.700 C 358.358 255.805,358.358 229.795,358.300 213.900 C 358.242 198.005,358.195 211.010,358.195 242.800 M58.500 214.300 C 73.845 214.358,98.955 214.358,114.300 214.300 C 129.645 214.242,117.090 214.194,86.400 214.194 C 55.710 214.194,43.155 214.242,58.500 214.300 M206.300 214.300 C 224.835 214.357,255.165 214.357,273.700 214.300 C 292.235 214.242,277.070 214.195,240.000 214.195 C 202.930 214.195,187.765 214.242,206.300 214.300 M26.021 218.161 C 25.738 218.689,25.604 219.364,25.722 219.661 C 25.852 219.988,25.949 219.877,25.968 219.380 C 25.986 218.929,26.213 218.347,26.473 218.087 C 26.734 217.826,26.854 217.521,26.741 217.407 C 26.627 217.294,26.303 217.633,26.021 218.161 M146.493 219.600 C 146.493 220.370,146.575 220.685,146.676 220.300 C 146.776 219.915,146.776 219.285,146.676 218.900 C 146.575 218.515,146.493 218.830,146.493 219.600 M206.668 224.700 C 224.966 224.758,255.026 224.758,273.468 224.700 C 291.911 224.642,276.940 224.595,240.200 224.595 C 203.460 224.595,188.371 224.642,206.668 224.700 M38.044 225.825 L 36.800 226.871 36.800 281.586 C 36.800 340.487,36.744 338.544,38.455 339.428 C 40.489 340.480,134.655 340.087,135.432 339.024 C 136.285 337.857,136.285 226.943,135.432 225.776 C 134.877 225.016,133.853 224.998,87.076 224.889 L 39.287 224.778 38.044 225.825 M133.900 226.652 L 134.800 226.893 134.800 282.036 L 134.800 337.179 133.620 337.790 C 132.582 338.327,126.831 338.400,85.867 338.400 L 39.293 338.400 39.052 337.500 C 38.720 336.262,38.735 226.999,39.067 226.667 C 39.399 226.335,132.662 226.320,133.900 226.652 M205.868 239.500 C 224.386 239.557,254.806 239.557,273.468 239.500 C 292.131 239.442,276.980 239.395,239.800 239.395 C 202.620 239.395,187.351 239.442,205.868 239.500 M5.722 251.429 L 4.600 252.458 5.900 251.554 C 6.615 251.057,7.200 250.593,7.200 250.525 C 7.200 250.209,6.758 250.480,5.722 251.429 M207.932 274.700 C 226.044 274.758,255.564 274.758,273.532 274.700 C 291.499 274.642,276.680 274.595,240.600 274.595 C 204.520 274.595,189.819 274.642,207.932 274.700 M206.300 289.500 C 224.835 289.557,255.165 289.557,273.700 289.500 C 292.235 289.442,277.070 289.395,240.000 289.395 C 202.930 289.395,187.765 289.442,206.300 289.500 M206.300 299.900 C 224.835 299.957,255.165 299.957,273.700 299.900 C 292.235 299.842,277.070 299.795,240.000 299.795 C 202.930 299.795,187.765 299.842,206.300 299.900 M342.711 311.893 C 343.651 311.978,345.091 311.977,345.911 311.891 C 346.730 311.805,345.960 311.736,344.200 311.737 C 342.440 311.739,341.770 311.809,342.711 311.893 M206.100 340.300 C 224.745 340.357,255.255 340.357,273.900 340.300 C 292.545 340.242,277.290 340.195,240.000 340.195 C 202.710 340.195,187.455 340.242,206.100 340.300 M168.514 345.400 C 168.517 346.500,168.595 346.903,168.687 346.295 C 168.779 345.686,168.777 344.786,168.682 344.295 C 168.587 343.803,168.511 344.300,168.514 345.400 M146.501 345.400 C 146.505 346.280,146.587 346.593,146.683 346.095 C 146.779 345.598,146.775 344.878,146.675 344.495 C 146.575 344.113,146.496 344.520,146.501 345.400 M100.068 375.500 C 138.055 375.556,200.335 375.556,238.468 375.500 C 276.600 375.444,245.520 375.398,169.400 375.398 C 93.280 375.398,62.080 375.444,100.068 375.500 M30.176 390.578 C 30.604 390.920,31.234 391.186,31.576 391.168 C 32.115 391.141,32.118 391.107,31.600 390.914 C 31.270 390.792,30.640 390.526,30.200 390.324 C 29.413 389.962,29.412 389.966,30.176 390.578 " stroke="none" fill="#9f8e5c" fill-rule="evenodd"></path><path id="path3" d="M325.701 73.400 C 325.705 74.280,325.787 74.593,325.883 74.095 C 325.979 73.598,325.975 72.878,325.875 72.495 C 325.775 72.113,325.696 72.520,325.701 73.400 M12.996 158.800 C 12.996 205.990,13.043 225.295,13.100 201.700 C 13.157 178.105,13.157 139.495,13.100 115.900 C 13.043 92.305,12.996 111.610,12.996 158.800 M38.864 90.219 C 38.242 91.584,38.201 177.066,38.821 179.300 L 39.238 180.800 168.971 180.800 L 298.705 180.800 299.753 179.427 L 300.800 178.053 300.800 134.662 L 300.800 91.271 299.569 90.236 L 298.339 89.200 168.834 89.200 L 39.328 89.200 38.864 90.219 M57.600 101.400 C 58.522 102.170,59.448 102.800,59.659 102.800 C 59.869 102.800,60.231 103.344,60.463 104.008 C 60.695 104.673,61.205 105.388,61.596 105.598 C 61.988 105.808,62.705 106.749,63.190 107.690 C 63.675 108.630,64.472 109.850,64.960 110.400 C 65.449 110.950,66.059 111.895,66.316 112.500 C 66.573 113.105,66.963 113.600,67.183 113.600 C 67.404 113.600,67.972 114.365,68.446 115.300 C 68.920 116.235,69.823 117.591,70.454 118.314 C 71.084 119.037,71.600 119.862,71.600 120.148 C 71.600 120.434,72.140 121.149,72.800 121.737 C 73.460 122.325,74.000 123.062,74.000 123.375 C 74.000 123.687,74.634 124.615,75.409 125.437 C 76.184 126.258,76.925 127.359,77.056 127.882 C 77.188 128.405,77.814 129.352,78.448 129.986 C 79.081 130.620,79.600 131.418,79.600 131.760 C 79.600 132.102,80.037 132.668,80.572 133.018 C 81.106 133.368,81.870 134.444,82.268 135.407 C 82.667 136.371,83.397 137.344,83.891 137.569 C 84.385 137.794,85.046 138.568,85.362 139.289 C 85.871 140.454,85.940 138.622,85.985 122.800 C 86.041 103.279,85.979 103.792,88.532 101.585 C 91.022 99.433,93.610 99.420,96.183 101.545 C 99.107 103.961,98.959 103.030,99.258 121.000 C 99.407 130.020,99.664 142.558,99.827 148.862 C 100.155 161.494,99.637 165.323,97.445 166.475 C 96.980 166.719,96.091 167.342,95.469 167.859 C 94.256 168.869,90.315 169.233,89.790 168.384 C 89.649 168.155,88.819 167.517,87.947 166.967 C 87.075 166.416,86.247 165.659,86.107 165.283 C 85.967 164.907,85.507 164.351,85.084 164.048 C 84.661 163.744,84.059 162.881,83.745 162.130 C 83.431 161.379,82.902 160.661,82.569 160.533 C 82.236 160.405,81.541 159.468,81.025 158.450 C 80.509 157.433,79.707 156.257,79.243 155.838 C 78.779 155.419,78.400 154.837,78.400 154.545 C 78.400 154.253,77.945 153.516,77.389 152.907 C 75.894 151.270,73.698 148.008,72.945 146.309 C 72.582 145.489,71.971 144.718,71.586 144.595 C 71.201 144.473,70.657 143.821,70.378 143.147 C 70.098 142.472,69.269 141.201,68.535 140.322 C 67.801 139.443,67.200 138.470,67.200 138.160 C 67.200 137.849,66.734 137.191,66.165 136.697 C 65.596 136.204,64.892 135.232,64.602 134.539 C 64.311 133.845,63.725 133.167,63.301 133.032 C 62.876 132.897,62.287 132.336,61.992 131.785 C 60.956 129.849,60.824 131.563,60.713 148.487 L 60.600 165.559 58.904 167.238 C 55.152 170.952,49.100 169.353,48.030 164.365 C 47.509 161.935,47.459 107.910,47.976 105.235 C 48.837 100.772,54.262 98.611,57.600 101.400 M144.715 101.400 C 145.338 102.060,146.190 102.795,146.607 103.033 C 148.015 103.836,147.817 111.600,146.389 111.600 C 146.217 111.600,145.322 112.230,144.400 113.000 L 142.724 114.400 134.662 114.413 C 124.427 114.429,125.200 113.883,125.200 121.101 C 125.200 127.771,124.561 127.190,131.933 127.229 C 138.318 127.263,141.542 127.645,142.158 128.441 C 142.401 128.755,143.079 129.317,143.664 129.691 C 144.252 130.067,144.947 131.049,145.216 131.886 C 145.485 132.719,145.877 133.617,146.087 133.883 C 146.652 134.596,144.966 138.809,143.672 139.920 C 141.495 141.789,140.439 142.000,133.246 142.000 C 124.365 142.000,125.200 141.357,125.200 148.194 C 125.200 155.278,124.446 154.707,134.003 154.868 L 141.800 155.000 144.200 156.426 C 148.395 158.917,149.090 163.631,145.773 167.093 L 143.946 169.000 129.598 169.114 L 115.249 169.229 113.124 167.203 L 111.000 165.176 110.883 135.888 C 110.751 102.603,110.630 104.474,113.064 102.252 C 115.605 99.933,114.815 100.033,129.891 100.120 L 143.581 100.200 144.715 101.400 M168.820 100.610 C 169.469 100.946,170.000 101.384,170.000 101.583 C 170.000 101.783,170.341 102.054,170.757 102.186 C 171.173 102.318,171.724 103.006,171.981 103.713 C 172.238 104.421,172.783 105.641,173.193 106.425 C 174.026 108.019,174.610 111.051,174.989 115.759 C 175.147 117.713,175.556 119.531,176.063 120.523 C 176.621 121.617,177.076 123.857,177.493 127.564 C 178.129 133.208,178.290 133.584,180.075 133.594 C 181.056 133.599,181.174 133.433,181.412 131.700 C 181.834 128.625,182.400 126.669,183.182 125.573 C 183.586 125.009,184.123 123.210,184.376 121.577 C 184.630 119.943,185.252 117.885,185.758 117.003 C 186.264 116.122,186.891 114.050,187.151 112.400 C 187.411 110.750,187.954 108.945,188.357 108.390 C 188.761 107.834,189.390 106.349,189.757 105.090 C 190.123 103.830,190.599 102.800,190.815 102.800 C 191.031 102.800,191.777 102.256,192.473 101.590 C 195.280 98.908,201.240 100.516,202.166 104.206 C 202.300 104.741,202.835 105.805,203.353 106.569 C 203.956 107.458,204.460 109.055,204.748 110.996 C 205.023 112.843,205.522 114.468,206.022 115.144 C 206.520 115.818,207.085 117.649,207.454 119.787 C 207.802 121.805,208.393 123.763,208.833 124.359 C 209.256 124.931,209.859 126.862,210.174 128.650 C 210.597 131.059,211.007 132.182,211.760 132.994 C 212.318 133.596,212.883 134.432,213.016 134.850 C 213.494 136.357,213.920 135.139,214.184 131.503 C 214.467 127.622,215.337 123.399,216.024 122.571 C 216.246 122.303,216.694 119.687,217.020 116.757 C 217.391 113.410,217.896 110.830,218.380 109.815 C 218.802 108.927,219.264 107.480,219.404 106.600 C 219.804 104.103,220.372 102.941,221.427 102.460 C 221.962 102.217,222.400 101.838,222.400 101.619 C 222.400 100.805,224.900 99.907,226.626 100.102 C 229.925 100.474,233.962 105.740,232.639 107.945 C 232.554 108.085,232.270 110.540,232.005 113.400 C 231.676 116.968,231.231 119.353,230.589 121.000 C 229.991 122.533,229.493 125.045,229.210 127.951 C 228.911 131.031,228.460 133.233,227.814 134.767 C 227.146 136.354,226.728 138.463,226.419 141.816 C 226.116 145.096,225.724 147.103,225.172 148.200 C 224.630 149.278,224.182 151.526,223.797 155.095 C 223.348 159.254,223.008 160.797,222.213 162.292 C 221.656 163.338,221.200 164.478,221.200 164.825 C 221.200 165.383,218.719 167.847,217.168 168.828 C 213.556 171.115,206.000 166.678,206.000 162.271 C 206.000 161.788,205.540 160.529,204.977 159.472 C 204.414 158.415,203.704 156.127,203.398 154.387 C 203.087 152.618,202.485 150.734,202.032 150.112 C 201.556 149.458,201.034 147.763,200.767 146.000 C 200.507 144.292,199.904 142.303,199.365 141.381 C 198.813 140.436,198.229 138.482,197.961 136.681 C 197.461 133.318,197.423 133.280,195.651 134.296 C 194.717 134.833,194.382 135.362,194.196 136.596 C 193.595 140.592,193.095 142.426,192.346 143.377 C 191.859 143.997,191.391 145.472,191.165 147.102 C 190.959 148.586,190.363 150.633,189.840 151.651 C 189.317 152.670,188.673 154.783,188.409 156.348 C 188.123 158.040,187.538 159.769,186.964 160.614 C 186.434 161.396,186.000 162.393,186.000 162.831 C 186.000 163.946,184.923 166.400,184.434 166.400 C 184.210 166.400,183.397 167.030,182.627 167.800 C 180.562 169.864,175.941 169.917,173.780 167.900 C 173.014 167.185,172.043 166.298,171.622 165.929 C 171.181 165.541,170.739 164.442,170.576 163.329 C 170.422 162.268,169.984 160.770,169.604 160.000 C 168.660 158.087,168.498 157.280,168.006 152.059 C 167.713 148.959,167.318 147.016,166.757 145.915 C 166.198 144.819,165.750 142.630,165.355 139.053 C 164.982 135.686,164.492 133.219,163.991 132.182 C 163.481 131.128,163.004 128.683,162.624 125.182 C 162.228 121.532,161.780 119.285,161.233 118.200 C 158.966 113.705,159.204 104.545,161.645 102.314 C 164.415 99.781,166.335 99.326,168.820 100.610 M274.844 101.281 C 275.810 101.844,277.371 102.433,278.314 102.590 C 279.257 102.747,280.517 103.275,281.114 103.764 C 281.711 104.254,282.787 104.889,283.504 105.177 C 285.802 106.099,288.735 109.252,289.034 111.122 C 290.012 117.240,284.138 122.176,279.556 119.085 C 278.810 118.582,277.591 117.921,276.847 117.615 C 276.103 117.309,274.948 116.600,274.282 116.039 C 272.671 114.684,263.480 114.221,261.234 115.382 C 256.986 117.579,258.843 123.258,264.183 124.401 C 265.292 124.638,266.830 125.258,267.600 125.778 C 268.370 126.298,269.990 126.928,271.200 127.178 C 272.410 127.428,274.030 128.052,274.800 128.564 C 275.570 129.076,277.048 129.720,278.085 129.995 C 279.256 130.306,280.207 130.857,280.595 131.448 C 280.938 131.972,281.490 132.400,281.823 132.400 C 282.155 132.400,283.057 133.030,283.827 133.800 C 284.597 134.570,285.370 135.200,285.546 135.200 C 285.721 135.200,286.120 135.680,286.432 136.267 C 286.745 136.853,287.495 137.829,288.100 138.436 C 288.705 139.042,289.200 139.869,289.200 140.272 C 289.200 140.676,289.695 141.905,290.299 143.003 C 291.798 145.726,291.928 151.619,290.531 153.508 C 290.053 154.155,289.458 155.441,289.209 156.367 C 288.673 158.356,285.614 162.297,283.311 163.966 C 282.414 164.616,281.564 165.334,281.423 165.563 C 281.282 165.791,280.409 166.177,279.483 166.420 C 278.557 166.663,277.096 167.343,276.235 167.931 C 273.573 169.750,259.143 169.659,257.611 167.813 C 257.363 167.515,256.224 167.051,255.080 166.783 C 252.986 166.293,250.800 165.258,250.800 164.757 C 250.800 164.609,250.087 164.202,249.215 163.853 C 248.344 163.504,247.333 162.765,246.969 162.209 C 246.606 161.654,246.081 161.200,245.803 161.200 C 245.525 161.200,244.448 160.168,243.410 158.907 L 241.522 156.613 241.671 153.663 C 241.833 150.462,242.005 150.203,245.346 148.138 C 247.503 146.805,248.883 146.636,250.058 147.560 C 250.611 147.995,251.546 148.472,252.136 148.620 C 252.726 148.768,253.579 149.409,254.032 150.044 C 254.484 150.680,255.098 151.200,255.397 151.200 C 255.695 151.200,256.766 151.831,257.776 152.603 C 261.424 155.387,273.127 155.635,274.348 152.953 C 274.587 152.429,274.954 152.000,275.163 152.000 C 276.100 152.000,276.800 150.657,276.795 148.871 C 276.787 146.430,276.439 145.200,275.754 145.200 C 275.450 145.200,274.541 144.576,273.733 143.814 C 272.696 142.836,271.635 142.298,270.128 141.985 C 268.953 141.741,267.493 141.122,266.883 140.608 C 266.262 140.086,264.937 139.550,263.873 139.390 C 262.827 139.233,261.329 138.669,260.545 138.137 C 259.760 137.604,258.136 136.913,256.935 136.600 C 255.735 136.287,254.210 135.574,253.546 135.016 C 252.882 134.457,252.169 134.000,251.961 134.000 C 251.080 134.000,247.276 129.725,246.801 128.200 C 246.526 127.320,245.919 126.180,245.451 125.668 C 244.676 124.818,244.600 124.279,244.600 119.600 C 244.600 114.921,244.676 114.382,245.451 113.532 C 245.919 113.020,246.523 111.880,246.794 111.000 C 247.065 110.120,247.853 108.820,248.544 108.110 C 249.235 107.401,250.070 106.538,250.400 106.193 C 252.100 104.412,254.638 102.771,256.037 102.548 C 256.894 102.411,257.989 101.957,258.471 101.538 C 258.953 101.120,259.719 100.700,260.174 100.605 C 260.628 100.509,261.360 100.344,261.800 100.237 C 264.495 99.584,273.115 100.274,274.844 101.281 M58.269 211.900 C 73.267 211.958,97.927 211.958,113.069 211.900 C 128.211 211.842,115.940 211.794,85.800 211.794 C 55.660 211.794,43.271 211.842,58.269 211.900 M206.700 211.900 C 225.015 211.958,254.985 211.958,273.300 211.900 C 291.615 211.842,276.630 211.795,240.000 211.795 C 203.370 211.795,188.385 211.842,206.700 211.900 M148.195 282.400 C 148.195 316.610,148.242 330.605,148.300 313.500 C 148.358 296.395,148.358 268.405,148.300 251.300 C 148.242 234.195,148.195 248.190,148.195 282.400 M206.300 226.300 C 224.835 226.357,255.165 226.357,273.700 226.300 C 292.235 226.242,277.070 226.195,240.000 226.195 C 202.930 226.195,187.765 226.242,206.300 226.300 M39.299 281.898 L 39.400 337.000 85.400 337.117 C 128.079 337.226,131.494 337.185,132.701 336.553 L 134.003 335.872 133.901 281.436 L 133.800 227.000 86.499 226.898 L 39.197 226.797 39.299 281.898 M207.300 237.500 C 225.505 237.558,255.295 237.558,273.500 237.500 C 291.705 237.442,276.810 237.395,240.400 237.395 C 203.990 237.395,189.095 237.442,207.300 237.500 M313.709 244.400 C 313.709 245.390,313.787 245.795,313.882 245.300 C 313.978 244.805,313.978 243.995,313.882 243.500 C 313.787 243.005,313.709 243.410,313.709 244.400 M311.775 249.300 L 310.600 250.600 311.900 249.425 C 312.615 248.779,313.200 248.194,313.200 248.125 C 313.200 247.816,312.870 248.088,311.775 249.300 M166.627 267.170 C 166.244 267.594,166.015 268.269,166.119 268.670 C 166.293 269.345,166.311 269.342,166.354 268.631 C 166.379 268.209,166.698 267.534,167.062 267.131 C 167.426 266.729,167.634 266.400,167.524 266.400 C 167.414 266.400,167.010 266.747,166.627 267.170 M313.701 269.800 C 313.705 270.680,313.787 270.993,313.883 270.495 C 313.979 269.998,313.975 269.278,313.875 268.895 C 313.775 268.513,313.696 268.920,313.701 269.800 M12.994 321.400 C 12.994 347.360,13.041 357.921,13.100 344.869 C 13.158 331.817,13.158 310.577,13.100 297.669 C 13.041 284.761,12.993 295.440,12.994 321.400 M206.668 276.700 C 224.966 276.758,255.026 276.758,273.468 276.700 C 291.911 276.642,276.940 276.595,240.200 276.595 C 203.460 276.595,188.371 276.642,206.668 276.700 M313.709 345.200 C 313.709 346.190,313.787 346.595,313.882 346.100 C 313.978 345.605,313.978 344.795,313.882 344.300 C 313.787 343.805,313.709 344.210,313.709 345.200 M58.300 351.900 C 73.535 351.958,98.465 351.958,113.700 351.900 C 128.935 351.842,116.470 351.794,86.000 351.794 C 55.530 351.794,43.065 351.842,58.300 351.900 M206.300 351.900 C 224.835 351.957,255.165 351.957,273.700 351.900 C 292.235 351.842,277.070 351.795,240.000 351.795 C 202.930 351.795,187.765 351.842,206.300 351.900 M99.700 377.900 C 137.705 377.956,199.895 377.956,237.900 377.900 C 275.905 377.844,244.810 377.798,168.800 377.798 C 92.790 377.798,61.695 377.844,99.700 377.900 M331.462 388.582 C 331.250 389.136,316.143 389.209,183.313 389.300 L 35.400 389.401 183.251 389.501 C 337.468 389.604,333.374 389.641,331.906 388.173 C 331.792 388.059,331.592 388.243,331.462 388.582 " stroke="none" fill="#e8b28f" fill-rule="evenodd"></path><path id="path4" d="M250.368 7.412 C 249.800 7.711,248.758 9.039,248.052 10.364 C 247.345 11.689,246.550 12.914,246.284 13.086 C 246.018 13.259,201.970 13.490,148.400 13.600 L 51.000 13.800 49.446 14.800 C 46.143 16.926,44.119 19.612,43.566 22.601 C 42.774 26.887,43.256 50.158,44.158 51.154 L 44.916 51.991 182.958 52.095 L 321.000 52.200 323.701 53.500 C 325.187 54.215,326.669 54.800,326.994 54.800 C 327.919 54.800,334.370 60.874,334.391 61.765 C 334.396 61.966,334.929 62.956,335.576 63.965 C 337.649 67.199,337.600 64.155,337.600 190.716 C 337.600 270.976,337.732 309.099,338.012 309.622 C 339.762 312.893,351.193 312.101,354.838 308.457 C 358.014 305.280,357.775 310.201,358.000 243.400 L 358.200 183.800 359.080 181.913 C 359.741 180.496,360.240 179.963,361.080 179.775 C 361.696 179.638,362.470 179.464,362.800 179.389 C 364.688 178.960,366.555 179.813,367.644 181.603 L 368.737 183.400 368.766 243.200 L 368.795 303.000 367.660 307.061 C 367.036 309.294,366.093 311.691,365.563 312.386 C 363.870 314.609,360.658 318.000,360.244 318.000 C 360.024 318.000,359.384 318.435,358.822 318.968 C 357.087 320.611,351.351 322.098,345.600 322.395 C 340.288 322.670,338.707 323.079,338.024 324.355 C 337.500 325.335,337.477 366.524,337.999 369.200 C 339.460 376.682,343.414 383.355,348.000 386.080 C 348.770 386.538,350.058 387.349,350.862 387.884 C 351.666 388.419,353.376 389.130,354.662 389.465 C 355.948 389.800,357.248 390.278,357.552 390.529 C 359.553 392.180,374.521 390.070,375.830 387.952 C 375.953 387.752,376.761 387.228,377.625 386.787 C 379.595 385.782,382.781 382.722,384.136 380.534 C 384.703 379.617,385.350 378.755,385.573 378.617 C 385.796 378.479,386.328 377.249,386.756 375.883 C 387.184 374.517,387.819 372.731,388.167 371.913 C 388.741 370.564,388.800 354.245,388.798 196.513 L 388.796 22.600 387.453 20.000 C 383.907 13.139,376.251 12.109,371.238 17.818 C 368.913 20.466,369.041 16.644,368.812 90.200 L 368.600 158.200 367.743 159.400 C 364.972 163.281,361.012 163.059,358.949 158.908 C 357.899 156.794,357.566 27.470,358.595 21.504 C 359.331 17.240,359.369 14.557,358.700 14.124 C 358.425 13.946,338.040 13.710,313.400 13.600 C 288.760 13.490,268.330 13.263,268.000 13.095 C 267.670 12.928,266.879 11.796,266.242 10.579 C 265.192 8.572,263.326 6.541,262.913 6.954 C 262.495 7.371,263.799 10.721,264.841 11.907 C 265.478 12.634,266.000 13.394,266.000 13.598 C 266.000 13.801,266.765 14.188,267.700 14.458 C 268.635 14.727,269.755 15.185,270.189 15.474 C 270.829 15.900,278.987 16.000,313.289 16.000 C 361.450 16.000,357.751 15.728,356.562 19.181 C 356.077 20.587,356.009 31.056,356.097 89.941 L 356.200 159.050 357.935 161.025 C 361.102 164.629,367.801 165.641,368.557 162.629 C 368.724 161.965,369.091 161.600,369.594 161.600 C 371.213 161.600,371.200 162.161,371.200 90.826 C 371.200 14.297,370.976 21.650,373.371 19.684 C 373.717 19.401,374.000 18.833,374.000 18.424 C 374.000 16.760,382.283 16.854,383.016 18.526 C 383.227 19.007,383.792 19.572,384.271 19.782 C 385.670 20.397,385.652 17.769,385.523 200.400 L 385.400 374.200 384.129 375.440 C 383.397 376.154,382.745 377.284,382.591 378.106 C 382.397 379.144,382.072 379.596,381.402 379.764 C 380.847 379.903,380.313 380.474,380.061 381.198 C 379.798 381.950,379.365 382.400,378.901 382.400 C 377.996 382.400,377.200 383.142,377.200 383.985 C 377.200 384.410,376.526 384.770,375.100 385.106 C 373.193 385.557,372.268 386.195,371.893 387.320 C 371.807 387.578,368.734 387.730,363.507 387.736 L 355.257 387.746 354.080 386.486 C 353.281 385.631,352.371 385.141,351.246 384.961 C 349.936 384.752,349.538 384.493,349.346 383.728 C 349.183 383.076,348.735 382.687,347.973 382.535 C 347.130 382.366,346.778 382.012,346.586 381.137 C 346.392 380.252,346.044 379.909,345.164 379.733 C 344.297 379.559,344.000 379.273,344.000 378.610 C 344.000 377.071,343.178 375.277,342.170 374.617 L 341.200 373.982 341.200 349.436 L 341.200 324.891 348.126 324.740 C 355.334 324.583,357.200 324.140,357.200 322.591 C 357.200 322.206,357.603 322.000,358.354 322.000 C 359.843 322.000,361.374 321.195,362.424 319.860 C 362.883 319.277,363.513 318.800,363.824 318.800 C 364.135 318.800,364.844 318.080,365.400 317.200 C 365.956 316.320,366.583 315.600,366.795 315.600 C 367.355 315.600,368.400 313.406,368.400 312.229 C 368.400 311.594,368.769 310.976,369.393 310.568 C 371.213 309.375,371.197 309.972,371.158 244.200 C 371.118 176.929,371.194 179.674,369.328 178.845 C 368.640 178.539,367.884 177.864,367.648 177.345 C 367.030 175.988,363.392 175.970,361.731 177.316 C 361.109 177.819,360.133 178.433,359.562 178.679 C 358.991 178.925,357.956 179.984,357.262 181.032 L 356.000 182.937 355.990 242.769 C 355.980 307.511,356.083 304.717,353.629 307.171 C 351.365 309.435,342.843 310.670,340.703 309.045 C 340.043 308.544,340.000 302.132,339.903 189.358 C 339.808 79.310,339.749 70.108,339.137 69.000 C 338.773 68.340,338.349 66.840,338.195 65.666 C 337.996 64.144,337.583 63.153,336.758 62.213 C 336.121 61.488,335.600 60.670,335.600 60.395 C 335.600 59.603,329.945 54.349,328.400 53.706 C 327.630 53.386,326.631 52.783,326.179 52.366 C 324.481 50.800,324.487 50.800,184.371 50.800 C 102.443 50.800,47.265 50.653,46.687 50.433 C 44.977 49.783,44.729 47.725,44.871 35.383 L 45.000 24.200 46.374 20.913 C 48.584 15.622,36.016 16.232,147.600 16.000 C 238.153 15.812,243.870 15.759,245.000 15.102 C 245.660 14.719,246.487 14.404,246.838 14.402 C 247.553 14.400,248.800 13.180,248.800 12.483 C 248.800 12.233,249.146 11.843,249.569 11.616 C 250.182 11.289,251.823 7.283,251.481 6.950 C 251.437 6.906,250.936 7.114,250.368 7.412 M20.124 62.751 C 16.831 63.394,14.071 65.604,12.386 68.946 L 10.800 72.093 10.796 159.146 C 10.791 255.423,10.943 248.996,8.638 249.984 C 6.664 250.830,4.400 252.662,4.400 253.413 C 4.400 253.831,4.859 253.765,6.400 253.125 C 7.500 252.667,8.400 252.140,8.400 251.952 C 8.400 251.764,9.019 251.352,9.775 251.036 C 12.812 249.767,12.575 256.952,12.800 159.200 C 12.990 76.342,13.035 72.098,13.730 70.052 C 14.696 67.207,15.764 66.229,18.993 65.231 L 21.684 64.400 169.221 64.400 L 316.759 64.400 319.979 65.417 C 322.126 66.095,323.200 66.635,323.200 67.036 C 323.200 67.366,323.641 68.078,324.181 68.617 C 326.056 70.492,325.995 65.345,326.008 223.000 C 326.020 374.009,326.038 376.085,327.388 377.594 C 327.686 377.927,328.207 379.267,328.546 380.571 C 328.899 381.933,329.559 383.310,330.096 383.809 C 331.341 384.963,332.296 387.841,331.732 388.735 C 331.110 389.721,39.241 389.986,33.200 389.006 C 27.976 388.159,25.600 387.584,25.600 387.168 C 25.600 386.975,24.835 386.434,23.900 385.968 C 21.769 384.904,17.785 381.077,16.772 379.121 C 16.350 378.308,15.715 377.481,15.361 377.282 C 14.931 377.042,14.402 375.399,13.775 372.361 L 12.833 367.800 12.817 320.884 C 12.798 268.658,12.842 269.531,10.156 268.307 C 9.630 268.068,9.200 267.710,9.200 267.513 C 9.200 267.167,6.742 265.968,4.903 265.417 C 2.565 264.716,5.395 267.254,9.391 269.443 C 10.715 270.167,10.718 270.302,10.784 320.000 C 10.819 346.510,11.003 369.010,11.194 370.000 C 11.658 372.414,13.654 377.745,14.438 378.662 C 14.784 379.068,15.464 380.061,15.948 380.870 C 16.921 382.495,21.385 386.800,22.097 386.800 C 22.345 386.800,22.920 387.147,23.374 387.571 C 23.828 387.995,26.180 389.030,28.600 389.871 L 33.000 391.400 183.166 391.503 C 314.568 391.592,333.444 391.532,334.228 391.019 C 335.355 390.280,335.023 388.256,333.472 386.413 C 332.913 385.748,332.332 384.798,332.182 384.302 C 332.031 383.806,331.587 383.040,331.194 382.600 C 330.483 381.803,329.200 378.470,329.200 377.419 C 329.200 377.115,328.795 375.996,328.300 374.933 L 327.400 373.000 327.200 221.382 C 327.016 81.846,326.948 69.686,326.345 68.782 C 325.300 67.214,322.678 64.685,320.972 63.600 L 319.400 62.600 170.400 62.551 C 88.450 62.524,20.826 62.614,20.124 62.751 M29.445 75.578 C 28.042 75.772,27.280 76.125,26.749 76.825 C 26.342 77.361,25.601 78.209,25.104 78.708 L 24.200 79.616 24.094 134.355 L 23.989 189.095 25.827 191.328 C 27.388 193.224,27.917 193.596,29.333 193.797 C 30.250 193.926,93.820 193.980,170.600 193.916 L 310.200 193.800 311.447 192.910 C 313.937 191.134,313.800 194.531,313.800 134.600 C 313.800 84.459,313.744 79.698,313.141 78.599 C 312.082 76.670,311.062 76.001,308.555 75.590 C 305.867 75.150,32.618 75.138,29.445 75.578 M310.829 78.285 L 312.400 79.969 312.400 134.627 L 312.400 189.285 311.351 190.542 C 310.773 191.234,309.918 192.019,309.451 192.286 C 308.540 192.806,32.228 193.066,29.644 192.549 C 28.749 192.370,28.016 191.766,27.094 190.449 L 25.800 188.600 25.800 134.800 L 25.800 81.000 26.983 79.200 C 27.634 78.210,28.210 77.334,28.263 77.254 C 28.705 76.582,47.634 76.486,170.129 76.540 L 309.257 76.600 310.829 78.285 M29.400 212.386 C 27.941 212.997,25.104 215.731,24.548 217.063 C 23.677 219.148,23.737 345.932,24.610 347.620 C 24.946 348.269,25.384 348.800,25.583 348.800 C 25.783 348.800,26.061 349.162,26.201 349.604 C 26.862 351.686,24.265 351.600,86.280 351.599 C 150.192 351.599,145.806 351.786,147.200 349.000 C 147.858 347.685,148.144 218.231,147.494 215.907 C 147.316 215.270,146.664 214.544,145.932 214.165 C 145.241 213.807,144.309 213.174,143.862 212.757 C 142.986 211.941,31.327 211.579,29.400 212.386 M171.300 212.488 C 170.805 212.727,170.400 213.075,170.400 213.261 C 170.400 213.448,170.161 213.600,169.870 213.600 C 168.396 213.600,165.759 218.333,166.326 219.959 C 167.020 221.950,168.791 224.406,170.114 225.213 C 171.378 225.984,172.575 225.997,240.403 225.999 L 309.405 226.000 311.357 224.258 C 314.131 221.783,314.734 216.454,312.427 214.804 C 311.962 214.472,310.931 213.705,310.136 213.100 L 308.690 212.000 240.445 212.027 C 192.250 212.046,171.936 212.182,171.300 212.488 M143.739 214.846 C 144.955 215.311,146.096 215.986,146.275 216.346 C 146.964 217.733,146.878 346.289,146.186 347.626 C 144.630 350.635,149.763 350.397,86.560 350.399 C 26.974 350.400,28.152 350.438,27.280 348.490 C 27.011 347.891,26.526 346.950,26.202 346.400 C 25.689 345.530,25.611 337.161,25.606 282.150 L 25.600 218.901 26.634 217.050 C 27.203 216.033,27.698 215.197,27.734 215.194 C 27.770 215.191,28.520 214.929,29.400 214.612 C 30.763 214.120,39.184 214.033,86.264 214.018 L 141.529 214.000 143.739 214.846 M310.249 215.082 C 312.019 216.029,312.386 216.784,312.395 219.500 C 312.400 221.262,312.304 221.401,309.623 223.515 L 308.247 224.600 240.623 224.693 L 173.000 224.786 171.087 223.584 C 168.834 222.169,168.244 220.921,168.554 218.224 C 169.070 213.726,163.008 214.069,240.800 214.139 L 308.600 214.200 310.249 215.082 M39.067 226.667 C 38.735 226.999,38.720 336.262,39.052 337.500 L 39.293 338.400 85.867 338.400 C 126.831 338.400,132.582 338.327,133.620 337.790 L 134.800 337.179 134.800 282.036 L 134.800 226.893 133.900 226.652 C 132.662 226.320,39.399 226.335,39.067 226.667 M133.901 281.436 L 134.003 335.872 132.701 336.553 C 131.494 337.185,128.079 337.226,85.400 337.117 L 39.400 337.000 39.299 281.898 L 39.197 226.797 86.499 226.898 L 133.800 227.000 133.901 281.436 M170.871 238.336 C 169.630 238.723,168.568 239.334,168.324 239.800 C 168.094 240.240,167.460 241.264,166.916 242.075 C 165.534 244.134,165.899 245.527,168.938 249.800 C 169.504 250.595,169.964 250.600,239.982 250.600 L 310.457 250.600 312.029 248.915 C 314.942 245.793,314.209 240.604,310.600 238.800 L 308.600 237.800 240.800 237.736 C 178.627 237.677,172.823 237.727,170.871 238.336 M309.067 239.641 C 312.673 240.679,313.609 245.191,310.800 248.000 L 309.200 249.600 240.626 249.600 C 199.871 249.600,171.660 249.451,171.085 249.232 C 167.453 247.851,167.589 240.469,171.263 239.597 C 173.156 239.148,307.501 239.191,309.067 239.641 M171.014 263.197 C 170.142 263.365,169.190 263.839,168.899 264.251 C 165.770 268.676,165.529 269.788,167.156 272.307 C 170.075 276.827,162.713 276.428,241.081 276.306 L 308.600 276.200 310.600 275.200 C 315.680 272.660,314.511 264.471,308.881 263.163 C 307.058 262.740,173.222 262.772,171.014 263.197 M307.652 264.398 C 312.407 264.405,314.104 271.592,309.893 273.893 C 308.369 274.726,172.979 275.005,170.658 274.180 C 168.419 273.383,167.692 268.828,169.402 266.311 C 170.387 264.862,170.887 264.644,174.000 264.308 C 174.793 264.222,216.980 264.251,307.652 264.398 M171.600 288.068 C 169.768 288.585,168.460 289.867,166.994 292.581 L 165.800 294.793 167.000 297.060 C 167.829 298.626,168.801 299.739,170.144 300.663 L 172.087 302.000 240.389 302.000 L 308.690 302.000 310.136 300.900 C 310.931 300.295,311.969 299.523,312.442 299.185 C 314.078 298.013,314.143 291.556,312.528 290.600 C 312.156 290.380,311.437 289.771,310.931 289.247 C 310.425 288.723,309.243 288.146,308.305 287.965 C 305.800 287.480,173.327 287.580,171.600 288.068 M310.200 290.830 C 313.432 293.141,313.374 297.252,310.087 298.870 L 308.200 299.800 240.200 299.800 C 162.665 299.800,169.402 300.113,168.637 296.470 C 168.038 293.619,168.670 292.024,171.000 290.500 L 173.000 289.192 240.600 289.296 L 308.200 289.400 310.200 290.830 M170.496 314.069 C 169.217 314.790,168.139 315.754,167.748 316.528 C 167.393 317.227,166.834 318.108,166.504 318.484 C 165.209 319.963,167.734 325.100,170.338 326.282 C 171.153 326.652,187.477 326.768,240.457 326.782 L 309.513 326.800 311.129 325.500 C 314.534 322.759,314.761 316.615,311.517 314.971 C 310.793 314.604,309.866 314.010,309.458 313.652 C 308.779 313.055,302.935 312.995,240.658 312.942 L 172.600 312.884 170.496 314.069 M310.282 316.051 C 313.186 317.846,313.291 321.486,310.504 323.815 L 308.608 325.400 240.665 325.503 L 172.721 325.607 171.175 324.738 C 167.747 322.811,167.487 316.451,170.800 315.551 C 171.350 315.402,202.649 315.262,240.353 315.240 L 308.906 315.200 310.282 316.051 M170.288 339.282 C 169.211 339.569,168.591 340.046,168.132 340.943 C 167.777 341.634,167.152 342.629,166.743 343.154 C 165.742 344.438,165.806 346.246,166.900 347.592 C 167.395 348.201,168.091 349.235,168.447 349.889 C 168.884 350.695,169.514 351.163,170.397 351.339 C 173.251 351.910,309.144 351.635,310.513 351.055 C 314.529 349.355,314.916 341.796,311.093 339.707 C 309.570 338.874,173.356 338.463,170.288 339.282 M308.460 340.358 C 312.428 341.281,313.742 345.952,310.847 348.847 L 309.294 350.400 240.897 350.400 C 203.279 350.400,171.929 350.286,171.231 350.146 C 167.585 349.417,167.513 341.438,171.143 340.471 C 172.971 339.984,306.378 339.874,308.460 340.358 M29.400 363.891 C 27.626 364.145,24.580 367.515,24.248 369.590 C 23.790 372.453,25.318 374.814,28.744 376.534 L 30.866 377.600 169.333 377.611 L 307.800 377.623 310.291 376.311 C 313.389 374.680,313.764 373.896,313.644 369.300 C 313.595 367.407,311.526 364.808,309.433 364.013 C 308.378 363.611,32.194 363.492,29.400 363.891 M309.786 365.981 C 310.234 366.411,311.005 367.131,311.500 367.581 C 313.456 369.361,312.558 373.447,309.953 374.621 C 307.699 375.638,29.495 375.875,28.274 374.862 C 25.192 372.303,25.800 367.026,29.342 365.597 C 31.424 364.757,308.906 365.137,309.786 365.981 " stroke="none" fill="#818995" fill-rule="evenodd"></path></g></svg>