<?xml version="1.0" standalone="no"?>
<!DOCTYPE svg PUBLIC "-//W3C//DTD SVG 20010904//EN"
 "http://www.w3.org/TR/2001/REC-SVG-20010904/DTD/svg10.dtd">
<svg version="1.0" xmlns="http://www.w3.org/2000/svg"
 width="426.000000pt" height="529.000000pt" viewBox="0 0 426.000000 529.000000"
 preserveAspectRatio="xMidYMid meet">

<g transform="translate(0.000000,529.000000) scale(0.100000,-0.100000)"
fill="#000000" stroke="none">
<path d="M1900 5269 c-313 -36 -655 -156 -912 -321 -505 -323 -853 -852 -953
-1448 -26 -152 -31 -439 -10 -600 78 -620 412 -1160 932 -1508 240 -161 501
-265 808 -323 161 -30 448 -37 625 -14 674 85 1256 476 1589 1065 412 730 351
1639 -156 2318 -70 94 -241 272 -344 358 -308 257 -715 427 -1134 474 -106 12
-338 11 -445 -1z m1580 -926 c0 -50 -59 -680 -66 -715 -4 -16 -9 -28 -13 -28
-3 0 -53 47 -111 105 -58 58 -109 104 -113 102 -5 -1 -197 -191 -428 -422
l-419 -419 -226 227 c-124 125 -229 227 -233 227 -3 0 -206 -201 -451 -446
-245 -245 -451 -451 -458 -457 -10 -8 -40 17 -133 109 -65 65 -119 126 -119
134 0 8 261 276 579 594 534 534 581 578 598 565 10 -8 112 -106 226 -219 114
-113 212 -206 217 -208 5 -2 140 128 301 289 l291 291 -113 114 c-62 62 -111
115 -108 118 2 2 54 10 114 16 257 27 583 57 623 59 l42 1 0 -37z m-280 -1588
l0 -865 -180 0 -180 0 0 690 0 691 173 174 c94 96 175 175 180 175 4 0 7 -389
7 -865z m-1113 253 l173 -173 0 -472 0 -473 -180 0 -180 0 0 645 c0 355 3 645
7 645 4 0 85 -78 180 -172z m643 -488 l0 -630 -180 0 -180 0 0 455 0 455 173
175 c94 96 175 175 180 175 4 0 7 -283 7 -630z m-940 -15 l0 -615 -185 0 -185
0 0 437 0 438 177 177 c98 98 181 178 185 178 5 0 8 -277 8 -615z m-470 -235
l0 -380 -185 0 -185 0 0 202 0 203 177 177 c98 98 181 178 185 178 5 0 8 -171
8 -380z"/>
<path d="M2970 820 l0 -50 65 0 65 0 0 50 0 50 -65 0 -65 0 0 -50z"/>
<path d="M230 536 l0 -316 93 0 c227 0 352 57 408 184 17 39 23 71 23 136 1
140 -49 222 -168 277 -57 26 -71 28 -208 31 l-148 3 0 -315z m291 187 c90 -46
127 -146 95 -255 -24 -84 -85 -127 -193 -136 l-63 -5 0 212 0 211 53 0 c38 0
69 -8 108 -27z"/>
<path d="M3245 763 c-10 -59 -13 -63 -40 -63 -23 0 -25 -3 -25 -50 0 -46 2
-50 24 -50 24 0 24 0 28 -142 5 -171 15 -199 85 -230 48 -21 111 -20 153 2 19
10 19 11 0 52 -18 41 -20 42 -59 39 -39 -2 -40 -2 -51 38 -6 23 -9 85 -8 138
l3 98 63 3 63 3 -3 47 -3 47 -62 3 -63 3 0 49 0 50 -50 0 c-49 0 -49 0 -55
-37z"/>
<path d="M1008 699 c-52 -15 -117 -75 -144 -133 -41 -88 -29 -201 28 -271 86
-104 260 -111 357 -14 l41 42 -37 28 -38 28 -25 -23 c-36 -33 -64 -46 -102
-46 -58 0 -106 39 -123 98 l-6 22 171 0 172 0 -4 70 c-3 57 -9 77 -34 112 -16
24 -48 53 -70 65 -47 26 -134 36 -186 22z m136 -111 c14 -13 28 -35 32 -50 l6
-28 -106 0 c-114 0 -118 2 -89 50 31 54 112 68 157 28z"/>
<path d="M1611 698 c-19 -5 -46 -18 -59 -29 -33 -25 -42 -24 -42 6 0 24 -3 25
-55 25 l-55 0 0 -350 0 -350 60 0 60 0 0 130 c0 72 2 130 5 130 2 0 19 -9 37
-20 141 -85 318 31 318 209 0 90 -17 139 -70 192 -61 63 -120 80 -199 57z
m104 -131 c37 -37 51 -87 40 -144 -4 -22 -20 -50 -40 -70 -27 -27 -40 -33 -78
-33 -29 0 -55 8 -78 23 -34 23 -34 23 -36 107 -2 56 1 90 10 100 25 33 63 50
105 50 36 0 50 -6 77 -33z"/>
<path d="M2135 701 c-70 -18 -125 -63 -161 -131 -13 -25 -19 -56 -19 -110 0
-81 15 -121 64 -173 46 -50 98 -71 176 -71 84 0 136 23 187 84 101 118 65 310
-72 380 -44 22 -131 33 -175 21z m134 -127 c62 -52 65 -162 6 -221 -27 -27
-41 -33 -77 -33 -51 0 -82 19 -104 62 -33 64 -14 166 38 202 36 25 101 20 137
-10z"/>
<path d="M2636 695 c-76 -27 -115 -97 -95 -169 12 -43 34 -62 122 -105 56 -28
73 -42 75 -61 8 -53 -70 -67 -133 -24 l-38 25 -34 -33 -34 -33 30 -27 c103
-93 301 -60 332 54 9 36 8 49 -8 88 -17 41 -26 49 -106 89 -51 26 -89 52 -93
63 -14 45 47 63 111 32 34 -16 34 -15 64 18 27 30 28 34 14 51 -18 19 -103 47
-142 47 -14 -1 -44 -7 -65 -15z"/>
<path d="M3710 697 c-106 -30 -170 -120 -170 -237 0 -166 136 -277 294 -241
137 30 215 156 186 296 -29 138 -171 221 -310 182z m129 -112 c80 -41 80 -209
0 -250 -99 -52 -197 40 -174 162 10 53 63 103 109 103 21 0 50 -7 65 -15z"/>
<path d="M2970 460 l0 -240 65 0 65 0 0 240 0 240 -65 0 -65 0 0 -240z"/>
</g>
</svg>
