<svg id="svg" version="1.1" xmlns="http://www.w3.org/2000/svg" xmlns:xlink="http://www.w3.org/1999/xlink" width="400" height="400" viewBox="0, 0, 400,400"><g id="svgg"><path id="path0" d="M42.921 41.871 C 41.846 42.090,41.490 43.956,41.675 48.400 L 41.800 51.400 47.264 51.600 C 52.571 51.794,52.764 51.833,53.999 52.934 L 55.270 54.069 55.135 60.134 C 54.950 68.453,55.060 68.334,47.365 68.488 L 41.800 68.600 41.800 73.067 C 41.800 75.524,41.950 77.684,42.133 77.867 C 42.569 78.302,77.431 78.302,77.867 77.867 C 78.050 77.684,78.200 75.524,78.200 73.067 L 78.200 68.600 72.625 68.488 L 67.050 68.376 65.925 67.116 L 64.800 65.856 64.800 59.905 L 64.800 53.955 66.077 52.788 C 67.341 51.634,67.412 51.620,72.777 51.511 L 78.200 51.400 78.200 46.933 C 78.200 44.476,78.050 42.316,77.867 42.133 C 77.527 41.793,44.520 41.546,42.921 41.871 M345.600 103.430 C 345.600 103.865,345.843 104.577,346.140 105.011 C 346.437 105.445,346.804 106.340,346.954 107.000 C 347.105 107.660,347.473 108.740,347.773 109.400 C 348.575 111.166,349.821 114.274,350.819 117.000 C 351.302 118.320,351.946 119.878,352.249 120.462 C 352.552 121.046,352.806 121.766,352.814 122.062 C 352.821 122.358,353.175 123.320,353.600 124.200 C 354.025 125.080,354.379 125.977,354.386 126.192 C 354.404 126.708,355.946 130.708,356.649 132.062 C 356.952 132.646,357.200 133.368,357.200 133.668 C 357.200 133.967,357.560 134.884,358.000 135.704 C 358.440 136.525,358.800 137.468,358.800 137.800 C 358.800 138.132,359.160 139.075,359.600 139.896 C 360.040 140.716,360.400 141.774,360.400 142.245 C 360.400 142.716,360.651 143.310,360.958 143.565 C 361.265 143.820,361.640 144.688,361.791 145.494 C 361.942 146.300,362.321 147.323,362.633 147.769 C 362.945 148.214,363.200 148.856,363.200 149.195 C 363.200 149.534,363.560 150.484,364.000 151.304 C 364.440 152.125,364.800 152.996,364.800 153.238 C 364.800 153.481,365.062 154.246,365.382 154.940 C 370.311 165.611,369.642 178.689,363.693 187.983 C 363.194 188.762,362.564 189.748,362.293 190.174 C 359.589 194.422,349.308 202.000,346.248 202.000 C 345.918 202.000,345.539 202.175,345.407 202.389 C 345.274 202.603,344.454 202.970,343.583 203.205 C 341.032 203.891,341.385 204.366,353.400 216.407 C 360.045 223.066,364.800 228.138,364.800 228.566 C 364.800 229.406,357.399 237.004,355.745 237.862 L 354.651 238.430 300.013 183.815 C 269.963 153.777,245.140 129.200,244.851 129.200 C 244.562 129.200,243.869 128.840,243.309 128.400 C 242.750 127.960,241.906 127.600,241.435 127.600 C 240.964 127.600,240.221 127.350,239.784 127.044 C 235.425 123.991,223.402 126.982,218.193 132.416 C 217.317 133.330,216.285 134.370,215.900 134.728 C 215.515 135.085,215.196 135.563,215.191 135.789 C 215.186 136.015,214.830 136.650,214.400 137.200 C 213.970 137.750,213.613 138.470,213.606 138.800 C 213.600 139.130,213.281 139.940,212.898 140.600 C 212.059 142.043,211.854 153.045,212.648 154.039 C 212.894 154.347,213.325 155.320,213.606 156.200 C 213.886 157.080,214.225 157.890,214.359 158.000 C 214.493 158.110,215.139 159.010,215.795 160.000 C 216.451 160.990,217.350 162.167,217.794 162.615 C 218.237 163.063,220.130 165.116,222.000 167.176 C 223.870 169.237,225.940 171.489,226.600 172.180 C 227.570 173.196,232.749 178.860,235.600 182.023 C 236.341 182.844,242.210 189.255,245.245 192.557 C 246.480 193.901,247.920 195.476,248.445 196.058 C 251.419 199.353,255.205 203.481,256.600 204.951 C 259.078 207.560,265.642 214.704,267.200 216.488 C 267.970 217.370,269.552 219.105,270.716 220.345 C 271.880 221.585,272.938 223.099,273.068 223.708 C 273.197 224.318,273.460 224.914,273.652 225.032 C 274.478 225.543,273.457 230.051,272.163 231.600 C 271.888 231.930,271.541 232.688,271.392 233.284 C 271.243 233.880,270.869 234.577,270.561 234.833 C 270.252 235.089,270.000 235.596,270.000 235.960 C 270.000 236.324,269.754 236.977,269.454 237.411 C 269.154 237.845,268.773 238.650,268.609 239.200 C 268.445 239.750,268.088 240.740,267.815 241.400 C 266.021 245.744,265.012 249.122,264.174 253.600 C 263.865 255.250,263.409 257.050,263.161 257.600 C 262.025 260.118,262.304 280.904,263.547 286.400 C 263.771 287.390,264.133 289.010,264.353 290.000 C 265.194 293.802,266.773 299.029,267.796 301.400 C 269.631 305.653,270.090 306.665,270.426 307.200 C 270.633 307.530,270.981 308.250,271.201 308.800 C 271.420 309.350,271.777 310.070,271.994 310.400 C 272.211 310.730,272.660 311.540,272.993 312.200 C 273.326 312.860,273.957 313.940,274.395 314.600 C 274.833 315.260,275.418 316.241,275.696 316.781 C 275.973 317.321,276.613 318.176,277.118 318.681 L 278.036 319.600 331.968 319.600 L 385.900 319.600 386.150 318.350 C 386.550 316.352,386.391 172.962,385.985 169.400 C 384.925 160.090,383.824 154.263,382.586 151.400 C 382.300 150.740,381.956 149.660,381.820 149.000 C 381.550 147.694,381.372 147.287,378.521 141.500 C 375.858 136.094,375.511 135.428,375.235 135.200 C 374.776 134.821,372.800 131.616,372.800 131.251 C 372.800 131.050,372.530 130.782,372.200 130.655 C 371.870 130.529,371.600 130.158,371.600 129.832 C 371.600 129.506,371.374 129.096,371.098 128.920 C 370.821 128.744,370.061 127.880,369.409 127.000 C 367.086 123.869,345.600 102.598,345.600 103.430 " stroke="none" fill="#fab382" fill-rule="evenodd"></path><path id="path1" d="M22.000 0.400 C 22.000 0.620,21.263 0.800,20.363 0.800 C 19.062 0.800,18.682 0.964,18.516 1.600 C 18.359 2.201,17.970 2.400,16.953 2.400 C 16.017 2.400,15.600 2.585,15.600 3.000 C 15.600 3.330,15.255 3.600,14.833 3.600 C 13.641 3.600,12.800 4.031,12.800 4.643 C 12.800 4.949,12.440 5.200,12.000 5.200 C 11.467 5.200,11.200 5.467,11.200 6.000 C 11.200 6.503,10.933 6.800,10.481 6.800 C 9.576 6.800,6.800 9.603,6.800 10.517 C 6.800 10.933,6.488 11.200,6.000 11.200 C 5.467 11.200,5.200 11.467,5.200 12.000 C 5.200 12.440,4.949 12.800,4.643 12.800 C 4.031 12.800,3.600 13.641,3.600 14.833 C 3.600 15.255,3.330 15.600,3.000 15.600 C 2.585 15.600,2.400 16.017,2.400 16.953 C 2.400 17.970,2.201 18.359,1.600 18.516 C 0.987 18.676,0.800 19.062,0.800 20.163 C 0.800 20.953,0.620 21.600,0.400 21.600 C 0.135 21.600,0.000 50.133,0.000 106.400 C 0.000 162.667,0.135 191.200,0.400 191.200 C 0.620 191.200,0.800 191.937,0.800 192.837 C 0.800 194.138,0.964 194.518,1.600 194.684 C 2.201 194.841,2.400 195.230,2.400 196.247 C 2.400 197.135,2.591 197.600,2.955 197.600 C 3.271 197.600,3.621 198.189,3.766 198.961 C 3.907 199.710,4.287 200.424,4.611 200.549 C 4.935 200.673,5.200 201.051,5.200 201.387 C 5.200 201.724,5.476 202.000,5.813 202.000 C 6.149 202.000,6.537 202.291,6.674 202.647 C 7.016 203.539,10.228 206.800,10.764 206.800 C 11.004 206.800,11.200 207.070,11.200 207.400 C 11.200 207.730,11.539 208.000,11.953 208.000 C 12.370 208.000,12.800 208.357,12.916 208.800 C 13.066 209.374,13.462 209.600,14.316 209.600 C 15.170 209.600,15.566 209.826,15.716 210.400 C 15.869 210.985,16.262 211.200,17.175 211.200 C 17.917 211.200,18.519 211.444,18.655 211.800 C 18.809 212.200,19.439 212.400,20.547 212.400 C 21.774 212.400,22.338 212.609,22.707 213.200 C 23.129 213.876,23.640 214.000,26.003 214.000 L 28.800 214.000 28.800 215.304 C 28.800 216.174,29.066 216.774,29.600 217.107 C 30.204 217.484,30.400 218.040,30.400 219.376 C 30.400 220.795,30.559 221.196,31.200 221.400 C 31.858 221.609,32.000 222.005,32.000 223.627 C 32.000 225.030,32.158 225.600,32.547 225.600 C 32.885 225.600,33.178 226.224,33.313 227.231 C 33.434 228.128,33.817 229.177,34.166 229.563 C 34.515 229.948,34.800 230.851,34.800 231.569 C 34.800 232.538,35.006 232.929,35.600 233.084 C 36.256 233.256,36.400 233.630,36.400 235.158 C 36.400 236.527,36.612 237.204,37.200 237.707 C 37.657 238.099,38.000 238.887,38.000 239.547 C 38.000 240.182,38.248 240.907,38.550 241.159 C 38.853 241.410,39.216 242.339,39.357 243.223 C 39.499 244.107,39.881 244.933,40.207 245.058 C 40.548 245.189,40.800 245.794,40.800 246.480 C 40.800 247.338,41.025 247.734,41.600 247.884 C 42.263 248.058,42.400 248.430,42.400 250.059 C 42.400 251.438,42.579 252.094,43.000 252.255 C 43.368 252.397,43.600 253.004,43.600 253.829 C 43.600 254.762,43.844 255.302,44.400 255.600 C 45.020 255.932,45.200 256.438,45.200 257.852 C 45.200 259.338,45.348 259.713,46.000 259.884 C 46.663 260.058,46.800 260.430,46.800 262.059 C 46.800 263.373,46.985 264.096,47.359 264.239 C 47.666 264.357,48.038 265.262,48.187 266.250 C 48.335 267.238,48.713 268.145,49.028 268.266 C 49.373 268.398,49.600 269.040,49.600 269.880 C 49.600 270.938,49.793 271.325,50.400 271.484 C 51.065 271.658,51.200 272.030,51.200 273.684 C 51.200 275.338,51.335 275.710,52.000 275.884 C 52.621 276.047,52.800 276.430,52.800 277.598 C 52.800 278.447,53.061 279.319,53.400 279.600 C 53.730 279.874,54.000 280.430,54.000 280.835 C 54.000 281.240,54.360 281.765,54.800 282.000 C 55.332 282.285,55.600 282.838,55.600 283.652 C 55.600 284.538,55.820 284.932,56.400 285.084 C 56.843 285.200,57.200 285.630,57.200 286.047 C 57.200 286.461,57.456 286.800,57.768 286.800 C 58.081 286.800,58.458 287.352,58.606 288.027 C 58.754 288.702,59.128 289.351,59.438 289.470 C 59.747 289.588,60.000 289.924,60.000 290.216 C 60.000 290.507,60.360 290.860,60.800 291.000 C 61.240 291.140,61.600 291.512,61.600 291.827 C 61.600 292.142,61.960 292.400,62.400 292.400 C 62.852 292.400,63.200 292.667,63.200 293.013 C 63.200 293.349,63.501 293.741,63.869 293.882 C 64.238 294.023,64.868 294.468,65.269 294.869 C 65.671 295.271,66.360 295.600,66.800 295.600 C 67.240 295.600,67.600 295.850,67.600 296.155 C 67.600 296.471,68.189 296.821,68.961 296.966 C 69.710 297.107,70.424 297.487,70.549 297.811 C 70.705 298.219,71.378 298.400,72.741 298.400 C 74.370 298.400,74.742 298.537,74.916 299.200 C 75.105 299.923,75.462 300.000,78.618 300.000 C 81.449 300.000,82.206 300.129,82.611 300.682 C 83.333 301.670,88.667 301.670,89.389 300.682 C 89.793 300.130,90.548 300.000,93.341 300.000 C 96.360 300.000,96.856 299.900,97.293 299.200 C 97.662 298.609,98.226 298.400,99.453 298.400 C 100.485 298.400,101.194 298.194,101.323 297.856 C 101.439 297.555,102.423 297.194,103.526 297.048 C 104.724 296.889,105.612 296.547,105.748 296.191 C 105.873 295.866,106.476 295.598,107.087 295.595 C 108.812 295.586,110.000 295.161,110.000 294.553 C 110.000 294.180,110.490 294.000,111.504 294.000 C 112.574 294.000,113.151 293.770,113.507 293.200 C 113.886 292.593,114.440 292.400,115.803 292.400 C 117.058 292.400,117.600 292.235,117.600 291.852 C 117.600 291.496,118.257 291.230,119.476 291.093 C 120.527 290.974,121.557 290.600,121.820 290.241 C 122.077 289.888,122.852 289.600,123.541 289.600 C 124.360 289.600,124.966 289.323,125.293 288.800 C 125.596 288.314,126.226 288.000,126.896 288.000 C 127.611 288.000,128.000 287.788,128.000 287.400 C 128.000 286.991,128.414 286.798,129.300 286.795 C 131.200 286.787,132.400 286.384,132.400 285.753 C 132.400 285.374,132.904 285.200,134.000 285.200 C 135.067 285.200,135.867 284.933,136.400 284.400 C 136.895 283.905,137.733 283.600,138.600 283.600 C 139.536 283.600,140.000 283.414,140.000 283.038 C 140.000 282.666,140.679 282.382,142.001 282.200 C 143.102 282.048,144.137 281.698,144.301 281.421 C 144.466 281.144,145.396 280.814,146.368 280.688 C 147.363 280.558,148.290 280.183,148.488 279.829 C 148.702 279.446,149.381 279.200,150.224 279.200 C 151.113 279.200,151.853 278.914,152.293 278.400 C 152.753 277.862,153.473 277.600,154.489 277.600 C 155.502 277.600,156.000 277.419,156.000 277.052 C 156.000 276.696,156.657 276.430,157.876 276.293 C 158.927 276.174,159.957 275.800,160.220 275.441 C 160.477 275.088,161.059 274.800,161.511 274.800 C 162.756 274.800,163.600 274.379,163.600 273.757 C 163.600 273.390,164.064 273.200,164.957 273.200 C 165.733 273.200,166.404 272.967,166.523 272.656 C 166.640 272.351,167.566 272.018,168.626 271.898 C 169.774 271.769,170.662 271.432,170.880 271.042 C 171.102 270.646,171.769 270.400,172.620 270.400 C 173.467 270.400,174.309 270.091,174.800 269.600 C 175.244 269.156,176.133 268.800,176.800 268.800 C 177.467 268.800,178.356 268.444,178.800 268.000 C 179.333 267.467,180.133 267.200,181.200 267.200 C 182.288 267.200,182.800 267.025,182.800 266.652 C 182.800 266.296,183.457 266.030,184.676 265.893 C 185.727 265.774,186.757 265.400,187.020 265.041 C 187.277 264.688,188.052 264.400,188.741 264.400 C 189.560 264.400,190.166 264.123,190.493 263.600 C 190.866 263.002,191.426 262.800,192.709 262.800 C 193.809 262.800,194.502 262.599,194.639 262.241 C 194.757 261.934,195.662 261.562,196.650 261.413 C 197.638 261.265,198.545 260.887,198.666 260.572 C 198.787 260.257,199.316 260.000,199.843 260.000 C 200.369 260.000,201.160 259.640,201.600 259.200 C 202.048 258.752,202.933 258.400,203.613 258.400 C 204.279 258.400,204.920 258.152,205.037 257.848 C 205.156 257.539,206.123 257.181,207.243 257.032 C 208.426 256.875,209.329 256.530,209.462 256.184 C 209.597 255.831,210.222 255.600,211.043 255.600 C 211.867 255.600,212.714 255.286,213.200 254.800 C 213.689 254.311,214.533 254.000,215.373 254.000 C 216.395 254.000,216.811 253.795,217.000 253.200 C 217.209 252.542,217.605 252.400,219.227 252.400 C 220.714 252.400,221.200 252.252,221.200 251.800 C 221.200 251.391,221.614 251.198,222.500 251.195 C 224.400 251.187,225.600 250.784,225.600 250.153 C 225.600 249.793,226.065 249.600,226.938 249.600 C 227.768 249.600,228.551 249.296,229.000 248.800 C 229.487 248.262,230.232 248.000,231.275 248.000 C 232.225 248.000,232.907 247.786,233.037 247.447 C 233.154 247.143,233.946 246.783,234.796 246.647 C 235.647 246.511,236.613 246.130,236.943 245.800 C 237.273 245.470,237.888 245.200,238.309 245.200 C 238.731 245.200,239.402 244.840,239.800 244.400 C 240.285 243.864,241.032 243.600,242.062 243.600 C 243.128 243.600,243.600 243.425,243.600 243.029 C 243.600 242.636,244.289 242.372,245.800 242.183 C 247.275 241.998,248.000 241.725,248.000 241.354 C 248.000 240.974,248.504 240.800,249.600 240.800 C 251.352 240.800,251.801 241.672,250.529 242.602 C 250.065 242.941,249.802 243.878,249.674 245.642 C 249.561 247.205,249.269 248.354,248.920 248.609 C 248.532 248.893,248.256 250.293,248.060 252.985 C 247.875 255.505,247.594 257.002,247.285 257.105 C 246.499 257.367,246.597 284.779,247.387 285.824 C 247.732 286.279,247.982 287.510,247.992 288.800 C 248.017 292.026,248.419 294.000,249.052 294.000 C 249.460 294.000,249.600 294.665,249.600 296.597 C 249.600 298.760,249.733 299.277,250.400 299.693 C 251.017 300.078,251.200 300.626,251.200 302.082 C 251.200 303.562,251.373 304.065,252.000 304.400 C 252.612 304.728,252.800 305.238,252.800 306.571 C 252.800 307.681,253.000 308.391,253.349 308.525 C 253.652 308.641,254.020 309.381,254.168 310.168 C 254.330 311.031,254.667 311.600,255.018 311.600 C 255.419 311.600,255.600 312.046,255.600 313.037 C 255.600 314.138,255.787 314.524,256.400 314.684 C 257.001 314.841,257.200 315.230,257.200 316.247 C 257.200 317.135,257.391 317.600,257.755 317.600 C 258.071 317.600,258.421 318.189,258.566 318.961 C 258.707 319.710,259.070 320.418,259.373 320.534 C 259.676 320.651,260.043 321.283,260.187 321.940 C 260.331 322.596,260.708 323.233,261.024 323.354 C 261.341 323.476,261.600 323.941,261.600 324.387 C 261.600 324.834,261.851 325.200,262.157 325.200 C 262.769 325.200,263.200 326.041,263.200 327.233 C 263.200 327.655,263.470 328.000,263.800 328.000 C 264.329 328.000,264.400 332.022,264.400 361.797 C 264.400 395.160,264.410 395.600,265.200 396.093 C 265.696 396.403,266.000 397.026,266.000 397.734 C 266.000 398.538,266.236 398.937,266.800 399.084 C 267.240 399.199,267.600 399.452,267.600 399.647 C 267.600 400.311,398.763 400.094,399.429 399.429 C 400.138 398.720,400.308 156.400,399.600 156.400 C 399.369 156.400,399.200 155.144,399.200 153.433 C 399.200 150.116,398.974 149.200,398.157 149.200 C 397.749 149.200,397.600 148.617,397.600 147.020 C 397.600 145.611,397.408 144.727,397.059 144.520 C 396.761 144.344,396.413 143.396,396.285 142.414 C 396.158 141.432,395.771 140.422,395.427 140.170 C 395.082 139.918,394.800 139.229,394.800 138.639 C 394.800 138.049,394.440 137.180,394.000 136.708 C 393.560 136.236,393.200 135.508,393.200 135.092 C 393.200 134.675,392.570 133.260,391.800 131.946 C 391.030 130.632,390.400 129.388,390.400 129.182 C 390.400 128.976,390.040 128.582,389.600 128.307 C 389.160 128.032,388.800 127.489,388.800 127.100 C 388.800 126.711,388.440 126.084,388.000 125.707 C 387.560 125.330,387.200 124.787,387.200 124.499 C 387.200 124.211,386.941 123.876,386.624 123.754 C 386.308 123.633,385.934 123.008,385.793 122.367 C 385.652 121.725,385.366 121.200,385.158 121.200 C 384.950 121.200,384.609 120.750,384.400 120.200 C 384.191 119.650,383.745 119.200,383.410 119.200 C 383.074 119.200,382.800 118.924,382.800 118.587 C 382.800 118.251,382.530 117.871,382.200 117.745 C 381.870 117.618,381.600 117.273,381.600 116.978 C 381.600 116.683,381.150 115.956,380.600 115.362 C 380.050 114.769,379.600 114.129,379.600 113.942 C 379.600 113.754,379.351 113.600,379.047 113.600 C 378.742 113.600,378.399 113.240,378.284 112.800 C 378.169 112.360,377.788 112.000,377.437 112.000 C 377.087 112.000,376.800 111.800,376.800 111.556 C 376.800 110.996,373.383 107.600,372.819 107.600 C 372.589 107.600,372.400 107.240,372.400 106.800 C 372.400 106.360,372.196 106.000,371.946 106.000 C 371.412 106.000,369.600 104.130,369.600 103.579 C 369.600 103.371,369.240 103.200,368.800 103.200 C 368.267 103.200,368.000 102.933,368.000 102.400 C 368.000 101.867,367.733 101.600,367.200 101.600 C 366.760 101.600,366.400 101.361,366.400 101.070 C 366.400 100.778,365.770 100.014,365.000 99.372 C 364.230 98.730,363.600 97.978,363.600 97.702 C 363.600 97.426,363.240 97.200,362.800 97.200 C 362.267 97.200,362.000 96.933,362.000 96.400 C 362.000 95.960,361.814 95.600,361.588 95.600 C 361.361 95.600,360.597 94.970,359.890 94.200 C 359.184 93.430,358.379 92.800,358.103 92.800 C 357.826 92.800,357.600 92.440,357.600 92.000 C 357.600 91.560,357.396 91.200,357.146 91.200 C 356.612 91.200,354.800 89.330,354.800 88.779 C 354.800 88.571,354.440 88.400,354.000 88.400 C 353.467 88.400,353.200 88.133,353.200 87.600 C 353.200 87.067,352.933 86.800,352.400 86.800 C 351.867 86.800,351.600 86.533,351.600 86.000 C 351.600 85.560,351.429 85.200,351.221 85.200 C 350.670 85.200,348.800 83.388,348.800 82.854 C 348.800 82.604,348.440 82.400,348.000 82.400 C 347.467 82.400,347.200 82.133,347.200 81.600 C 347.200 81.160,347.028 80.800,346.818 80.800 C 346.322 80.800,344.400 78.878,344.400 78.382 C 344.400 78.172,344.040 78.000,343.600 78.000 C 343.067 78.000,342.800 77.733,342.800 77.200 C 342.800 76.735,342.533 76.400,342.163 76.400 C 341.812 76.400,341.431 76.040,341.316 75.600 C 341.201 75.160,340.858 74.800,340.553 74.800 C 340.249 74.800,340.000 74.530,340.000 74.200 C 340.000 73.870,339.713 73.600,339.363 73.600 C 339.012 73.600,338.631 73.240,338.516 72.800 C 338.400 72.357,337.970 72.000,337.553 72.000 C 337.067 72.000,336.800 71.717,336.800 71.200 C 336.800 70.756,336.533 70.400,336.200 70.400 C 335.675 70.400,335.599 67.853,335.595 49.900 C 335.589 29.006,335.523 27.600,334.553 27.600 C 334.134 27.600,334.000 26.912,334.000 24.763 C 334.000 22.262,333.905 21.900,333.200 21.716 C 332.576 21.553,332.400 21.170,332.400 19.982 C 332.400 19.143,332.130 18.187,331.800 17.857 C 331.470 17.527,331.200 16.957,331.200 16.591 C 331.200 16.225,330.840 15.831,330.400 15.716 C 329.960 15.601,329.600 15.182,329.600 14.786 C 329.600 13.638,329.160 12.800,328.557 12.800 C 328.251 12.800,328.000 12.440,328.000 12.000 C 328.000 11.556,327.733 11.200,327.400 11.200 C 327.070 11.200,326.800 11.018,326.800 10.796 C 326.800 10.207,323.506 6.800,322.937 6.800 C 322.671 6.800,322.340 6.440,322.200 6.000 C 322.060 5.560,321.778 5.200,321.573 5.200 C 321.368 5.200,320.840 4.840,320.400 4.400 C 319.960 3.960,319.150 3.600,318.600 3.600 C 317.978 3.600,317.600 3.373,317.600 3.000 C 317.600 2.581,317.178 2.400,316.200 2.400 C 315.067 2.400,314.800 2.248,314.800 1.600 C 314.800 0.933,314.533 0.800,313.200 0.800 C 312.320 0.800,311.600 0.620,311.600 0.400 C 311.600 0.134,263.067 0.000,166.800 0.000 C 70.533 0.000,22.000 0.134,22.000 0.400 M306.000 14.399 C 311.973 16.489,316.635 21.074,318.908 27.097 L 319.778 29.400 319.886 105.200 C 319.951 150.725,319.848 181.230,319.628 181.575 C 318.935 182.659,317.627 181.426,286.900 150.744 C 257.864 121.750,254.485 118.563,250.600 116.501 C 240.209 110.986,227.184 110.899,217.000 116.277 C 199.038 125.763,192.662 148.679,203.111 166.200 C 204.907 169.210,207.597 172.424,214.000 179.207 C 214.550 179.790,215.810 181.157,216.800 182.246 C 226.883 193.338,231.436 198.283,231.965 198.716 C 233.478 199.953,230.176 199.991,130.200 199.896 L 29.000 199.800 26.129 198.556 C 20.021 195.908,16.571 192.206,14.280 185.842 L 13.400 183.400 13.400 106.600 L 13.400 29.800 14.331 27.222 C 17.000 19.825,22.994 14.802,30.600 13.587 C 31.700 13.411,93.530 13.318,168.000 13.379 L 303.400 13.490 306.000 14.399 M38.000 27.743 C 33.117 29.786,30.535 32.169,28.342 36.654 L 27.000 39.400 27.000 60.000 L 27.000 80.600 28.331 83.322 C 30.040 86.818,33.026 89.803,36.609 91.600 L 39.400 93.000 60.000 93.000 L 80.600 93.000 83.391 91.600 C 86.942 89.820,89.820 86.942,91.600 83.391 L 93.000 80.600 93.000 60.000 L 93.000 39.400 91.719 36.800 C 89.773 32.853,87.376 30.383,83.719 28.557 L 80.600 27.000 60.400 26.911 L 40.200 26.823 38.000 27.743 M200.441 33.750 C 200.121 34.136,200.017 37.089,200.093 43.650 L 200.200 53.000 206.700 53.110 L 213.200 53.220 213.200 43.843 C 213.200 38.685,213.091 34.181,212.957 33.833 C 212.622 32.958,201.162 32.882,200.441 33.750 M227.043 33.833 C 226.909 34.181,226.800 38.670,226.800 43.808 L 226.800 53.151 228.594 53.420 C 230.823 53.754,238.822 53.497,239.500 53.069 C 240.202 52.625,240.221 34.381,239.520 33.680 C 238.719 32.879,227.355 33.018,227.043 33.833 M253.614 33.974 C 253.364 34.442,253.200 38.320,253.200 43.786 C 253.200 54.457,252.452 53.400,260.000 53.400 C 267.548 53.400,266.800 54.457,266.800 43.786 C 266.800 32.227,267.425 33.200,260.000 33.200 C 254.505 33.200,253.995 33.262,253.614 33.974 M280.480 33.680 C 279.610 34.550,279.816 52.750,280.700 53.113 C 281.678 53.514,292.660 53.474,293.067 53.067 C 293.762 52.374,293.718 35.240,293.019 34.173 C 292.283 33.050,281.533 32.627,280.480 33.680 M79.002 41.202 C 80.146 42.397,80.154 42.437,80.177 47.568 C 80.205 53.876,80.797 53.360,73.268 53.600 L 67.000 53.800 67.000 60.000 L 67.000 66.200 73.268 66.400 C 80.798 66.640,80.205 66.121,80.177 72.450 L 80.153 77.631 78.869 78.916 L 77.585 80.200 60.019 80.200 L 42.453 80.200 41.226 79.025 L 40.000 77.850 40.000 72.333 C 40.000 65.799,39.215 66.440,47.400 66.297 L 53.000 66.200 53.000 60.000 L 53.000 53.800 47.400 53.703 C 39.218 53.561,40.000 54.193,40.000 47.714 C 40.000 42.323,40.015 42.228,41.075 41.122 L 42.150 40.000 60.000 40.000 L 77.850 40.000 79.002 41.202 M356.769 112.631 C 363.276 119.138,369.410 125.534,370.400 126.845 C 371.390 128.157,372.384 129.448,372.609 129.715 C 375.322 132.935,382.394 146.182,382.402 148.060 C 382.404 148.357,382.657 149.083,382.965 149.673 C 383.273 150.263,383.643 151.343,383.788 152.073 C 383.933 152.803,384.302 154.210,384.607 155.200 C 386.887 162.589,386.803 159.223,386.802 242.820 C 386.800 301.878,386.690 319.550,386.320 319.920 C 385.505 320.735,278.068 320.603,276.900 319.785 C 276.123 319.241,275.036 317.552,272.184 312.458 C 270.416 309.300,269.602 307.703,268.583 305.400 C 267.999 304.080,267.269 302.433,266.961 301.740 C 266.652 301.046,266.400 300.287,266.400 300.053 C 266.400 299.819,266.143 299.036,265.828 298.314 C 263.356 292.632,261.217 279.965,261.216 271.000 C 261.216 267.175,262.228 256.805,262.773 255.047 C 262.986 254.361,263.443 252.630,263.788 251.200 C 265.598 243.697,266.242 241.960,270.194 233.932 C 272.631 228.979,273.192 226.594,272.446 224.347 C 271.969 222.912,271.637 222.517,264.444 214.849 C 261.890 212.126,259.710 209.763,259.600 209.597 C 259.327 209.184,253.771 203.048,251.800 200.980 C 248.956 197.998,246.602 195.453,244.417 193.000 C 242.641 191.006,235.799 183.541,233.600 181.197 C 233.110 180.675,226.879 173.805,225.400 172.156 C 225.180 171.911,223.143 169.715,220.873 167.277 C 218.604 164.838,216.232 162.195,215.602 161.402 C 212.232 157.162,210.164 149.502,211.129 144.833 C 211.388 143.578,211.601 142.203,211.602 141.776 C 211.610 137.860,220.708 127.200,224.040 127.200 C 224.360 127.200,225.016 126.924,225.497 126.587 C 227.806 124.970,238.985 124.964,241.292 126.579 C 241.779 126.921,242.406 127.200,242.685 127.200 C 244.677 127.200,250.994 133.275,301.685 183.941 C 338.720 220.957,354.987 236.961,355.485 236.871 C 356.250 236.733,364.000 229.257,364.000 228.657 C 364.000 228.461,358.825 223.095,352.500 216.733 C 340.497 204.660,339.608 203.507,341.875 202.953 C 342.494 202.801,343.627 202.345,344.394 201.939 C 345.161 201.532,345.992 201.200,346.242 201.200 C 348.155 201.200,356.364 195.727,359.081 192.640 C 368.703 181.709,370.282 169.354,364.021 153.990 C 363.351 152.345,362.796 150.820,362.788 150.600 C 362.780 150.380,362.425 149.480,362.000 148.600 C 361.575 147.720,361.221 146.790,361.214 146.532 C 361.206 146.275,360.947 145.555,360.638 144.932 C 360.329 144.310,359.687 142.720,359.212 141.400 C 358.737 140.080,358.000 138.230,357.574 137.289 C 357.148 136.348,356.800 135.351,356.800 135.074 C 356.800 134.796,356.440 133.863,356.000 133.000 C 355.560 132.137,355.194 131.154,355.187 130.815 C 355.180 130.477,354.910 129.851,354.587 129.424 C 354.264 128.996,353.994 128.366,353.986 128.024 C 353.979 127.681,353.625 126.680,353.200 125.800 C 352.775 124.920,352.421 124.031,352.414 123.824 C 352.395 123.323,349.258 115.286,348.554 113.938 C 348.249 113.354,347.994 112.634,347.986 112.338 C 347.979 112.042,347.625 111.080,347.200 110.200 C 346.775 109.320,346.421 108.363,346.414 108.074 C 346.406 107.784,346.183 107.154,345.918 106.674 C 345.309 105.572,344.030 101.964,344.013 101.300 C 343.980 100.034,345.696 101.559,356.769 112.631 M33.862 113.931 C 32.830 115.072,32.887 125.193,33.931 126.138 C 35.104 127.199,58.372 127.136,59.338 126.069 C 60.370 124.928,60.313 114.807,59.269 113.862 C 58.096 112.801,34.828 112.864,33.862 113.931 M73.862 113.931 C 72.830 115.072,72.887 125.193,73.931 126.138 C 75.104 127.199,98.372 127.136,99.338 126.069 C 100.370 124.928,100.313 114.807,99.269 113.862 C 98.096 112.801,74.828 112.864,73.862 113.931 M113.862 113.931 C 112.830 115.072,112.887 125.193,113.931 126.138 C 115.104 127.199,138.372 127.136,139.338 126.069 C 140.370 124.928,140.313 114.807,139.269 113.862 C 138.096 112.801,114.828 112.864,113.862 113.931 M153.862 113.931 C 152.830 115.072,152.887 125.193,153.931 126.138 C 155.010 127.114,178.398 127.145,179.371 126.171 C 179.882 125.660,180.000 124.506,180.000 120.000 C 180.000 115.494,179.882 114.340,179.371 113.829 C 178.339 112.796,154.803 112.891,153.862 113.931 M335.155 118.000 C 335.365 118.000,335.658 118.585,335.807 119.300 C 335.957 120.015,336.302 120.960,336.576 121.400 C 336.850 121.840,337.201 122.716,337.356 123.347 C 337.512 123.978,338.350 125.589,339.219 126.927 C 340.089 128.264,340.800 129.555,340.800 129.795 C 340.800 130.034,341.430 131.747,342.200 133.600 C 342.970 135.453,343.606 137.157,343.614 137.385 C 343.621 137.613,343.975 138.520,344.400 139.400 C 344.825 140.280,345.179 141.158,345.186 141.350 C 345.194 141.543,346.201 144.243,347.425 147.350 C 348.648 150.458,350.023 153.990,350.481 155.200 C 350.938 156.410,351.538 157.940,351.813 158.600 C 357.623 172.504,354.108 183.501,342.200 188.673 C 331.373 193.375,330.855 193.391,332.125 189.000 C 332.890 186.359,332.954 184.600,333.252 158.000 C 333.610 126.065,333.907 115.748,334.427 117.100 C 334.618 117.595,334.946 118.000,335.155 118.000 M33.862 153.931 C 32.830 155.072,32.887 165.193,33.931 166.138 C 35.104 167.199,58.372 167.136,59.338 166.069 C 60.370 164.928,60.313 154.807,59.269 153.862 C 58.096 152.801,34.828 152.864,33.862 153.931 M153.862 153.931 C 152.830 155.072,152.887 165.193,153.931 166.138 C 155.010 167.114,178.398 167.145,179.371 166.171 C 179.882 165.660,180.000 164.506,180.000 160.000 C 180.000 155.494,179.882 154.340,179.371 153.829 C 178.339 152.796,154.803 152.891,153.862 153.931 M246.399 214.647 C 251.351 219.120,253.937 222.941,252.317 223.388 C 251.813 223.527,250.590 223.978,249.600 224.391 C 248.610 224.803,246.720 225.535,245.400 226.019 C 244.080 226.502,242.522 227.146,241.938 227.449 C 241.354 227.752,240.634 228.006,240.338 228.014 C 240.042 228.021,239.080 228.375,238.200 228.800 C 237.320 229.225,236.420 229.580,236.200 229.588 C 235.980 229.597,233.370 230.592,230.400 231.800 C 227.430 233.008,224.820 234.003,224.600 234.012 C 224.380 234.020,223.480 234.375,222.600 234.800 C 221.720 235.225,220.847 235.579,220.660 235.586 C 220.474 235.594,219.754 235.845,219.060 236.143 C 218.367 236.442,215.820 237.449,213.400 238.381 C 210.980 239.313,207.466 240.688,205.591 241.437 C 203.716 242.187,202.006 242.806,201.791 242.814 C 201.576 242.821,200.680 243.175,199.800 243.600 C 198.920 244.025,198.030 244.379,197.823 244.386 C 197.616 244.394,194.916 245.407,191.823 246.637 C 188.730 247.868,185.210 249.237,184.000 249.680 C 182.790 250.123,181.260 250.712,180.600 250.990 C 179.278 251.546,171.859 254.406,168.400 255.693 C 167.190 256.143,165.660 256.739,165.000 257.016 C 164.340 257.294,161.820 258.276,159.400 259.198 C 156.980 260.120,153.466 261.488,151.591 262.237 C 149.716 262.987,148.006 263.606,147.791 263.614 C 147.576 263.621,146.680 263.975,145.800 264.400 C 144.920 264.825,143.925 265.179,143.589 265.186 C 143.253 265.194,142.623 265.446,142.189 265.746 C 141.755 266.046,140.950 266.421,140.400 266.578 C 139.850 266.735,137.780 267.498,135.800 268.273 C 133.820 269.048,131.210 270.048,130.000 270.497 C 128.790 270.945,127.260 271.539,126.600 271.816 C 125.300 272.363,117.952 275.176,114.400 276.486 C 113.190 276.933,111.722 277.546,111.138 277.849 C 110.554 278.152,109.834 278.406,109.538 278.414 C 109.242 278.421,108.280 278.775,107.400 279.200 C 106.520 279.625,105.558 279.979,105.262 279.986 C 104.966 279.994,104.246 280.249,103.662 280.554 C 102.734 281.039,99.574 282.278,92.200 285.049 C 85.947 287.398,77.392 285.322,72.220 280.200 C 70.021 278.023,66.826 272.900,66.786 271.490 C 66.779 271.220,66.425 270.280,66.000 269.400 C 65.575 268.520,65.221 267.658,65.214 267.485 C 65.206 267.312,64.196 264.612,62.968 261.485 C 61.741 258.358,60.370 254.810,59.921 253.600 C 59.473 252.390,58.946 251.086,58.751 250.702 C 56.569 246.414,56.526 243.728,58.629 243.095 C 59.273 242.900,60.160 242.584,60.600 242.392 C 61.040 242.199,62.570 241.599,64.000 241.057 C 65.430 240.516,69.158 239.066,72.285 237.836 C 75.412 236.606,78.112 235.594,78.285 235.586 C 78.458 235.579,79.320 235.225,80.200 234.800 C 81.080 234.375,81.976 234.021,82.191 234.014 C 82.547 234.001,87.058 232.269,91.600 230.401 C 92.590 229.993,94.480 229.261,95.800 228.774 C 97.120 228.287,98.740 227.662,99.400 227.387 C 100.060 227.111,101.590 226.520,102.800 226.074 C 104.010 225.628,107.558 224.259,110.685 223.032 C 113.812 221.804,116.512 220.794,116.685 220.786 C 116.858 220.779,117.720 220.425,118.600 220.000 C 119.480 219.575,120.380 219.220,120.600 219.212 C 120.820 219.204,122.350 218.644,124.000 217.968 C 125.650 217.292,127.630 216.502,128.400 216.212 C 129.170 215.921,130.790 215.288,132.000 214.804 C 133.210 214.320,134.740 213.780,135.400 213.603 C 136.060 213.426,160.944 213.263,190.699 213.241 L 244.798 213.200 246.399 214.647 M93.248 214.401 C 92.505 214.577,91.785 214.895,91.648 215.110 C 91.512 215.324,90.770 215.630,90.000 215.789 C 89.230 215.948,88.201 216.331,87.714 216.639 C 87.227 216.948,86.609 217.200,86.340 217.200 C 86.072 217.200,85.121 217.528,84.226 217.929 C 82.669 218.627,81.557 219.055,78.700 220.055 C 77.985 220.306,76.950 220.735,76.400 221.009 C 75.850 221.283,74.827 221.630,74.128 221.780 C 73.428 221.929,72.641 222.310,72.379 222.626 C 72.117 222.942,71.516 223.200,71.045 223.200 C 70.574 223.200,69.516 223.560,68.696 224.000 C 67.875 224.440,66.877 224.800,66.478 224.800 C 66.079 224.800,65.404 225.064,64.976 225.387 C 64.549 225.710,63.923 225.980,63.585 225.987 C 63.246 225.994,62.263 226.360,61.400 226.800 C 60.537 227.240,59.554 227.601,59.215 227.601 C 58.877 227.602,58.011 227.962,57.290 228.401 C 56.570 228.841,55.670 229.201,55.290 229.202 C 54.911 229.204,54.119 229.456,53.532 229.762 C 52.346 230.381,50.800 229.311,50.800 227.873 C 50.800 227.501,50.440 226.525,50.000 225.704 C 49.560 224.884,49.200 223.929,49.200 223.582 C 49.200 223.236,48.936 222.604,48.613 222.176 C 48.290 221.749,48.019 221.040,48.010 220.600 C 48.002 220.160,47.708 219.260,47.358 218.600 C 47.008 217.940,46.486 216.635,46.200 215.700 L 45.678 214.000 70.139 214.041 C 83.593 214.063,93.992 214.225,93.248 214.401 M386.410 334.226 C 387.018 335.825,386.932 385.708,386.320 386.320 C 385.705 386.935,282.640 387.023,281.026 386.410 L 280.000 386.020 280.000 359.997 L 280.000 333.974 280.900 333.612 C 281.419 333.404,303.839 333.240,333.910 333.225 L 386.020 333.200 386.410 334.226 M293.476 347.057 C 292.970 347.563,293.157 358.997,293.680 359.520 C 294.412 360.252,305.748 360.186,306.362 359.446 C 306.675 359.069,306.786 356.990,306.711 352.946 L 306.600 347.000 300.176 346.890 C 296.643 346.830,293.628 346.905,293.476 347.057 " stroke="none" fill="#050404" fill-rule="evenodd"></path><path id="path2" d="M41.075 41.122 C 40.015 42.228,40.000 42.323,40.000 47.714 C 40.000 54.193,39.218 53.561,47.400 53.703 L 53.000 53.800 53.000 60.000 L 53.000 66.200 47.400 66.297 C 39.215 66.440,40.000 65.799,40.000 72.333 L 40.000 77.850 41.226 79.025 L 42.453 80.200 60.019 80.200 L 77.585 80.200 78.869 78.916 L 80.153 77.631 80.177 72.450 C 80.205 66.121,80.798 66.640,73.268 66.400 L 67.000 66.200 67.000 60.000 L 67.000 53.800 73.268 53.600 C 80.797 53.360,80.205 53.876,80.177 47.568 C 80.154 42.437,80.146 42.397,79.002 41.202 L 77.850 40.000 60.000 40.000 L 42.150 40.000 41.075 41.122 M77.853 41.292 C 79.488 42.413,79.588 42.811,79.595 48.253 C 79.601 53.573,80.150 53.187,72.580 53.195 C 66.002 53.201,66.400 52.763,66.400 60.000 C 66.400 67.237,66.002 66.799,72.580 66.805 C 80.196 66.813,79.600 66.356,79.600 72.188 C 79.600 76.944,79.570 77.116,78.527 78.242 L 77.453 79.400 60.627 79.515 C 39.022 79.664,40.400 80.183,40.400 71.896 C 40.400 66.377,39.840 66.800,47.153 66.800 C 54.026 66.800,53.600 67.239,53.600 60.153 C 53.600 52.545,54.161 53.201,47.657 53.195 C 39.773 53.187,40.399 53.648,40.406 47.853 C 40.413 42.641,40.418 42.619,42.154 41.286 C 43.974 39.889,75.812 39.894,77.853 41.292 M344.013 101.300 C 344.030 101.964,345.309 105.572,345.918 106.674 C 346.183 107.154,346.406 107.784,346.414 108.074 C 346.421 108.363,346.775 109.320,347.200 110.200 C 347.625 111.080,347.979 112.042,347.986 112.338 C 347.994 112.634,348.249 113.354,348.554 113.938 C 349.258 115.286,352.395 123.323,352.414 123.824 C 352.421 124.031,352.775 124.920,353.200 125.800 C 353.625 126.680,353.979 127.681,353.986 128.024 C 353.994 128.366,354.264 128.996,354.587 129.424 C 354.910 129.851,355.180 130.477,355.187 130.815 C 355.194 131.154,355.560 132.137,356.000 133.000 C 356.440 133.863,356.800 134.796,356.800 135.074 C 356.800 135.351,357.148 136.348,357.574 137.289 C 358.000 138.230,358.737 140.080,359.212 141.400 C 359.687 142.720,360.329 144.310,360.638 144.932 C 360.947 145.555,361.206 146.275,361.214 146.532 C 361.221 146.790,361.575 147.720,362.000 148.600 C 362.425 149.480,362.780 150.380,362.788 150.600 C 362.796 150.820,363.351 152.345,364.021 153.990 C 370.282 169.354,368.703 181.709,359.081 192.640 C 356.364 195.727,348.155 201.200,346.242 201.200 C 345.992 201.200,345.161 201.532,344.394 201.939 C 343.627 202.345,342.494 202.801,341.875 202.953 C 339.608 203.507,340.497 204.660,352.500 216.733 C 358.825 223.095,364.000 228.461,364.000 228.657 C 364.000 229.257,356.250 236.733,355.485 236.871 C 354.987 236.961,338.720 220.957,301.685 183.941 C 250.994 133.275,244.677 127.200,242.685 127.200 C 242.406 127.200,241.779 126.921,241.292 126.579 C 238.985 124.964,227.806 124.970,225.497 126.587 C 225.016 126.924,224.360 127.200,224.040 127.200 C 220.708 127.200,211.610 137.860,211.602 141.776 C 211.601 142.203,211.388 143.578,211.129 144.833 C 210.164 149.502,212.232 157.162,215.602 161.402 C 216.232 162.195,218.604 164.838,220.873 167.277 C 223.143 169.715,225.180 171.911,225.400 172.156 C 226.879 173.805,233.110 180.675,233.600 181.197 C 235.799 183.541,242.641 191.006,244.417 193.000 C 246.602 195.453,248.956 197.998,251.800 200.980 C 253.771 203.048,259.327 209.184,259.600 209.597 C 259.710 209.763,261.890 212.126,264.444 214.849 C 271.637 222.517,271.969 222.912,272.446 224.347 C 273.192 226.594,272.631 228.979,270.194 233.932 C 266.242 241.960,265.598 243.697,263.788 251.200 C 263.443 252.630,262.986 254.361,262.773 255.047 C 262.228 256.805,261.216 267.175,261.216 271.000 C 261.217 279.965,263.356 292.632,265.828 298.314 C 266.143 299.036,266.400 299.819,266.400 300.053 C 266.400 300.287,266.652 301.046,266.961 301.740 C 267.269 302.433,267.999 304.080,268.583 305.400 C 269.602 307.703,270.416 309.300,272.184 312.458 C 275.036 317.552,276.123 319.241,276.900 319.785 C 278.068 320.603,385.505 320.735,386.320 319.920 C 386.690 319.550,386.800 301.878,386.802 242.820 C 386.803 159.223,386.887 162.589,384.607 155.200 C 384.302 154.210,383.933 152.803,383.788 152.073 C 383.643 151.343,383.273 150.263,382.965 149.673 C 382.657 149.083,382.404 148.357,382.402 148.060 C 382.394 146.182,375.322 132.935,372.609 129.715 C 372.384 129.448,371.390 128.157,370.400 126.845 C 368.267 124.021,345.149 100.800,344.469 100.800 C 344.211 100.800,344.006 101.025,344.013 101.300 M369.831 127.038 C 370.914 128.380,372.070 129.885,372.400 130.385 C 372.730 130.884,373.288 131.677,373.639 132.146 C 374.927 133.866,378.888 141.036,379.848 143.384 C 380.391 144.713,381.003 146.160,381.207 146.600 C 382.239 148.823,384.143 155.106,384.784 158.400 C 386.477 167.100,386.430 164.506,386.312 244.000 L 386.200 319.400 331.901 319.501 C 280.270 319.598,277.568 319.568,276.890 318.890 C 274.753 316.753,268.332 304.208,266.445 298.484 C 261.143 282.402,260.468 264.648,264.610 250.200 C 264.925 249.100,265.358 247.570,265.571 246.800 C 266.650 242.911,268.105 239.353,271.135 233.200 C 274.593 226.177,274.365 224.594,269.084 218.949 C 267.464 217.217,264.904 214.450,263.397 212.800 C 261.889 211.150,259.653 208.710,258.428 207.378 C 257.203 206.046,254.400 202.993,252.200 200.594 C 250.000 198.196,247.030 194.963,245.600 193.410 C 244.170 191.857,241.380 188.808,239.400 186.635 C 237.420 184.461,235.260 182.118,234.600 181.428 C 233.940 180.737,231.793 178.379,229.828 176.186 C 226.639 172.628,219.420 164.754,217.458 162.695 C 216.397 161.582,213.600 157.534,213.600 157.112 C 213.600 156.916,213.206 155.911,212.724 154.878 C 211.961 153.244,211.845 152.299,211.832 147.600 C 211.815 141.872,211.732 142.233,214.311 136.906 C 215.926 133.571,219.628 130.101,223.814 128.000 L 227.400 126.200 233.400 126.200 C 243.865 126.200,237.081 120.372,301.541 184.737 C 337.276 220.420,354.748 237.600,355.299 237.600 C 356.387 237.600,364.400 229.726,364.400 228.657 C 364.400 228.154,360.278 223.734,353.100 216.542 C 341.203 204.621,340.574 203.785,343.000 203.137 C 343.660 202.961,344.740 202.562,345.400 202.252 C 348.438 200.821,350.308 200.000,350.531 200.000 C 350.665 200.000,351.845 199.266,353.152 198.369 C 367.432 188.569,372.241 171.884,365.421 155.800 C 365.141 155.140,364.543 153.610,364.093 152.400 C 361.880 146.453,359.853 141.294,359.354 140.338 C 359.049 139.754,358.800 139.032,358.800 138.732 C 358.800 138.433,358.440 137.516,358.000 136.696 C 357.560 135.875,357.199 134.977,357.198 134.701 C 357.197 134.426,356.208 131.770,355.000 128.800 C 353.792 125.830,352.797 123.220,352.788 123.000 C 352.780 122.780,352.425 121.880,352.000 121.000 C 351.575 120.120,351.221 119.224,351.214 119.009 C 351.206 118.794,350.570 117.039,349.800 115.109 C 345.607 104.600,345.393 103.968,345.555 102.600 C 345.618 102.073,367.290 123.890,369.831 127.038 M334.057 122.200 C 334.052 126.525,334.160 127.925,334.444 127.216 C 334.660 126.674,334.796 124.651,334.747 122.721 C 334.651 119.008,334.913 118.065,335.601 119.642 C 335.990 120.535,336.002 120.520,335.783 119.425 C 335.653 118.778,335.310 118.058,335.019 117.825 C 334.729 117.591,334.396 117.130,334.278 116.800 C 334.160 116.470,334.060 118.900,334.057 122.200 M336.000 121.300 C 336.000 121.659,336.192 122.071,336.427 122.216 C 337.113 122.640,337.180 122.261,336.567 121.423 C 336.093 120.774,336.000 120.754,336.000 121.300 M337.202 124.056 C 337.201 124.416,337.574 125.136,338.030 125.656 C 338.487 126.175,338.746 126.374,338.606 126.099 C 337.441 123.807,337.205 123.463,337.202 124.056 M91.410 214.648 C 91.053 215.004,90.870 215.404,91.003 215.536 C 91.135 215.668,91.390 215.539,91.570 215.248 C 91.750 214.958,92.505 214.577,93.248 214.401 L 94.600 214.082 93.329 214.041 C 92.629 214.018,91.766 214.291,91.410 214.648 M46.400 216.647 C 46.400 216.867,46.664 217.396,46.987 217.824 C 47.310 218.251,47.575 218.420,47.575 218.200 C 47.575 217.980,47.310 217.451,46.987 217.024 C 46.664 216.596,46.400 216.427,46.400 216.647 M83.200 218.000 C 81.917 219.004,82.231 219.004,84.200 218.000 C 85.218 217.481,85.494 217.203,84.985 217.209 C 84.553 217.214,83.750 217.570,83.200 218.000 M79.549 219.465 C 79.047 220.074,79.085 220.087,80.000 219.611 C 81.341 218.914,81.442 218.800,80.716 218.800 C 80.376 218.800,79.851 219.099,79.549 219.465 M75.200 221.000 C 74.562 221.769,75.213 221.777,76.224 221.013 C 76.876 220.519,76.896 220.423,76.349 220.413 C 75.991 220.406,75.474 220.670,75.200 221.000 M48.000 221.127 C 48.000 221.361,48.175 221.661,48.389 221.793 C 48.603 221.926,48.981 222.786,49.228 223.705 C 49.476 224.625,49.947 225.742,50.276 226.188 C 50.855 226.975,50.865 226.969,50.588 226.000 C 50.431 225.450,50.165 224.820,49.997 224.600 C 49.830 224.380,49.570 223.627,49.420 222.928 C 49.157 221.693,48.000 220.227,48.000 221.127 M71.424 222.613 C 70.802 223.083,70.772 223.200,71.275 223.200 C 71.620 223.200,72.126 222.930,72.400 222.600 C 73.034 221.837,72.439 221.844,71.424 222.613 M68.176 223.787 C 67.749 224.110,67.040 224.401,66.600 224.434 C 65.978 224.480,65.947 224.532,66.461 224.668 C 66.824 224.765,67.812 224.474,68.655 224.022 C 69.498 223.570,69.910 223.200,69.571 223.200 C 69.231 223.200,68.604 223.464,68.176 223.787 M60.925 226.700 C 60.506 227.085,60.360 227.272,60.603 227.116 C 60.845 226.960,61.483 226.656,62.022 226.441 C 62.640 226.194,62.759 226.041,62.344 226.025 C 61.984 226.011,61.345 226.315,60.925 226.700 M50.832 228.038 C 50.814 228.389,51.205 229.019,51.700 229.438 C 52.592 230.194,52.594 230.193,51.952 229.400 C 51.596 228.960,51.205 228.330,51.084 228.000 C 50.897 227.491,50.858 227.496,50.832 228.038 M56.600 228.400 C 55.036 229.436,55.592 229.437,57.290 228.401 C 58.011 227.962,58.420 227.604,58.200 227.604 C 57.980 227.605,57.260 227.963,56.600 228.400 M280.900 333.612 L 280.000 333.974 280.000 359.997 L 280.000 386.020 281.026 386.410 C 282.640 387.023,385.705 386.935,386.320 386.320 C 386.932 385.708,387.018 335.825,386.410 334.226 L 386.020 333.200 333.910 333.225 C 303.839 333.240,281.419 333.404,280.900 333.612 M306.711 352.946 C 306.786 356.990,306.675 359.069,306.362 359.446 C 305.748 360.186,294.412 360.252,293.680 359.520 C 293.157 358.997,292.970 347.563,293.476 347.057 C 293.628 346.905,296.643 346.830,300.176 346.890 L 306.600 347.000 306.711 352.946 " stroke="none" fill="#89ad36" fill-rule="evenodd"></path><path id="path3" d="M42.154 41.286 C 40.418 42.619,40.413 42.641,40.406 47.853 C 40.399 53.648,39.773 53.187,47.657 53.195 C 54.161 53.201,53.600 52.545,53.600 60.153 C 53.600 67.239,54.026 66.800,47.153 66.800 C 39.840 66.800,40.400 66.377,40.400 71.896 C 40.400 80.183,39.022 79.664,60.627 79.515 L 77.453 79.400 78.527 78.242 C 79.570 77.116,79.600 76.944,79.600 72.188 C 79.600 66.356,80.196 66.813,72.580 66.805 C 66.002 66.799,66.400 67.237,66.400 60.000 C 66.400 52.763,66.002 53.201,72.580 53.195 C 80.150 53.187,79.601 53.573,79.595 48.253 C 79.584 39.852,80.957 40.400,59.929 40.400 C 43.383 40.400,43.303 40.404,42.154 41.286 M77.867 42.133 C 78.050 42.316,78.200 44.476,78.200 46.933 L 78.200 51.400 72.777 51.511 C 67.412 51.620,67.341 51.634,66.077 52.788 L 64.800 53.955 64.800 59.905 L 64.800 65.856 65.925 67.116 L 67.050 68.376 72.625 68.488 L 78.200 68.600 78.200 73.067 C 78.200 75.524,78.050 77.684,77.867 77.867 C 77.431 78.302,42.569 78.302,42.133 77.867 C 41.950 77.684,41.800 75.524,41.800 73.067 L 41.800 68.600 47.365 68.488 C 55.060 68.334,54.950 68.453,55.135 60.134 L 55.270 54.069 53.999 52.934 C 52.764 51.833,52.571 51.794,47.264 51.600 L 41.800 51.400 41.675 48.400 C 41.490 43.956,41.846 42.090,42.921 41.871 C 44.520 41.546,77.527 41.793,77.867 42.133 M345.385 102.859 C 345.213 103.156,345.224 103.261,345.411 103.092 C 345.598 102.922,350.755 107.819,356.873 113.974 C 362.990 120.129,367.730 124.768,367.407 124.282 C 365.876 121.987,345.683 102.343,345.385 102.859 M345.614 104.624 C 345.639 105.294,346.772 107.030,346.773 106.400 C 346.774 106.070,346.510 105.451,346.187 105.024 C 345.864 104.596,345.606 104.416,345.614 104.624 M348.417 111.656 C 348.408 111.797,348.756 112.697,349.191 113.656 C 349.626 114.615,349.979 115.130,349.974 114.800 C 349.967 114.213,348.450 111.151,348.417 111.656 M350.028 115.800 C 350.028 116.020,350.286 116.650,350.600 117.200 C 350.914 117.750,351.172 118.020,351.172 117.800 C 351.172 117.580,350.914 116.950,350.600 116.400 C 350.286 115.850,350.028 115.580,350.028 115.800 M334.759 119.476 C 334.736 119.874,334.750 121.566,334.791 123.236 C 334.845 125.462,334.669 126.689,334.132 127.836 C 333.452 129.290,333.384 131.403,333.167 157.800 C 332.945 184.728,332.891 186.345,332.124 189.000 C 330.855 193.391,331.373 193.375,342.200 188.673 C 354.108 183.501,357.623 172.504,351.813 158.600 C 351.538 157.940,350.938 156.410,350.481 155.200 C 350.023 153.990,348.648 150.458,347.425 147.350 C 346.201 144.243,345.194 141.543,345.186 141.350 C 345.179 141.158,344.825 140.280,344.400 139.400 C 343.975 138.520,343.621 137.613,343.614 137.385 C 343.606 137.157,342.995 135.514,342.256 133.734 C 341.516 131.954,340.795 130.036,340.654 129.471 C 340.512 128.906,339.677 127.613,338.798 126.598 C 337.745 125.381,337.200 124.365,337.200 123.618 C 337.200 122.995,336.953 122.391,336.651 122.275 C 336.348 122.159,335.981 121.426,335.835 120.646 C 335.545 119.099,334.825 118.316,334.759 119.476 M351.613 120.054 C 351.606 120.194,351.869 120.824,352.198 121.454 C 352.526 122.084,352.796 122.319,352.798 121.976 C 352.800 121.390,351.640 119.508,351.613 120.054 M352.814 123.056 C 352.806 123.307,353.156 124.297,353.591 125.256 C 354.026 126.215,354.380 126.730,354.378 126.400 C 354.372 125.685,352.833 122.396,352.814 123.056 M369.504 127.180 C 370.107 128.049,370.836 128.858,371.124 128.977 C 371.412 129.096,370.986 128.385,370.176 127.397 C 368.358 125.178,368.045 125.077,369.504 127.180 M228.900 126.276 C 229.285 126.376,229.915 126.376,230.300 126.276 C 230.685 126.175,230.370 126.093,229.600 126.093 C 228.830 126.093,228.515 126.175,228.900 126.276 M236.305 126.283 C 236.802 126.379,237.522 126.375,237.905 126.275 C 238.287 126.175,237.880 126.096,237.000 126.101 C 236.120 126.105,235.807 126.187,236.305 126.283 M226.000 127.000 C 225.450 127.314,225.180 127.572,225.400 127.572 C 225.620 127.572,226.250 127.314,226.800 127.000 C 227.350 126.686,227.620 126.428,227.400 126.428 C 227.180 126.428,226.550 126.686,226.000 127.000 M239.776 127.013 C 240.204 127.336,240.834 127.594,241.176 127.586 C 241.576 127.577,241.441 127.366,240.800 127.000 C 239.491 126.252,238.782 126.261,239.776 127.013 M354.428 127.400 C 354.428 127.620,354.686 128.250,355.000 128.800 C 355.314 129.350,355.572 129.620,355.572 129.400 C 355.572 129.180,355.314 128.550,355.000 128.000 C 354.686 127.450,354.428 127.180,354.428 127.400 M219.679 130.435 C 218.755 131.114,218.000 131.843,218.000 132.055 C 218.000 132.266,218.810 131.763,219.800 130.935 C 221.464 129.544,221.797 129.200,221.479 129.200 C 221.412 129.200,220.602 129.756,219.679 130.435 M300.657 184.363 C 337.865 221.627,354.873 238.402,355.225 238.185 C 355.605 237.950,355.534 237.793,354.951 237.577 C 354.518 237.418,330.656 213.822,301.922 185.143 C 273.189 156.465,248.987 132.376,248.140 131.612 C 247.293 130.849,270.925 154.587,300.657 184.363 M372.846 131.400 C 373.246 132.438,375.034 135.194,375.309 135.197 C 375.479 135.199,375.307 134.705,374.927 134.100 C 374.038 132.687,372.645 130.879,372.846 131.400 M216.257 133.866 C 215.629 134.604,215.359 135.108,215.657 134.987 C 216.231 134.753,217.776 132.823,217.539 132.635 C 217.463 132.574,216.886 133.128,216.257 133.866 M357.200 134.707 C 357.200 134.980,357.560 135.875,358.000 136.696 C 358.440 137.516,358.800 137.965,358.800 137.693 C 358.800 137.420,358.440 136.525,358.000 135.704 C 357.560 134.884,357.200 134.435,357.200 134.707 M214.253 136.900 L 213.533 138.200 214.358 137.200 C 215.089 136.313,215.414 135.600,215.086 135.600 C 215.024 135.600,214.649 136.185,214.253 136.900 M377.201 138.478 C 377.199 138.866,379.996 144.400,380.194 144.400 C 380.282 144.400,379.981 143.555,379.525 142.523 C 378.635 140.511,377.204 138.020,377.201 138.478 M358.800 139.047 C 358.800 139.267,359.064 139.796,359.387 140.224 C 359.710 140.651,359.975 140.820,359.975 140.600 C 359.975 140.380,359.710 139.851,359.387 139.424 C 359.064 138.996,358.800 138.827,358.800 139.047 M360.856 144.145 C 361.139 144.775,361.442 145.073,361.531 144.806 C 361.620 144.540,361.389 144.024,361.018 143.661 C 360.386 143.042,360.376 143.073,360.856 144.145 M211.737 147.400 C 211.739 149.160,211.809 149.830,211.893 148.889 C 211.978 147.949,211.977 146.509,211.891 145.689 C 211.805 144.870,211.736 145.640,211.737 147.400 M382.027 150.000 C 382.026 150.330,382.290 150.949,382.613 151.376 C 383.360 152.364,383.352 151.715,382.600 150.400 C 382.268 149.820,382.028 149.652,382.027 150.000 M363.924 151.800 C 364.126 152.240,364.392 152.870,364.514 153.200 C 364.707 153.718,364.741 153.715,364.768 153.176 C 364.786 152.834,364.520 152.204,364.178 151.776 C 363.566 151.012,363.562 151.013,363.924 151.800 M364.815 154.400 C 364.821 154.730,365.090 155.349,365.413 155.776 C 366.168 156.775,366.163 156.405,365.402 154.946 C 365.074 154.316,364.810 154.070,364.815 154.400 M383.634 155.200 C 383.637 155.939,384.722 158.377,384.768 157.746 C 384.785 157.496,384.537 156.686,384.216 155.946 C 383.894 155.206,383.632 154.870,383.634 155.200 M215.200 159.800 C 215.881 160.790,216.542 161.600,216.668 161.600 C 216.794 161.600,216.603 161.195,216.243 160.700 C 215.882 160.205,215.382 159.395,215.130 158.900 C 214.878 158.405,214.512 158.000,214.317 158.000 C 214.121 158.000,214.519 158.810,215.200 159.800 M366.414 158.454 C 366.406 158.594,366.663 159.314,366.984 160.054 C 367.306 160.794,367.569 161.130,367.570 160.800 C 367.572 160.224,366.443 157.934,366.414 158.454 M384.901 160.600 C 384.905 161.480,384.987 161.793,385.083 161.295 C 385.179 160.798,385.175 160.078,385.075 159.695 C 384.975 159.313,384.896 159.720,384.901 160.600 M217.613 162.487 C 217.595 162.887,221.186 166.919,221.962 167.371 C 222.313 167.575,221.752 166.854,220.715 165.768 C 219.678 164.682,218.559 163.435,218.228 162.997 C 217.896 162.559,217.620 162.329,217.613 162.487 M385.287 163.600 C 385.283 164.370,385.424 165.450,385.600 166.000 C 386.048 167.399,386.048 165.161,385.600 163.400 L 385.295 162.200 385.287 163.600 M368.075 165.200 C 368.086 165.750,368.232 166.740,368.400 167.400 L 368.705 168.600 368.725 167.200 C 368.735 166.430,368.589 165.440,368.400 165.000 C 368.088 164.274,368.058 164.293,368.075 165.200 M386.124 169.400 C 386.126 170.720,386.201 171.212,386.290 170.493 C 386.379 169.774,386.377 168.694,386.286 168.093 C 386.195 167.492,386.122 168.080,386.124 169.400 M223.800 169.600 C 224.659 170.480,225.452 171.200,225.562 171.200 C 225.672 171.200,225.059 170.480,224.200 169.600 C 223.341 168.720,222.548 168.000,222.438 168.000 C 222.328 168.000,222.941 168.720,223.800 169.600 M368.267 173.547 C 368.098 174.727,368.047 175.781,368.154 175.888 C 368.449 176.182,368.890 173.436,368.722 172.352 C 368.632 171.770,368.455 172.234,368.267 173.547 M230.051 176.469 C 233.952 180.756,238.201 185.140,236.778 183.410 C 236.240 182.755,234.971 181.315,233.958 180.210 C 232.945 179.104,231.145 177.094,229.958 175.742 C 228.771 174.390,227.553 173.172,227.251 173.036 C 226.949 172.899,228.209 174.444,230.051 176.469 M367.115 179.810 C 366.992 180.245,366.769 180.960,366.620 181.400 C 366.471 181.840,366.642 181.694,367.000 181.076 C 367.358 180.458,367.581 179.742,367.495 179.486 C 367.410 179.230,367.239 179.376,367.115 179.810 M240.836 188.200 C 242.995 190.442,244.131 191.276,242.370 189.327 C 240.683 187.459,239.180 186.000,238.945 186.000 C 238.819 186.000,239.670 186.990,240.836 188.200 M361.600 190.400 C 360.896 191.289,360.607 191.895,360.951 191.764 C 361.291 191.633,361.679 191.183,361.812 190.763 C 361.945 190.343,362.203 190.000,362.384 190.000 C 362.566 190.000,362.818 189.730,362.945 189.400 C 363.319 188.423,362.945 188.702,361.600 190.400 M245.387 193.179 C 246.701 194.511,247.853 195.600,247.948 195.600 C 248.284 195.600,244.191 191.296,243.600 191.029 C 243.270 190.880,244.074 191.847,245.387 193.179 M358.400 194.200 C 357.428 195.190,356.723 196.000,356.833 196.000 C 356.943 196.000,357.828 195.190,358.800 194.200 C 359.772 193.210,360.477 192.400,360.367 192.400 C 360.257 192.400,359.372 193.210,358.400 194.200 M249.178 197.375 C 249.937 198.159,250.625 198.800,250.709 198.800 C 251.055 198.800,248.952 196.435,248.400 196.203 C 248.070 196.064,248.420 196.592,249.178 197.375 M354.400 197.406 C 350.605 200.283,350.588 200.274,354.894 197.663 C 355.495 197.298,356.075 196.775,356.181 196.500 C 356.433 195.851,356.489 195.822,354.400 197.406 M251.200 199.654 C 251.530 199.954,252.059 200.470,252.375 200.800 C 252.821 201.265,252.814 201.180,252.341 200.422 C 252.006 199.884,251.477 199.368,251.166 199.276 C 250.710 199.141,250.717 199.215,251.200 199.654 M253.200 201.464 C 253.200 201.682,253.695 202.297,254.300 202.830 L 255.400 203.800 254.400 202.600 C 253.850 201.940,253.355 201.325,253.300 201.233 C 253.245 201.142,253.200 201.245,253.200 201.464 M341.750 203.787 C 341.370 204.775,341.477 204.895,353.155 216.597 C 363.044 226.506,364.475 228.094,364.308 228.971 C 364.202 229.523,364.270 229.881,364.458 229.764 C 365.690 229.003,364.336 227.367,353.400 216.407 C 342.700 205.684,341.255 203.967,342.500 203.465 C 342.892 203.307,342.889 203.256,342.487 203.232 C 342.206 203.214,341.874 203.464,341.750 203.787 M256.164 204.800 C 256.523 205.350,257.835 206.790,259.079 208.000 L 261.341 210.200 259.564 208.200 C 256.404 204.645,255.422 203.662,256.164 204.800 M263.233 212.700 C 264.447 213.965,266.197 215.851,267.120 216.891 C 268.044 217.931,268.797 218.651,268.794 218.491 C 268.785 218.000,261.785 210.400,261.342 210.400 C 261.168 210.400,262.019 211.435,263.233 212.700 M135.400 213.603 C 134.740 213.780,133.210 214.320,132.000 214.804 C 130.790 215.288,129.170 215.921,128.400 216.212 C 127.630 216.502,125.650 217.292,124.000 217.968 C 122.350 218.644,120.820 219.204,120.600 219.212 C 120.380 219.220,119.480 219.575,118.600 220.000 C 117.720 220.425,116.858 220.779,116.685 220.786 C 116.512 220.794,113.812 221.804,110.685 223.032 C 107.558 224.259,104.010 225.628,102.800 226.074 C 101.590 226.520,100.060 227.111,99.400 227.387 C 98.740 227.662,97.120 228.287,95.800 228.774 C 94.480 229.261,92.590 229.993,91.600 230.401 C 87.058 232.269,82.547 234.001,82.191 234.014 C 81.976 234.021,81.080 234.375,80.200 234.800 C 79.320 235.225,78.458 235.579,78.285 235.586 C 78.112 235.594,75.412 236.606,72.285 237.836 C 69.158 239.066,65.430 240.516,64.000 241.057 C 62.570 241.599,61.040 242.199,60.600 242.392 C 60.160 242.584,59.273 242.900,58.629 243.095 C 56.526 243.728,56.569 246.414,58.751 250.702 C 58.946 251.086,59.473 252.390,59.921 253.600 C 60.370 254.810,61.741 258.358,62.968 261.485 C 64.196 264.612,65.206 267.312,65.214 267.485 C 65.221 267.658,65.575 268.520,66.000 269.400 C 66.425 270.280,66.779 271.220,66.786 271.490 C 66.794 271.759,67.474 273.289,68.298 274.890 C 70.772 279.696,74.190 282.671,79.986 285.063 C 82.518 286.108,89.403 286.099,92.200 285.049 C 99.574 282.278,102.734 281.039,103.662 280.554 C 104.246 280.249,104.966 279.994,105.262 279.986 C 105.558 279.979,106.520 279.625,107.400 279.200 C 108.280 278.775,109.242 278.421,109.538 278.414 C 109.834 278.406,110.554 278.152,111.138 277.849 C 111.722 277.546,113.190 276.933,114.400 276.486 C 117.952 275.176,125.300 272.363,126.600 271.816 C 127.260 271.539,128.790 270.945,130.000 270.497 C 131.210 270.048,133.820 269.048,135.800 268.273 C 137.780 267.498,139.850 266.735,140.400 266.578 C 140.950 266.421,141.755 266.046,142.189 265.746 C 142.623 265.446,143.253 265.194,143.589 265.186 C 143.925 265.179,144.920 264.825,145.800 264.400 C 146.680 263.975,147.576 263.621,147.791 263.614 C 148.006 263.606,149.716 262.987,151.591 262.237 C 153.466 261.488,156.980 260.120,159.400 259.198 C 161.820 258.276,164.340 257.294,165.000 257.016 C 165.660 256.739,167.190 256.143,168.400 255.693 C 171.859 254.406,179.278 251.546,180.600 250.990 C 181.260 250.712,182.790 250.123,184.000 249.680 C 185.210 249.237,188.730 247.868,191.823 246.637 C 194.916 245.407,197.616 244.394,197.823 244.386 C 198.030 244.379,198.920 244.025,199.800 243.600 C 200.680 243.175,201.576 242.821,201.791 242.814 C 202.006 242.806,203.716 242.187,205.591 241.437 C 207.466 240.688,210.980 239.313,213.400 238.381 C 215.820 237.449,218.367 236.442,219.060 236.143 C 219.754 235.845,220.474 235.594,220.660 235.586 C 220.847 235.579,221.720 235.225,222.600 234.800 C 223.480 234.375,224.380 234.020,224.600 234.012 C 224.820 234.003,227.430 233.008,230.400 231.800 C 233.370 230.592,235.980 229.597,236.200 229.588 C 236.420 229.580,237.320 229.225,238.200 228.800 C 239.080 228.375,240.042 228.021,240.338 228.014 C 240.634 228.006,241.354 227.752,241.938 227.449 C 242.522 227.146,244.080 226.502,245.400 226.019 C 246.720 225.535,248.610 224.803,249.600 224.391 C 250.590 223.978,251.813 223.527,252.317 223.388 C 253.937 222.941,251.351 219.120,246.399 214.647 L 244.798 213.200 190.699 213.241 C 160.944 213.263,136.060 213.426,135.400 213.603 M46.400 215.001 C 46.400 215.552,46.760 216.675,47.200 217.496 C 47.640 218.316,48.000 219.374,48.000 219.845 C 48.000 220.316,48.258 220.917,48.574 221.179 C 48.890 221.441,49.271 222.228,49.420 222.928 C 49.570 223.627,49.834 224.380,50.007 224.600 C 50.180 224.820,50.537 225.804,50.799 226.786 C 51.390 228.996,52.601 230.696,52.945 229.800 C 53.073 229.467,53.670 229.199,54.287 229.197 C 54.899 229.196,55.940 228.837,56.600 228.400 C 57.260 227.963,58.222 227.604,58.737 227.603 C 59.252 227.601,60.131 227.240,60.691 226.800 C 61.250 226.360,62.224 226.000,62.854 226.000 C 63.484 226.000,64.000 225.827,64.000 225.616 C 64.000 225.405,64.765 225.012,65.700 224.742 C 66.635 224.473,67.755 224.015,68.189 223.726 C 68.623 223.437,69.299 223.200,69.690 223.200 C 70.082 223.200,71.075 222.840,71.896 222.400 C 72.716 221.960,73.684 221.600,74.045 221.600 C 74.406 221.600,74.910 221.350,75.164 221.043 C 75.418 220.737,76.415 220.369,77.380 220.224 C 78.345 220.079,79.351 219.700,79.616 219.380 C 79.881 219.061,80.571 218.796,81.149 218.791 C 81.727 218.786,82.650 218.430,83.200 218.000 C 83.750 217.570,84.791 217.214,85.513 217.209 C 86.273 217.204,86.917 216.960,87.044 216.630 C 87.164 216.316,88.014 215.936,88.931 215.784 C 89.849 215.633,90.922 215.169,91.316 214.754 C 92.016 214.016,91.558 214.000,69.216 214.000 L 46.400 214.000 46.400 215.001 M271.844 221.980 C 272.088 222.321,272.488 222.960,272.732 223.400 C 272.976 223.840,273.181 223.985,273.188 223.722 C 273.195 223.460,272.795 222.821,272.300 222.303 C 271.805 221.785,271.600 221.640,271.844 221.980 M273.400 226.800 C 273.400 227.858,273.532 228.516,273.694 228.262 C 274.080 227.655,274.084 225.299,273.700 225.062 C 273.535 224.960,273.400 225.742,273.400 226.800 M358.975 234.900 L 357.800 236.200 359.100 235.025 C 360.312 233.930,360.584 233.600,360.275 233.600 C 360.206 233.600,359.621 234.185,358.975 234.900 M269.300 236.900 C 268.870 238.075,268.880 238.126,269.412 237.424 C 269.921 236.752,270.221 235.600,269.888 235.600 C 269.826 235.600,269.561 236.185,269.300 236.900 M267.650 240.650 C 267.386 241.229,267.262 241.795,267.374 241.907 C 267.486 242.019,267.768 241.611,268.000 241.000 C 268.232 240.389,268.357 239.823,268.276 239.743 C 268.196 239.662,267.914 240.071,267.650 240.650 M266.065 245.017 C 265.395 246.488,265.523 246.802,266.247 245.465 C 266.586 244.840,266.788 244.254,266.696 244.163 C 266.605 244.071,266.321 244.456,266.065 245.017 M263.303 255.628 C 263.030 256.789,262.883 257.816,262.977 257.910 C 263.232 258.166,264.066 254.834,263.924 254.128 C 263.856 253.791,263.576 254.466,263.303 255.628 M262.514 261.000 C 262.517 262.100,262.595 262.503,262.687 261.895 C 262.779 261.286,262.777 260.386,262.682 259.895 C 262.587 259.403,262.511 259.900,262.514 261.000 M262.164 271.400 C 262.163 275.140,262.223 276.724,262.297 274.920 C 262.371 273.115,262.372 270.055,262.298 268.120 C 262.225 266.184,262.164 267.660,262.164 271.400 M262.514 281.800 C 262.517 282.900,262.595 283.303,262.687 282.695 C 262.779 282.086,262.777 281.186,262.682 280.695 C 262.587 280.203,262.511 280.700,262.514 281.800 M262.830 284.600 C 262.833 284.820,263.100 285.900,263.424 287.000 L 264.014 289.000 263.792 287.238 C 263.598 285.689,262.815 283.545,262.830 284.600 M265.614 296.054 C 265.606 296.194,265.863 296.914,266.184 297.654 C 266.506 298.394,266.769 298.730,266.770 298.400 C 266.772 297.824,265.643 295.534,265.614 296.054 M268.400 303.847 C 268.400 304.067,268.664 304.596,268.987 305.024 C 269.310 305.451,269.575 305.620,269.575 305.400 C 269.575 305.180,269.310 304.651,268.987 304.224 C 268.664 303.796,268.400 303.627,268.400 303.847 M275.055 316.200 C 275.980 317.779,276.000 317.803,276.000 317.311 C 276.000 317.079,275.629 316.464,275.176 315.944 L 274.353 315.000 275.055 316.200 " stroke="none" fill="#df5a39" fill-rule="evenodd"></path><path id="path4" d="M30.600 13.587 C 22.994 14.802,17.000 19.825,14.331 27.222 L 13.400 29.800 13.400 106.600 L 13.400 183.400 14.280 185.842 C 16.571 192.206,20.021 195.908,26.129 198.556 L 29.000 199.800 130.200 199.896 C 230.176 199.991,233.478 199.953,231.965 198.716 C 231.436 198.283,226.883 193.338,216.800 182.246 C 215.810 181.157,214.550 179.790,214.000 179.207 C 205.769 170.488,202.898 166.727,201.015 162.200 C 187.949 130.791,220.683 100.623,250.600 116.501 C 254.485 118.563,257.864 121.750,286.900 150.744 C 317.627 181.426,318.935 182.659,319.628 181.575 C 319.848 181.230,319.951 150.725,319.886 105.200 L 319.778 29.400 318.908 27.097 C 316.635 21.074,311.973 16.489,306.000 14.399 L 303.400 13.490 168.000 13.379 C 93.530 13.318,31.700 13.411,30.600 13.587 M83.719 28.557 C 87.376 30.383,89.773 32.853,91.719 36.800 L 93.000 39.400 93.000 60.000 L 93.000 80.600 91.600 83.391 C 89.820 86.942,86.942 89.820,83.391 91.600 L 80.600 93.000 60.000 93.000 L 39.400 93.000 36.609 91.600 C 33.026 89.803,30.040 86.818,28.331 83.322 L 27.000 80.600 27.000 60.000 L 27.000 39.400 28.342 36.654 C 30.535 32.169,33.117 29.786,38.000 27.743 L 40.200 26.823 60.400 26.911 L 80.600 27.000 83.719 28.557 M212.957 33.833 C 213.091 34.181,213.200 38.685,213.200 43.843 L 213.200 53.220 206.700 53.110 L 200.200 53.000 200.093 43.650 C 200.017 37.089,200.121 34.136,200.441 33.750 C 201.162 32.882,212.622 32.958,212.957 33.833 M239.520 33.680 C 240.221 34.381,240.202 52.625,239.500 53.069 C 238.822 53.497,230.823 53.754,228.594 53.420 L 226.800 53.151 226.800 43.808 C 226.800 38.670,226.909 34.181,227.043 33.833 C 227.355 33.018,238.719 32.879,239.520 33.680 M266.386 33.974 C 266.636 34.442,266.800 38.320,266.800 43.786 C 266.800 54.457,267.548 53.400,260.000 53.400 C 252.452 53.400,253.200 54.457,253.200 43.786 C 253.200 32.227,252.575 33.200,260.000 33.200 C 265.495 33.200,266.005 33.262,266.386 33.974 M293.019 34.173 C 293.718 35.240,293.762 52.374,293.067 53.067 C 292.660 53.474,281.678 53.514,280.700 53.113 C 279.816 52.750,279.610 34.550,280.480 33.680 C 281.533 32.627,292.283 33.050,293.019 34.173 M59.269 113.862 C 60.313 114.807,60.370 124.928,59.338 126.069 C 58.372 127.136,35.104 127.199,33.931 126.138 C 32.887 125.193,32.830 115.072,33.862 113.931 C 34.828 112.864,58.096 112.801,59.269 113.862 M99.269 113.862 C 100.313 114.807,100.370 124.928,99.338 126.069 C 98.372 127.136,75.104 127.199,73.931 126.138 C 72.887 125.193,72.830 115.072,73.862 113.931 C 74.828 112.864,98.096 112.801,99.269 113.862 M139.269 113.862 C 140.313 114.807,140.370 124.928,139.338 126.069 C 138.372 127.136,115.104 127.199,113.931 126.138 C 112.887 125.193,112.830 115.072,113.862 113.931 C 114.828 112.864,138.096 112.801,139.269 113.862 M179.371 113.829 C 179.882 114.340,180.000 115.494,180.000 120.000 C 180.000 124.506,179.882 125.660,179.371 126.171 C 178.398 127.145,155.010 127.114,153.931 126.138 C 152.887 125.193,152.830 115.072,153.862 113.931 C 154.803 112.891,178.339 112.796,179.371 113.829 M59.269 153.862 C 60.313 154.807,60.370 164.928,59.338 166.069 C 58.372 167.136,35.104 167.199,33.931 166.138 C 32.887 165.193,32.830 155.072,33.862 153.931 C 34.828 152.864,58.096 152.801,59.269 153.862 M179.371 153.829 C 179.882 154.340,180.000 155.494,180.000 160.000 C 180.000 164.506,179.882 165.660,179.371 166.171 C 178.398 167.145,155.010 167.114,153.931 166.138 C 152.887 165.193,152.830 155.072,153.862 153.931 C 154.803 152.891,178.339 152.796,179.371 153.829 " stroke="none" fill="#449bd3" fill-rule="evenodd"></path></g></svg>