<?xml version="1.0" standalone="no"?>
<!DOCTYPE svg PUBLIC "-//W3C//DTD SVG 20010904//EN"
 "http://www.w3.org/TR/2001/REC-SVG-20010904/DTD/svg10.dtd">
<svg version="1.0" xmlns="http://www.w3.org/2000/svg"
 width="426.000000pt" height="514.000000pt" viewBox="0 0 426.000000 514.000000"
 preserveAspectRatio="xMidYMid meet">

<g transform="translate(0.000000,514.000000) scale(0.100000,-0.100000)"
fill="#000000" stroke="none">
<path d="M1900 5119 c-313 -36 -655 -156 -912 -321 -505 -323 -854 -853 -953
-1448 -23 -133 -30 -411 -16 -551 100 -954 800 -1706 1751 -1881 156 -29 542
-32 695 -5 369 64 703 213 985 437 106 85 297 280 373 382 569 762 569 1794 0
2556 -70 94 -241 272 -344 358 -308 257 -715 427 -1134 474 -106 12 -338 11
-445 -1z m680 -895 c185 -54 328 -188 405 -379 23 -58 29 -89 33 -182 4 -95 1
-122 -18 -185 -32 -106 -76 -183 -149 -261 -64 -67 -64 -68 -85 -48 -51 47
-107 65 -213 69 -57 2 -103 7 -103 11 0 3 23 14 51 24 144 51 202 206 122 322
-23 33 -51 51 -150 100 -67 33 -131 69 -142 79 -23 21 -28 65 -11 97 27 50
129 64 224 30 l54 -19 11 44 c6 23 11 47 11 53 0 12 -92 41 -132 41 -28 0 -28
1 -28 60 l0 60 -45 0 -44 0 -3 -61 -3 -62 -43 -12 c-113 -34 -178 -137 -151
-238 17 -65 85 -124 196 -170 115 -48 143 -74 143 -134 0 -77 -61 -112 -175
-100 -30 3 -74 14 -99 25 l-45 20 -15 -46 c-9 -25 -16 -49 -16 -53 0 -12 108
-49 143 -49 18 0 39 -5 47 -10 10 -6 -56 -10 -196 -10 -206 0 -211 1 -231 23
-32 34 -79 125 -104 202 -29 90 -32 240 -5 330 71 235 255 402 491 445 67 12
207 4 275 -16z m943 -979 c53 -37 74 -124 43 -183 -18 -33 -632 -645 -663
-661 -15 -8 -215 -11 -664 -11 l-643 0 -286 -284 c-244 -243 -290 -284 -322
-290 -65 -12 -127 14 -154 65 -11 22 -14 81 -14 296 l0 267 322 323 c260 260
330 325 360 334 23 6 239 8 575 7 587 -3 573 -2 617 -61 25 -34 28 -110 7
-150 -31 -59 -44 -62 -316 -67 l-250 -5 0 -30 0 -30 369 -3 370 -2 250 249
c157 155 260 251 276 254 37 8 100 -2 123 -18z"/>
<path d="M2710 570 c0 -66 -2 -120 -5 -120 -2 0 -22 9 -44 21 -58 30 -139 28
-196 -5 -134 -79 -155 -286 -41 -401 72 -71 168 -83 247 -30 21 14 40 25 43
25 2 0 7 -11 10 -25 6 -22 11 -25 56 -25 l50 0 0 340 0 340 -60 0 -60 0 0
-120z m-39 -203 c33 -22 34 -25 37 -97 2 -41 0 -85 -3 -98 -14 -55 -127 -82
-177 -42 -58 45 -70 139 -27 209 33 55 111 68 170 28z"/>
<path d="M2960 610 l0 -50 60 0 60 0 0 50 0 50 -60 0 -60 0 0 -50z"/>
<path d="M950 325 l0 -315 65 0 65 0 0 101 c0 94 2 102 28 135 15 18 32 34 37
34 6 0 44 -60 85 -133 l76 -132 72 -3 72 -3 -111 191 -110 190 101 120 c55 65
100 121 100 124 0 3 -31 6 -69 6 l-69 0 -104 -127 -103 -128 -3 128 -3 127
-64 0 -65 0 0 -315z"/>
<path d="M3230 535 c-11 -52 -13 -55 -41 -55 -28 0 -29 -2 -29 -45 0 -43 1
-45 29 -45 l29 0 4 -142 c4 -165 15 -196 78 -228 45 -23 76 -25 131 -8 44 13
45 14 24 66 -15 36 -17 37 -55 34 -36 -4 -41 -1 -50 23 -6 16 -9 78 -8 139 l3
111 58 3 57 3 0 44 0 44 -57 3 -58 3 -3 53 -3 52 -49 0 -49 0 -11 -55z"/>
<path d="M1715 488 c-15 -4 -40 -19 -55 -33 -28 -26 -40 -24 -40 7 0 15 -8 18
-55 18 l-55 0 0 -235 0 -235 60 0 60 0 0 161 0 161 30 30 c26 25 37 29 71 26
l40 -4 14 50 c8 27 15 51 15 52 0 7 -61 9 -85 2z"/>
<path d="M2012 488 c-59 -10 -100 -36 -139 -86 -41 -54 -57 -111 -50 -183 11
-122 87 -202 207 -216 73 -9 136 13 193 65 l47 45 -34 23 c-43 30 -44 30 -77
-2 -36 -35 -116 -45 -154 -20 -27 18 -49 49 -60 84 l-6 22 170 0 171 0 0 58
c0 142 -120 236 -268 210z m99 -98 c19 -10 49 -59 49 -80 0 -6 -38 -10 -105
-10 -121 0 -129 8 -71 66 36 36 86 45 127 24z"/>
<path d="M2960 245 l0 -235 60 0 60 0 0 235 0 235 -60 0 -60 0 0 -235z"/>
</g>
</svg>
