<?xml version="1.0" standalone="no"?>
<!DOCTYPE svg PUBLIC "-//W3C//DTD SVG 20010904//EN"
 "http://www.w3.org/TR/2001/REC-SVG-20010904/DTD/svg10.dtd">
<svg version="1.0" xmlns="http://www.w3.org/2000/svg"
 width="512.000000pt" height="512.000000pt" viewBox="0 0 512.000000 512.000000"
 preserveAspectRatio="xMidYMid meet">

<g transform="translate(0.000000,512.000000) scale(0.100000,-0.100000)"
fill="#000000" stroke="none">
<path d="M2435 5085 c-127 -28 -234 -85 -255 -136 -18 -44 2 -243 36 -352 3
-10 1 -16 -5 -15 -5 2 -16 -5 -23 -15 -8 -10 -37 -22 -73 -28 -50 -9 -74 -8
-145 8 -47 10 -97 16 -113 13 -43 -8 -93 -55 -123 -115 -32 -67 -71 -100 -219
-188 -136 -81 -198 -133 -317 -268 -51 -58 -132 -148 -179 -200 -47 -52 -102
-115 -123 -142 -38 -46 -38 -48 -21 -67 12 -13 22 -17 28 -11 22 22 194 -87
183 -115 -3 -8 1 -14 8 -14 7 0 40 42 74 93 33 51 104 139 156 197 l95 105
158 66 c87 36 159 66 160 65 6 -4 35 -603 40 -848 l6 -298 67 0 67 0 5 -44
c13 -109 100 -213 233 -276 44 -21 229 -92 411 -159 331 -120 424 -157 424
-164 0 -3 -35 -31 -77 -63 -82 -61 -539 -419 -561 -439 -11 -10 2 -27 64 -89
43 -42 105 -93 138 -113 34 -20 90 -59 125 -86 l63 -49 22 26 c11 14 104 124
206 244 174 206 191 222 291 290 136 92 244 191 260 239 17 51 5 134 -29 207
-34 74 -40 79 -381 340 -130 100 -237 189 -241 202 -12 32 -154 567 -180 678
-11 49 -25 121 -31 160 -11 78 -2 299 12 290 13 -8 182 68 568 256 190 92 363
175 385 184 l38 16 -32 37 c-34 39 -53 77 -77 156 -7 26 -16 47 -19 47 -17 0
-244 -100 -370 -163 -168 -84 -297 -137 -417 -173 -103 -30 -115 -30 -129 1
-16 36 -26 31 -51 -22 -20 -44 -22 -62 -20 -218 l2 -170 -33 65 c-18 36 -41
99 -50 140 -25 109 -41 145 -105 245 -32 50 -66 104 -74 121 -16 32 -16 32 13
44 16 7 46 30 65 51 32 35 35 45 35 97 0 45 4 63 19 76 18 16 22 16 49 2 16
-8 37 -31 46 -51 14 -28 20 -34 34 -26 12 7 15 21 13 55 -2 36 4 57 23 91 29
49 70 85 97 85 38 0 15 118 -26 134 -28 10 -156 5 -220 -9z"/>
<path d="M2194 1641 c-17 -10 -42 -32 -55 -49 -13 -16 -39 -37 -57 -46 l-33
-17 23 -37 c13 -21 39 -63 58 -95 28 -46 38 -56 55 -51 36 11 39 9 53 -36 7
-25 18 -63 25 -84 16 -56 136 -233 191 -284 44 -40 87 -55 100 -33 4 5 -11 51
-31 103 -37 92 -37 95 -41 260 l-4 168 -48 14 c-27 8 -58 20 -70 26 -28 15
-50 68 -50 124 0 31 -5 46 -16 50 -29 11 -69 6 -100 -13z"/>
<path d="M825 1634 c-11 -3 -30 -7 -42 -9 -21 -5 -18 -12 53 -168 42 -89 91
-199 109 -243 19 -45 72 -160 118 -255 46 -96 106 -222 132 -281 27 -60 53
-108 59 -108 7 0 36 24 65 54 l53 53 -221 479 -220 479 -43 2 c-24 0 -52 -1
-63 -3z"/>
</g>
</svg>
