<?xml version="1.0" standalone="no"?>
<!DOCTYPE svg PUBLIC "-//W3C//DTD SVG 20010904//EN"
 "http://www.w3.org/TR/2001/REC-SVG-20010904/DTD/svg10.dtd">
<svg version="1.0" xmlns="http://www.w3.org/2000/svg"
 width="427.000000pt" height="526.000000pt" viewBox="0 0 427.000000 526.000000"
 preserveAspectRatio="xMidYMid meet">

<g transform="translate(0.000000,526.000000) scale(0.100000,-0.100000)"
fill="#000000" stroke="none">
<path d="M1850 5234 c-567 -76 -1081 -378 -1424 -837 -220 -296 -360 -649
-406 -1027 -15 -124 -12 -382 5 -517 126 -961 886 -1713 1855 -1833 109 -13
391 -13 500 0 234 29 472 100 685 204 657 322 1100 957 1176 1685 16 158 7
444 -20 586 -31 166 -66 286 -125 433 -285 706 -938 1209 -1694 1306 -151 19
-407 19 -552 0z m1408 -570 c53 -41 63 -76 60 -217 l-3 -122 -80 -7 c-94 -8
-266 -23 -420 -38 -60 -6 -157 -15 -215 -20 -58 -5 -154 -14 -215 -20 -60 -6
-158 -15 -217 -20 -104 -10 -216 -20 -433 -40 -55 -5 -152 -14 -215 -20 -63
-6 -160 -15 -215 -21 -55 -5 -142 -12 -192 -16 -51 -3 -93 -10 -93 -15 0 -27
36 -71 78 -95 l47 -28 1120 -5 1120 -5 48 -24 c69 -33 101 -64 139 -129 l33
-57 0 -870 0 -870 -23 -43 c-29 -55 -89 -115 -144 -144 l-43 -23 -1230 0
-1230 0 -43 23 c-52 28 -116 92 -145 147 l-22 40 0 1035 0 1035 29 50 c62 108
125 146 297 176 63 10 121 22 131 25 9 2 40 9 70 14 134 23 298 52 348 61 30
6 78 14 105 19 56 9 261 46 345 61 30 6 78 14 105 19 28 4 104 18 170 29 153
28 322 58 450 81 108 19 180 33 290 55 90 19 149 12 193 -21z"/>
<path d="M3018 3086 c-70 -31 -128 -117 -128 -191 0 -125 140 -239 252 -206
92 28 157 103 166 190 7 78 -42 162 -119 201 -43 23 -128 26 -171 6z"/>
<path d="M1040 550 l0 -340 54 0 c49 0 54 2 60 25 l6 25 38 -25 c71 -47 167
-43 237 10 17 12 44 47 60 76 26 47 30 64 30 129 -1 64 -5 83 -30 129 -16 29
-43 64 -60 76 -70 53 -177 57 -235 9 l-30 -26 0 126 0 126 -65 0 -65 0 0 -340z
m304 19 c74 -58 74 -179 0 -238 -23 -18 -38 -22 -74 -19 -25 3 -58 13 -73 23
-27 18 -28 19 -25 114 l3 95 34 23 c43 29 99 30 135 2z"/>
<path d="M70 795 l0 -55 75 0 75 0 0 -265 0 -265 65 0 65 0 0 265 0 265 75 0
75 0 0 55 0 55 -215 0 -215 0 0 -55z"/>
<path d="M608 681 c-37 -9 -71 -20 -74 -24 -11 -11 15 -87 30 -87 8 0 30 7 49
15 84 35 170 8 179 -55 l5 -30 -83 0 c-93 0 -127 -10 -166 -47 -57 -55 -60
-137 -8 -197 53 -60 169 -73 232 -26 l29 22 6 -21 c5 -18 13 -21 59 -21 l54 0
0 163 c0 184 -9 228 -54 273 -55 55 -138 67 -258 35z m170 -257 c19 -5 22 -13
22 -50 0 -39 -4 -47 -32 -64 -46 -29 -105 -23 -131 11 -17 24 -18 30 -6 55 22
46 81 65 147 48z"/>
<path d="M2386 690 c-16 -5 -41 -21 -56 -35 -29 -28 -40 -24 -40 12 0 21 -4
23 -55 23 l-55 0 0 -240 0 -240 65 0 65 0 0 164 0 164 31 26 c37 31 87 34 120
7 23 -19 24 -24 27 -190 l4 -171 59 0 60 0 -3 183 c-3 160 -5 187 -24 222 -34
67 -118 99 -198 75z"/>
<path d="M2832 674 c-82 -41 -123 -114 -123 -219 0 -66 16 -118 51 -163 66
-84 190 -104 276 -46 l37 25 -6 -45 c-8 -58 -24 -82 -65 -102 -42 -20 -97 -13
-170 21 l-53 25 -19 -46 c-11 -25 -20 -49 -20 -54 0 -4 23 -18 52 -30 137 -59
297 -36 355 50 38 55 43 96 43 353 l0 247 -55 0 c-48 0 -55 -3 -55 -19 0 -24
-16 -36 -26 -20 -12 20 -88 49 -130 49 -23 0 -61 -11 -92 -26z m199 -107 c33
-22 34 -24 37 -103 3 -78 2 -80 -28 -109 -27 -26 -39 -30 -85 -30 -43 0 -59 5
-79 24 -58 55 -58 151 -1 208 27 27 40 33 78 33 29 0 55 -8 78 -23z"/>
<path d="M3445 693 c-64 -14 -125 -37 -125 -48 0 -26 23 -75 35 -75 7 0 29 7
48 15 83 35 170 8 179 -54 l4 -29 -97 -4 c-80 -2 -103 -7 -125 -24 -50 -37
-69 -72 -69 -124 0 -60 24 -96 86 -128 56 -30 134 -27 180 7 l30 23 6 -21 c5
-18 13 -21 59 -21 l54 0 0 168 c-1 219 -16 262 -105 303 -37 17 -111 23 -160
12z m123 -269 c19 -5 22 -13 22 -50 0 -39 -4 -47 -32 -64 -66 -40 -140 -16
-140 45 0 57 71 90 150 69z"/>
<path d="M4030 685 c-19 -9 -45 -25 -56 -36 l-22 -21 -7 31 c-6 30 -8 31 -61
31 l-54 0 0 -240 0 -240 65 0 65 0 0 163 c0 160 0 164 24 186 15 14 42 25 68
28 35 4 47 1 63 -17 18 -20 20 -39 23 -191 l3 -169 66 0 66 0 -5 173 c-5 195
-19 245 -78 287 -41 29 -113 36 -160 15z"/>
<path d="M1620 532 c0 -111 4 -173 15 -208 22 -76 83 -124 157 -124 37 0 117
36 125 56 9 23 21 16 25 -13 3 -26 7 -28 56 -31 l52 -3 0 240 0 241 -60 0 -60
0 0 -156 c0 -87 -4 -164 -10 -175 -14 -25 -62 -49 -98 -49 -67 0 -80 42 -81
253 l-1 127 -60 0 -60 0 0 -158z"/>
</g>
</svg>
